STARTFONT 2.1
FONT -Shinonome-Gothic-Medium-R-Normal--16-150-75-75-C-0-ISO10646-1
SIZE 16 75 75
FONTBOUNDINGBOX 16 16 0 -2
STARTPROPERTIES 19
FONT_ASCENT 14
FONT_DESCENT 2
DEFAULT_CHAR 8481
COPYRIGHT "Public Domain"
FONTNAME_REGISTRY ""
FOUNDRY "Shinonome"
FAMILY_NAME "Gothic"
WEIGHT_NAME "Medium"
SLANT "R"
SETWIDTH_NAME "Normal"
ADD_STYLE_NAME ""
PIXEL_SIZE 16
POINT_SIZE 150
RESOLUTION_X 75
RESOLUTION_Y 75
SPACING "C"
AVERAGE_WIDTH 0
CHARSET_REGISTRY "ISO10646"
CHARSET_ENCODING "1"
ENDPROPERTIES
CHARS 7126
STARTCHAR U0020
ENCODING 32
SWIDTH 480 0
DWIDTH 8 0
BBX 8 16 0 -2
BITMAP
00
00
00
00
00
00
00
00
00
00
00
00
00
00
00
00
ENDCHAR
STARTCHAR U0021
ENCODING 33
SWIDTH 480 0
DWIDTH 8 0
BBX 8 16 0 -2
BITMAP
00
18
18
18
18
10
10
10
10
10
10
00
00
10
10
00
ENDCHAR
STARTCHAR U0022
ENCODING 34
SWIDTH 480 0
DWIDTH 8 0
BBX 8 16 0 -2
BITMAP
6c
24
24
48
00
00
00
00
00
00
00
00
00
00
00
00
ENDCHAR
STARTCHAR U0023
ENCODING 35
SWIDTH 480 0
DWIDTH 8 0
BBX 8 16 0 -2
BITMAP
00
12
12
12
7f
24
24
24
24
24
fe
48
48
48
48
00
ENDCHAR
STARTCHAR U0024
ENCODING 36
SWIDTH 480 0
DWIDTH 8 0
BBX 8 16 0 -2
BITMAP
10
38
54
92
92
90
50
38
14
12
92
92
54
38
10
10
ENDCHAR
STARTCHAR U0025
ENCODING 37
SWIDTH 480 0
DWIDTH 8 0
BBX 8 16 0 -2
BITMAP
01
61
92
92
94
94
68
08
10
16
29
29
49
49
86
80
ENDCHAR
STARTCHAR U0026
ENCODING 38
SWIDTH 480 0
DWIDTH 8 0
BBX 8 16 0 -2
BITMAP
00
38
44
44
44
28
10
30
4a
8a
84
84
4a
31
00
00
ENDCHAR
STARTCHAR U0027
ENCODING 39
SWIDTH 480 0
DWIDTH 8 0
BBX 8 16 0 -2
BITMAP
60
20
20
40
00
00
00
00
00
00
00
00
00
00
00
00
ENDCHAR
STARTCHAR U0028
ENCODING 40
SWIDTH 480 0
DWIDTH 8 0
BBX 8 16 0 -2
BITMAP
00
02
04
08
08
10
10
10
10
10
10
10
08
08
04
02
ENDCHAR
STARTCHAR U0029
ENCODING 41
SWIDTH 480 0
DWIDTH 8 0
BBX 8 16 0 -2
BITMAP
00
40
20
10
10
08
08
08
08
08
08
08
10
10
20
40
ENDCHAR
STARTCHAR U002A
ENCODING 42
SWIDTH 480 0
DWIDTH 8 0
BBX 8 16 0 -2
BITMAP
00
00
00
00
10
92
54
38
54
92
10
00
00
00
00
00
ENDCHAR
STARTCHAR U002B
ENCODING 43
SWIDTH 480 0
DWIDTH 8 0
BBX 8 16 0 -2
BITMAP
00
00
00
10
10
10
10
fe
10
10
10
10
00
00
00
00
ENDCHAR
STARTCHAR U002C
ENCODING 44
SWIDTH 480 0
DWIDTH 8 0
BBX 8 16 0 -2
BITMAP
00
00
00
00
00
00
00
00
00
00
00
00
60
20
20
40
ENDCHAR
STARTCHAR U002D
ENCODING 45
SWIDTH 480 0
DWIDTH 8 0
BBX 8 16 0 -2
BITMAP
00
00
00
00
00
00
00
fe
00
00
00
00
00
00
00
00
ENDCHAR
STARTCHAR U002E
ENCODING 46
SWIDTH 480 0
DWIDTH 8 0
BBX 8 16 0 -2
BITMAP
00
00
00
00
00
00
00
00
00
00
00
00
60
60
00
00
ENDCHAR
STARTCHAR U002F
ENCODING 47
SWIDTH 480 0
DWIDTH 8 0
BBX 8 16 0 -2
BITMAP
00
02
02
04
04
08
08
10
10
20
20
40
40
80
80
00
ENDCHAR
STARTCHAR U0030
ENCODING 48
SWIDTH 480 0
DWIDTH 8 0
BBX 8 16 0 -2
BITMAP
00
18
24
24
42
42
42
42
42
42
42
24
24
18
00
00
ENDCHAR
STARTCHAR U0031
ENCODING 49
SWIDTH 480 0
DWIDTH 8 0
BBX 8 16 0 -2
BITMAP
00
10
10
30
50
10
10
10
10
10
10
10
10
10
00
00
ENDCHAR
STARTCHAR U0032
ENCODING 50
SWIDTH 480 0
DWIDTH 8 0
BBX 8 16 0 -2
BITMAP
00
18
24
42
42
02
04
08
10
20
20
40
40
7e
00
00
ENDCHAR
STARTCHAR U0033
ENCODING 51
SWIDTH 480 0
DWIDTH 8 0
BBX 8 16 0 -2
BITMAP
00
38
44
82
82
02
04
38
04
02
82
82
44
38
00
00
ENDCHAR
STARTCHAR U0034
ENCODING 52
SWIDTH 480 0
DWIDTH 8 0
BBX 8 16 0 -2
BITMAP
00
08
18
18
28
28
48
48
88
fe
08
08
08
08
00
00
ENDCHAR
STARTCHAR U0035
ENCODING 53
SWIDTH 480 0
DWIDTH 8 0
BBX 8 16 0 -2
BITMAP
00
7c
40
40
40
b8
c4
82
02
02
82
82
44
38
00
00
ENDCHAR
STARTCHAR U0036
ENCODING 54
SWIDTH 480 0
DWIDTH 8 0
BBX 8 16 0 -2
BITMAP
00
38
44
40
80
80
b8
c4
82
82
82
82
44
38
00
00
ENDCHAR
STARTCHAR U0037
ENCODING 55
SWIDTH 480 0
DWIDTH 8 0
BBX 8 16 0 -2
BITMAP
00
fe
02
04
04
08
08
08
08
10
10
10
10
10
10
00
ENDCHAR
STARTCHAR U0038
ENCODING 56
SWIDTH 480 0
DWIDTH 8 0
BBX 8 16 0 -2
BITMAP
00
38
44
82
82
82
44
38
44
82
82
82
44
38
00
00
ENDCHAR
STARTCHAR U0039
ENCODING 57
SWIDTH 480 0
DWIDTH 8 0
BBX 8 16 0 -2
BITMAP
00
38
44
82
82
82
82
46
3a
02
02
82
44
38
00
00
ENDCHAR
STARTCHAR U003A
ENCODING 58
SWIDTH 480 0
DWIDTH 8 0
BBX 8 16 0 -2
BITMAP
00
00
00
00
18
18
00
00
00
00
00
18
18
00
00
00
ENDCHAR
STARTCHAR U003B
ENCODING 59
SWIDTH 480 0
DWIDTH 8 0
BBX 8 16 0 -2
BITMAP
00
00
00
00
18
18
00
00
00
00
18
08
08
10
00
00
ENDCHAR
STARTCHAR U003C
ENCODING 60
SWIDTH 480 0
DWIDTH 8 0
BBX 8 16 0 -2
BITMAP
00
00
00
02
04
08
10
20
20
10
08
04
02
00
00
00
ENDCHAR
STARTCHAR U003D
ENCODING 61
SWIDTH 480 0
DWIDTH 8 0
BBX 8 16 0 -2
BITMAP
00
00
00
00
00
fe
00
00
00
fe
00
00
00
00
00
00
ENDCHAR
STARTCHAR U003E
ENCODING 62
SWIDTH 480 0
DWIDTH 8 0
BBX 8 16 0 -2
BITMAP
00
00
00
40
20
10
08
04
04
08
10
20
40
00
00
00
ENDCHAR
STARTCHAR U003F
ENCODING 63
SWIDTH 480 0
DWIDTH 8 0
BBX 8 16 0 -2
BITMAP
00
38
44
82
82
82
04
08
08
10
10
00
00
10
10
00
ENDCHAR
STARTCHAR U0040
ENCODING 64
SWIDTH 480 0
DWIDTH 8 0
BBX 8 16 0 -2
BITMAP
00
18
24
42
5a
b5
a5
a5
a5
9a
40
40
22
1c
00
00
ENDCHAR
STARTCHAR U0041
ENCODING 65
SWIDTH 480 0
DWIDTH 8 0
BBX 8 16 0 -2
BITMAP
00
10
10
28
28
28
44
44
44
7c
82
82
82
82
00
00
ENDCHAR
STARTCHAR U0042
ENCODING 66
SWIDTH 480 0
DWIDTH 8 0
BBX 8 16 0 -2
BITMAP
00
f0
88
84
84
84
88
f8
84
82
82
82
84
f8
00
00
ENDCHAR
STARTCHAR U0043
ENCODING 67
SWIDTH 480 0
DWIDTH 8 0
BBX 8 16 0 -2
BITMAP
00
38
44
42
80
80
80
80
80
80
80
42
44
38
00
00
ENDCHAR
STARTCHAR U0044
ENCODING 68
SWIDTH 480 0
DWIDTH 8 0
BBX 8 16 0 -2
BITMAP
00
f0
88
84
84
82
82
82
82
82
84
84
88
f0
00
00
ENDCHAR
STARTCHAR U0045
ENCODING 69
SWIDTH 480 0
DWIDTH 8 0
BBX 8 16 0 -2
BITMAP
00
fe
80
80
80
80
80
fc
80
80
80
80
80
fe
00
00
ENDCHAR
STARTCHAR U0046
ENCODING 70
SWIDTH 480 0
DWIDTH 8 0
BBX 8 16 0 -2
BITMAP
00
fe
80
80
80
80
80
fc
80
80
80
80
80
80
00
00
ENDCHAR
STARTCHAR U0047
ENCODING 71
SWIDTH 480 0
DWIDTH 8 0
BBX 8 16 0 -2
BITMAP
00
18
24
42
40
80
80
8e
82
82
82
42
66
1a
00
00
ENDCHAR
STARTCHAR U0048
ENCODING 72
SWIDTH 480 0
DWIDTH 8 0
BBX 8 16 0 -2
BITMAP
00
82
82
82
82
82
82
fe
82
82
82
82
82
82
00
00
ENDCHAR
STARTCHAR U0049
ENCODING 73
SWIDTH 480 0
DWIDTH 8 0
BBX 8 16 0 -2
BITMAP
00
38
10
10
10
10
10
10
10
10
10
10
10
38
00
00
ENDCHAR
STARTCHAR U004A
ENCODING 74
SWIDTH 480 0
DWIDTH 8 0
BBX 8 16 0 -2
BITMAP
00
02
02
02
02
02
02
02
02
02
02
42
24
18
00
00
ENDCHAR
STARTCHAR U004B
ENCODING 75
SWIDTH 480 0
DWIDTH 8 0
BBX 8 16 0 -2
BITMAP
00
42
42
44
44
48
58
68
64
44
42
42
41
41
00
00
ENDCHAR
STARTCHAR U004C
ENCODING 76
SWIDTH 480 0
DWIDTH 8 0
BBX 8 16 0 -2
BITMAP
00
40
40
40
40
40
40
40
40
40
40
40
40
7e
00
00
ENDCHAR
STARTCHAR U004D
ENCODING 77
SWIDTH 480 0
DWIDTH 8 0
BBX 8 16 0 -2
BITMAP
00
82
82
c6
c6
c6
aa
aa
aa
92
92
92
92
82
00
00
ENDCHAR
STARTCHAR U004E
ENCODING 78
SWIDTH 480 0
DWIDTH 8 0
BBX 8 16 0 -2
BITMAP
00
82
c2
c2
a2
a2
92
92
92
8a
8a
86
86
82
00
00
ENDCHAR
STARTCHAR U004F
ENCODING 79
SWIDTH 480 0
DWIDTH 8 0
BBX 8 16 0 -2
BITMAP
00
38
44
44
82
82
82
82
82
82
82
44
44
38
00
00
ENDCHAR
STARTCHAR U0050
ENCODING 80
SWIDTH 480 0
DWIDTH 8 0
BBX 8 16 0 -2
BITMAP
00
f8
84
82
82
82
84
f8
80
80
80
80
80
80
00
00
ENDCHAR
STARTCHAR U0051
ENCODING 81
SWIDTH 480 0
DWIDTH 8 0
BBX 8 16 0 -2
BITMAP
00
38
44
44
82
82
82
82
82
82
ba
44
44
38
08
06
ENDCHAR
STARTCHAR U0052
ENCODING 82
SWIDTH 480 0
DWIDTH 8 0
BBX 8 16 0 -2
BITMAP
00
f8
84
82
82
82
84
f8
88
84
84
84
82
82
00
00
ENDCHAR
STARTCHAR U0053
ENCODING 83
SWIDTH 480 0
DWIDTH 8 0
BBX 8 16 0 -2
BITMAP
00
38
44
82
82
80
60
18
04
02
82
82
44
38
00
00
ENDCHAR
STARTCHAR U0054
ENCODING 84
SWIDTH 480 0
DWIDTH 8 0
BBX 8 16 0 -2
BITMAP
00
fe
10
10
10
10
10
10
10
10
10
10
10
10
00
00
ENDCHAR
STARTCHAR U0055
ENCODING 85
SWIDTH 480 0
DWIDTH 8 0
BBX 8 16 0 -2
BITMAP
00
82
82
82
82
82
82
82
82
82
82
82
44
38
00
00
ENDCHAR
STARTCHAR U0056
ENCODING 86
SWIDTH 480 0
DWIDTH 8 0
BBX 8 16 0 -2
BITMAP
00
82
82
82
82
44
44
44
28
28
28
10
10
10
00
00
ENDCHAR
STARTCHAR U0057
ENCODING 87
SWIDTH 480 0
DWIDTH 8 0
BBX 8 16 0 -2
BITMAP
00
92
92
92
92
92
92
aa
aa
6c
44
44
44
44
00
00
ENDCHAR
STARTCHAR U0058
ENCODING 88
SWIDTH 480 0
DWIDTH 8 0
BBX 8 16 0 -2
BITMAP
00
82
44
44
28
28
10
28
28
28
44
44
82
82
00
00
ENDCHAR
STARTCHAR U0059
ENCODING 89
SWIDTH 480 0
DWIDTH 8 0
BBX 8 16 0 -2
BITMAP
00
82
82
44
44
44
28
28
10
10
10
10
10
10
00
00
ENDCHAR
STARTCHAR U005A
ENCODING 90
SWIDTH 480 0
DWIDTH 8 0
BBX 8 16 0 -2
BITMAP
00
fe
04
04
08
08
10
10
20
20
40
40
80
fe
00
00
ENDCHAR
STARTCHAR U005B
ENCODING 91
SWIDTH 480 0
DWIDTH 8 0
BBX 8 16 0 -2
BITMAP
1e
10
10
10
10
10
10
10
10
10
10
10
10
10
10
1e
ENDCHAR
STARTCHAR U005C
ENCODING 92
SWIDTH 480 0
DWIDTH 8 0
BBX 8 16 0 -2
BITMAP
00
80
80
40
40
20
20
10
10
08
08
04
04
02
02
00
ENDCHAR
STARTCHAR U005D
ENCODING 93
SWIDTH 480 0
DWIDTH 8 0
BBX 8 16 0 -2
BITMAP
f0
10
10
10
10
10
10
10
10
10
10
10
10
10
10
f0
ENDCHAR
STARTCHAR U005E
ENCODING 94
SWIDTH 480 0
DWIDTH 8 0
BBX 8 16 0 -2
BITMAP
10
28
44
82
00
00
00
00
00
00
00
00
00
00
00
00
ENDCHAR
STARTCHAR U005F
ENCODING 95
SWIDTH 480 0
DWIDTH 8 0
BBX 8 16 0 -2
BITMAP
00
00
00
00
00
00
00
00
00
00
00
00
00
00
fe
00
ENDCHAR
STARTCHAR U0060
ENCODING 96
SWIDTH 480 0
DWIDTH 8 0
BBX 8 16 0 -2
BITMAP
30
20
20
10
00
00
00
00
00
00
00
00
00
00
00
00
ENDCHAR
STARTCHAR U0061
ENCODING 97
SWIDTH 480 0
DWIDTH 8 0
BBX 8 16 0 -2
BITMAP
00
00
00
00
00
3c
42
02
3e
42
82
82
86
7a
00
00
ENDCHAR
STARTCHAR U0062
ENCODING 98
SWIDTH 480 0
DWIDTH 8 0
BBX 8 16 0 -2
BITMAP
00
80
80
80
80
b8
c4
82
82
82
82
82
c4
b8
00
00
ENDCHAR
STARTCHAR U0063
ENCODING 99
SWIDTH 480 0
DWIDTH 8 0
BBX 8 16 0 -2
BITMAP
00
00
00
00
00
38
44
82
80
80
80
82
44
38
00
00
ENDCHAR
STARTCHAR U0064
ENCODING 100
SWIDTH 480 0
DWIDTH 8 0
BBX 8 16 0 -2
BITMAP
00
02
02
02
02
3a
46
82
82
82
82
82
46
3a
00
00
ENDCHAR
STARTCHAR U0065
ENCODING 101
SWIDTH 480 0
DWIDTH 8 0
BBX 8 16 0 -2
BITMAP
00
00
00
00
00
38
44
82
82
fe
80
82
44
38
00
00
ENDCHAR
STARTCHAR U0066
ENCODING 102
SWIDTH 480 0
DWIDTH 8 0
BBX 8 16 0 -2
BITMAP
00
0c
10
10
10
7c
10
10
10
10
10
10
10
10
00
00
ENDCHAR
STARTCHAR U0067
ENCODING 103
SWIDTH 480 0
DWIDTH 8 0
BBX 8 16 0 -2
BITMAP
00
00
00
00
00
3b
44
44
44
38
40
78
84
82
82
7c
ENDCHAR
STARTCHAR U0068
ENCODING 104
SWIDTH 480 0
DWIDTH 8 0
BBX 8 16 0 -2
BITMAP
00
40
40
40
40
5c
62
42
42
42
42
42
42
42
00
00
ENDCHAR
STARTCHAR U0069
ENCODING 105
SWIDTH 480 0
DWIDTH 8 0
BBX 8 16 0 -2
BITMAP
00
10
10
00
00
30
10
10
10
10
10
10
10
10
00
00
ENDCHAR
STARTCHAR U006A
ENCODING 106
SWIDTH 480 0
DWIDTH 8 0
BBX 8 16 0 -2
BITMAP
00
08
08
00
00
18
08
08
08
08
08
08
08
08
10
60
ENDCHAR
STARTCHAR U006B
ENCODING 107
SWIDTH 480 0
DWIDTH 8 0
BBX 8 16 0 -2
BITMAP
00
40
40
40
40
42
44
48
50
68
44
44
42
42
00
00
ENDCHAR
STARTCHAR U006C
ENCODING 108
SWIDTH 480 0
DWIDTH 8 0
BBX 8 16 0 -2
BITMAP
00
30
10
10
10
10
10
10
10
10
10
10
10
10
00
00
ENDCHAR
STARTCHAR U006D
ENCODING 109
SWIDTH 480 0
DWIDTH 8 0
BBX 8 16 0 -2
BITMAP
00
00
00
00
00
ec
92
92
92
92
92
92
92
92
00
00
ENDCHAR
STARTCHAR U006E
ENCODING 110
SWIDTH 480 0
DWIDTH 8 0
BBX 8 16 0 -2
BITMAP
00
00
00
00
00
5c
62
42
42
42
42
42
42
42
00
00
ENDCHAR
STARTCHAR U006F
ENCODING 111
SWIDTH 480 0
DWIDTH 8 0
BBX 8 16 0 -2
BITMAP
00
00
00
00
00
38
44
82
82
82
82
82
44
38
00
00
ENDCHAR
STARTCHAR U0070
ENCODING 112
SWIDTH 480 0
DWIDTH 8 0
BBX 8 16 0 -2
BITMAP
00
00
00
00
00
b8
c4
82
82
82
82
c4
b8
80
80
80
ENDCHAR
STARTCHAR U0071
ENCODING 113
SWIDTH 480 0
DWIDTH 8 0
BBX 8 16 0 -2
BITMAP
00
00
00
00
00
3a
46
82
82
82
82
46
3a
02
02
02
ENDCHAR
STARTCHAR U0072
ENCODING 114
SWIDTH 480 0
DWIDTH 8 0
BBX 8 16 0 -2
BITMAP
00
00
00
00
00
2c
30
20
20
20
20
20
20
20
00
00
ENDCHAR
STARTCHAR U0073
ENCODING 115
SWIDTH 480 0
DWIDTH 8 0
BBX 8 16 0 -2
BITMAP
00
00
00
00
00
3c
42
40
60
18
06
02
42
3c
00
00
ENDCHAR
STARTCHAR U0074
ENCODING 116
SWIDTH 480 0
DWIDTH 8 0
BBX 8 16 0 -2
BITMAP
00
00
10
10
10
7c
10
10
10
10
10
10
10
0c
00
00
ENDCHAR
STARTCHAR U0075
ENCODING 117
SWIDTH 480 0
DWIDTH 8 0
BBX 8 16 0 -2
BITMAP
00
00
00
00
00
42
42
42
42
42
42
42
46
3a
00
00
ENDCHAR
STARTCHAR U0076
ENCODING 118
SWIDTH 480 0
DWIDTH 8 0
BBX 8 16 0 -2
BITMAP
00
00
00
00
00
82
82
82
44
44
28
28
10
10
00
00
ENDCHAR
STARTCHAR U0077
ENCODING 119
SWIDTH 480 0
DWIDTH 8 0
BBX 8 16 0 -2
BITMAP
00
00
00
00
00
92
92
92
92
aa
aa
44
44
44
00
00
ENDCHAR
STARTCHAR U0078
ENCODING 120
SWIDTH 480 0
DWIDTH 8 0
BBX 8 16 0 -2
BITMAP
00
00
00
00
00
82
44
28
28
10
28
28
44
82
00
00
ENDCHAR
STARTCHAR U0079
ENCODING 121
SWIDTH 480 0
DWIDTH 8 0
BBX 8 16 0 -2
BITMAP
00
00
00
00
00
82
82
44
44
28
28
18
10
10
20
c0
ENDCHAR
STARTCHAR U007A
ENCODING 122
SWIDTH 480 0
DWIDTH 8 0
BBX 8 16 0 -2
BITMAP
00
00
00
00
00
7e
04
08
08
10
10
20
40
fe
00
00
ENDCHAR
STARTCHAR U007B
ENCODING 123
SWIDTH 480 0
DWIDTH 8 0
BBX 8 16 0 -2
BITMAP
04
08
08
08
08
08
08
10
08
08
08
08
08
08
08
04
ENDCHAR
STARTCHAR U007C
ENCODING 124
SWIDTH 480 0
DWIDTH 8 0
BBX 8 16 0 -2
BITMAP
10
10
10
10
10
10
10
10
10
10
10
10
10
10
10
10
ENDCHAR
STARTCHAR U007D
ENCODING 125
SWIDTH 480 0
DWIDTH 8 0
BBX 8 16 0 -2
BITMAP
40
20
20
20
20
20
20
10
20
20
20
20
20
20
20
40
ENDCHAR
STARTCHAR U007E
ENCODING 126
SWIDTH 480 0
DWIDTH 8 0
BBX 8 16 0 -2
BITMAP
00
00
00
60
92
0c
00
00
00
00
00
00
00
00
00
00
ENDCHAR
STARTCHAR U00A1
ENCODING 161
SWIDTH 480 0
DWIDTH 8 0
BBX 8 16 0 -2
BITMAP
00
10
10
00
00
10
10
10
10
10
10
10
30
30
30
30
ENDCHAR
STARTCHAR U00A2
ENCODING 162
SWIDTH 480 0
DWIDTH 8 0
BBX 8 16 0 -2
BITMAP
00
00
10
3c
52
92
90
90
90
90
90
92
52
3c
10
00
ENDCHAR
STARTCHAR U00A3
ENCODING 163
SWIDTH 480 0
DWIDTH 8 0
BBX 8 16 0 -2
BITMAP
00
00
00
00
0c
12
10
10
10
7c
10
10
3c
52
20
00
ENDCHAR
STARTCHAR U00A4
ENCODING 164
SWIDTH 480 0
DWIDTH 8 0
BBX 8 16 0 -2
BITMAP
00
00
00
00
00
42
3c
24
24
3c
42
00
00
00
00
00
ENDCHAR
STARTCHAR U00A5
ENCODING 165
SWIDTH 480 0
DWIDTH 8 0
BBX 8 16 0 -2
BITMAP
82
82
44
44
44
28
28
fe
10
fe
10
10
10
10
00
00
ENDCHAR
STARTCHAR U00A6
ENCODING 166
SWIDTH 480 0
DWIDTH 8 0
BBX 8 16 0 -2
BITMAP
00
10
10
10
10
10
00
00
00
10
10
10
10
10
00
00
ENDCHAR
STARTCHAR U00A7
ENCODING 167
SWIDTH 480 0
DWIDTH 8 0
BBX 8 16 0 -2
BITMAP
00
3c
42
40
20
3c
42
42
42
3c
04
02
42
3c
00
00
ENDCHAR
STARTCHAR U00A8
ENCODING 168
SWIDTH 480 0
DWIDTH 8 0
BBX 8 16 0 -2
BITMAP
00
24
24
24
00
00
00
00
00
00
00
00
00
00
00
00
ENDCHAR
STARTCHAR U00A9
ENCODING 169
SWIDTH 480 0
DWIDTH 8 0
BBX 8 16 0 -2
BITMAP
00
00
3c
42
99
a5
a1
a1
a1
a5
a5
9b
42
3c
00
00
ENDCHAR
STARTCHAR U00AA
ENCODING 170
SWIDTH 480 0
DWIDTH 8 0
BBX 8 16 0 -2
BITMAP
00
1c
22
1e
22
26
1a
00
3e
00
00
00
00
00
00
00
ENDCHAR
STARTCHAR U00AB
ENCODING 171
SWIDTH 480 0
DWIDTH 8 0
BBX 8 16 0 -2
BITMAP
00
00
00
09
12
24
48
90
90
48
24
12
09
00
00
00
ENDCHAR
STARTCHAR U00AC
ENCODING 172
SWIDTH 480 0
DWIDTH 8 0
BBX 8 16 0 -2
BITMAP
00
00
00
00
00
00
00
fe
fe
06
06
00
00
00
00
00
ENDCHAR
STARTCHAR U00AD
ENCODING 173
SWIDTH 480 0
DWIDTH 8 0
BBX 8 16 0 -2
BITMAP
00
00
00
00
00
00
00
fe
fe
00
00
00
00
00
00
00
ENDCHAR
STARTCHAR U00AE
ENCODING 174
SWIDTH 480 0
DWIDTH 8 0
BBX 8 16 0 -2
BITMAP
00
00
3c
42
b9
a5
a5
b9
a9
a5
a5
a3
42
3c
00
00
ENDCHAR
STARTCHAR U00AF
ENCODING 175
SWIDTH 480 0
DWIDTH 8 0
BBX 8 16 0 -2
BITMAP
00
00
fe
00
00
00
00
00
00
00
00
00
00
00
00
00
ENDCHAR
STARTCHAR U00B0
ENCODING 176
SWIDTH 480 0
DWIDTH 8 0
BBX 8 16 0 -2
BITMAP
00
38
44
44
44
38
00
00
00
00
00
00
00
00
00
00
ENDCHAR
STARTCHAR U00B1
ENCODING 177
SWIDTH 480 0
DWIDTH 8 0
BBX 8 16 0 -2
BITMAP
00
00
00
00
10
10
10
fe
10
10
10
00
fe
00
00
00
ENDCHAR
STARTCHAR U00B2
ENCODING 178
SWIDTH 480 0
DWIDTH 8 0
BBX 8 16 0 -2
BITMAP
00
18
24
04
08
10
20
3c
00
00
00
00
00
00
00
00
ENDCHAR
STARTCHAR U00B3
ENCODING 179
SWIDTH 480 0
DWIDTH 8 0
BBX 8 16 0 -2
BITMAP
00
18
24
04
18
04
24
18
00
00
00
00
00
00
00
00
ENDCHAR
STARTCHAR U00B4
ENCODING 180
SWIDTH 480 0
DWIDTH 8 0
BBX 8 16 0 -2
BITMAP
00
0c
18
30
00
00
00
00
00
00
00
00
00
00
00
00
ENDCHAR
STARTCHAR U00B5
ENCODING 181
SWIDTH 480 0
DWIDTH 8 0
BBX 8 16 0 -2
BITMAP
00
00
00
00
00
00
00
22
22
22
44
44
6c
54
82
80
ENDCHAR
STARTCHAR U00B6
ENCODING 182
SWIDTH 480 0
DWIDTH 8 0
BBX 8 16 0 -2
BITMAP
00
3c
74
74
74
74
34
14
14
14
14
14
14
14
00
00
ENDCHAR
STARTCHAR U00B7
ENCODING 183
SWIDTH 480 0
DWIDTH 8 0
BBX 8 16 0 -2
BITMAP
00
00
00
00
00
00
18
18
00
00
00
00
00
00
00
00
ENDCHAR
STARTCHAR U00B8
ENCODING 184
SWIDTH 480 0
DWIDTH 8 0
BBX 8 16 0 -2
BITMAP
00
00
00
00
00
00
00
00
00
00
00
00
00
0c
08
10
ENDCHAR
STARTCHAR U00B9
ENCODING 185
SWIDTH 480 0
DWIDTH 8 0
BBX 8 16 0 -2
BITMAP
00
08
18
28
08
08
08
08
00
00
00
00
00
00
00
00
ENDCHAR
STARTCHAR U00BA
ENCODING 186
SWIDTH 480 0
DWIDTH 8 0
BBX 8 16 0 -2
BITMAP
00
18
24
24
24
24
18
00
3c
00
00
00
00
00
00
00
ENDCHAR
STARTCHAR U00BB
ENCODING 187
SWIDTH 480 0
DWIDTH 8 0
BBX 8 16 0 -2
BITMAP
00
00
00
00
90
48
24
12
09
09
12
24
48
90
00
00
ENDCHAR
STARTCHAR U00BC
ENCODING 188
SWIDTH 480 0
DWIDTH 8 0
BBX 8 16 0 -2
BITMAP
00
40
c4
44
48
48
50
12
22
26
4a
5f
82
82
00
00
ENDCHAR
STARTCHAR U00BD
ENCODING 189
SWIDTH 480 0
DWIDTH 8 0
BBX 8 16 0 -2
BITMAP
00
40
c4
44
48
48
50
1c
32
22
44
48
88
9e
00
00
ENDCHAR
STARTCHAR U00BE
ENCODING 190
SWIDTH 480 0
DWIDTH 8 0
BBX 8 16 0 -2
BITMAP
00
60
92
12
64
14
98
6a
12
16
2a
3f
42
42
00
00
ENDCHAR
STARTCHAR U00BF
ENCODING 191
SWIDTH 480 0
DWIDTH 8 0
BBX 8 16 0 -2
BITMAP
08
08
00
00
08
08
08
10
20
20
41
41
41
22
1c
00
ENDCHAR
STARTCHAR U00C0
ENCODING 192
SWIDTH 480 0
DWIDTH 8 0
BBX 8 16 0 -2
BITMAP
30
10
08
10
10
28
28
44
44
7c
82
82
82
82
00
00
ENDCHAR
STARTCHAR U00C1
ENCODING 193
SWIDTH 480 0
DWIDTH 8 0
BBX 8 16 0 -2
BITMAP
18
10
20
10
10
28
28
44
44
7c
82
82
82
82
00
00
ENDCHAR
STARTCHAR U00C2
ENCODING 194
SWIDTH 480 0
DWIDTH 8 0
BBX 8 16 0 -2
BITMAP
10
38
44
10
10
28
28
44
44
7c
82
82
82
82
00
00
ENDCHAR
STARTCHAR U00C3
ENCODING 195
SWIDTH 480 0
DWIDTH 8 0
BBX 8 16 0 -2
BITMAP
34
58
00
10
10
28
28
44
44
7c
82
82
82
82
00
00
ENDCHAR
STARTCHAR U00C4
ENCODING 196
SWIDTH 480 0
DWIDTH 8 0
BBX 8 16 0 -2
BITMAP
44
44
00
10
10
28
28
44
44
7c
82
82
82
82
00
00
ENDCHAR
STARTCHAR U00C5
ENCODING 197
SWIDTH 480 0
DWIDTH 8 0
BBX 8 16 0 -2
BITMAP
10
28
10
10
10
28
28
44
44
7c
82
82
82
82
00
00
ENDCHAR
STARTCHAR U00C6
ENCODING 198
SWIDTH 480 0
DWIDTH 8 0
BBX 8 16 0 -2
BITMAP
00
00
1f
28
28
28
2e
48
48
78
88
88
88
8f
00
00
ENDCHAR
STARTCHAR U00C7
ENCODING 199
SWIDTH 480 0
DWIDTH 8 0
BBX 8 16 0 -2
BITMAP
00
38
44
42
80
80
80
80
80
80
42
44
38
08
08
10
ENDCHAR
STARTCHAR U00C8
ENCODING 200
SWIDTH 480 0
DWIDTH 8 0
BBX 8 16 0 -2
BITMAP
30
10
08
fe
80
80
80
fc
80
80
80
80
80
fe
00
00
ENDCHAR
STARTCHAR U00C9
ENCODING 201
SWIDTH 480 0
DWIDTH 8 0
BBX 8 16 0 -2
BITMAP
18
10
20
fe
80
80
80
fc
80
80
80
80
80
fe
00
00
ENDCHAR
STARTCHAR U00CA
ENCODING 202
SWIDTH 480 0
DWIDTH 8 0
BBX 8 16 0 -2
BITMAP
10
38
44
fe
80
80
80
fc
80
80
80
80
80
fe
00
00
ENDCHAR
STARTCHAR U00CB
ENCODING 203
SWIDTH 480 0
DWIDTH 8 0
BBX 8 16 0 -2
BITMAP
44
44
00
fe
80
80
80
fc
80
80
80
80
80
fe
00
00
ENDCHAR
STARTCHAR U00CC
ENCODING 204
SWIDTH 480 0
DWIDTH 8 0
BBX 8 16 0 -2
BITMAP
30
10
08
38
10
10
10
10
10
10
10
10
10
38
00
00
ENDCHAR
STARTCHAR U00CD
ENCODING 205
SWIDTH 480 0
DWIDTH 8 0
BBX 8 16 0 -2
BITMAP
18
10
20
38
10
10
10
10
10
10
10
10
10
38
00
00
ENDCHAR
STARTCHAR U00CE
ENCODING 206
SWIDTH 480 0
DWIDTH 8 0
BBX 8 16 0 -2
BITMAP
10
38
44
38
10
10
10
10
10
10
10
10
10
38
00
00
ENDCHAR
STARTCHAR U00CF
ENCODING 207
SWIDTH 480 0
DWIDTH 8 0
BBX 8 16 0 -2
BITMAP
44
44
00
38
10
10
10
10
10
10
10
10
10
38
00
00
ENDCHAR
STARTCHAR U00D0
ENCODING 208
SWIDTH 480 0
DWIDTH 8 0
BBX 8 16 0 -2
BITMAP
00
70
48
44
44
42
42
f2
42
42
44
44
48
70
00
00
ENDCHAR
STARTCHAR U00D1
ENCODING 209
SWIDTH 480 0
DWIDTH 8 0
BBX 8 16 0 -2
BITMAP
34
58
82
82
c2
c2
a2
a2
92
8a
8a
86
86
82
00
00
ENDCHAR
STARTCHAR U00D2
ENCODING 210
SWIDTH 480 0
DWIDTH 8 0
BBX 8 16 0 -2
BITMAP
30
10
08
38
44
82
82
82
82
82
82
82
44
38
00
00
ENDCHAR
STARTCHAR U00D3
ENCODING 211
SWIDTH 480 0
DWIDTH 8 0
BBX 8 16 0 -2
BITMAP
18
10
20
38
44
82
82
82
82
82
82
82
44
38
00
00
ENDCHAR
STARTCHAR U00D4
ENCODING 212
SWIDTH 480 0
DWIDTH 8 0
BBX 8 16 0 -2
BITMAP
10
38
44
38
44
82
82
82
82
82
82
82
44
38
00
00
ENDCHAR
STARTCHAR U00D5
ENCODING 213
SWIDTH 480 0
DWIDTH 8 0
BBX 8 16 0 -2
BITMAP
34
58
00
38
44
82
82
82
82
82
82
82
44
38
00
00
ENDCHAR
STARTCHAR U00D6
ENCODING 214
SWIDTH 480 0
DWIDTH 8 0
BBX 8 16 0 -2
BITMAP
44
44
00
38
44
82
82
82
82
82
82
82
44
38
00
00
ENDCHAR
STARTCHAR U00D7
ENCODING 215
SWIDTH 480 0
DWIDTH 8 0
BBX 8 16 0 -2
BITMAP
00
00
00
00
81
42
24
18
18
24
42
81
00
00
00
00
ENDCHAR
STARTCHAR U00D8
ENCODING 216
SWIDTH 480 0
DWIDTH 8 0
BBX 8 16 0 -2
BITMAP
02
02
3c
44
86
8a
8a
92
92
a2
a2
c2
44
78
80
80
ENDCHAR
STARTCHAR U00D9
ENCODING 217
SWIDTH 480 0
DWIDTH 8 0
BBX 8 16 0 -2
BITMAP
30
10
08
82
82
82
82
82
82
82
82
82
44
38
00
00
ENDCHAR
STARTCHAR U00DA
ENCODING 218
SWIDTH 480 0
DWIDTH 8 0
BBX 8 16 0 -2
BITMAP
18
10
20
82
82
82
82
82
82
82
82
82
44
38
00
00
ENDCHAR
STARTCHAR U00DB
ENCODING 219
SWIDTH 480 0
DWIDTH 8 0
BBX 8 16 0 -2
BITMAP
10
38
44
00
82
82
82
82
82
82
82
82
44
38
00
00
ENDCHAR
STARTCHAR U00DC
ENCODING 220
SWIDTH 480 0
DWIDTH 8 0
BBX 8 16 0 -2
BITMAP
44
44
00
82
82
82
82
82
82
82
82
82
44
38
00
00
ENDCHAR
STARTCHAR U00DD
ENCODING 221
SWIDTH 480 0
DWIDTH 8 0
BBX 8 16 0 -2
BITMAP
18
10
a2
82
44
44
28
28
10
10
10
10
10
10
00
00
ENDCHAR
STARTCHAR U00DE
ENCODING 222
SWIDTH 480 0
DWIDTH 8 0
BBX 8 16 0 -2
BITMAP
80
80
f8
84
82
82
84
f8
80
80
80
80
80
80
00
00
ENDCHAR
STARTCHAR U00DF
ENCODING 223
SWIDTH 480 0
DWIDTH 8 0
BBX 8 16 0 -2
BITMAP
00
78
84
82
82
84
b8
84
82
82
82
82
84
b8
00
00
ENDCHAR
STARTCHAR U00E0
ENCODING 224
SWIDTH 480 0
DWIDTH 8 0
BBX 8 16 0 -2
BITMAP
00
30
10
08
00
3c
42
02
3e
42
82
82
86
7a
00
00
ENDCHAR
STARTCHAR U00E1
ENCODING 225
SWIDTH 480 0
DWIDTH 8 0
BBX 8 16 0 -2
BITMAP
00
18
10
20
00
3c
42
02
3e
42
82
82
86
7a
00
00
ENDCHAR
STARTCHAR U00E2
ENCODING 226
SWIDTH 480 0
DWIDTH 8 0
BBX 8 16 0 -2
BITMAP
00
10
38
44
00
3c
42
02
3e
42
82
82
86
7a
00
00
ENDCHAR
STARTCHAR U00E3
ENCODING 227
SWIDTH 480 0
DWIDTH 8 0
BBX 8 16 0 -2
BITMAP
00
34
58
00
00
3c
42
02
3e
42
82
82
86
7a
00
00
ENDCHAR
STARTCHAR U00E4
ENCODING 228
SWIDTH 480 0
DWIDTH 8 0
BBX 8 16 0 -2
BITMAP
00
00
24
24
00
3c
42
02
3e
42
82
82
86
7a
00
00
ENDCHAR
STARTCHAR U00E5
ENCODING 229
SWIDTH 480 0
DWIDTH 8 0
BBX 8 16 0 -2
BITMAP
00
10
28
10
00
3c
42
02
3e
42
82
82
86
7a
00
00
ENDCHAR
STARTCHAR U00E6
ENCODING 230
SWIDTH 480 0
DWIDTH 8 0
BBX 8 16 0 -2
BITMAP
00
00
00
00
00
6c
92
12
3e
50
90
92
92
6c
00
00
ENDCHAR
STARTCHAR U00E7
ENCODING 231
SWIDTH 480 0
DWIDTH 8 0
BBX 8 16 0 -2
BITMAP
00
00
00
00
38
44
82
80
80
80
82
44
38
10
10
20
ENDCHAR
STARTCHAR U00E8
ENCODING 232
SWIDTH 480 0
DWIDTH 8 0
BBX 8 16 0 -2
BITMAP
00
30
10
08
00
38
44
82
82
fe
80
82
44
38
00
00
ENDCHAR
STARTCHAR U00E9
ENCODING 233
SWIDTH 480 0
DWIDTH 8 0
BBX 8 16 0 -2
BITMAP
00
18
10
20
00
38
44
82
82
fe
80
82
44
38
00
00
ENDCHAR
STARTCHAR U00EA
ENCODING 234
SWIDTH 480 0
DWIDTH 8 0
BBX 8 16 0 -2
BITMAP
00
10
38
44
00
38
44
82
82
fe
80
82
44
38
00
00
ENDCHAR
STARTCHAR U00EB
ENCODING 235
SWIDTH 480 0
DWIDTH 8 0
BBX 8 16 0 -2
BITMAP
00
44
44
00
00
38
44
82
82
fe
80
82
44
38
00
00
ENDCHAR
STARTCHAR U00EC
ENCODING 236
SWIDTH 480 0
DWIDTH 8 0
BBX 8 16 0 -2
BITMAP
00
30
10
08
00
30
10
10
10
10
10
10
10
10
00
00
ENDCHAR
STARTCHAR U00ED
ENCODING 237
SWIDTH 480 0
DWIDTH 8 0
BBX 8 16 0 -2
BITMAP
00
18
10
20
00
30
10
10
10
10
10
10
10
10
00
00
ENDCHAR
STARTCHAR U00EE
ENCODING 238
SWIDTH 480 0
DWIDTH 8 0
BBX 8 16 0 -2
BITMAP
00
10
38
44
00
30
10
10
10
10
10
10
10
10
00
00
ENDCHAR
STARTCHAR U00EF
ENCODING 239
SWIDTH 480 0
DWIDTH 8 0
BBX 8 16 0 -2
BITMAP
00
44
44
00
00
30
10
10
10
10
10
10
10
10
00
00
ENDCHAR
STARTCHAR U00F0
ENCODING 240
SWIDTH 480 0
DWIDTH 8 0
BBX 8 16 0 -2
BITMAP
00
64
18
30
48
38
44
82
82
82
82
82
44
38
00
00
ENDCHAR
STARTCHAR U00F1
ENCODING 241
SWIDTH 480 0
DWIDTH 8 0
BBX 8 16 0 -2
BITMAP
00
34
58
00
00
5c
62
42
42
42
42
42
42
42
00
00
ENDCHAR
STARTCHAR U00F2
ENCODING 242
SWIDTH 480 0
DWIDTH 8 0
BBX 8 16 0 -2
BITMAP
00
30
10
08
00
38
44
82
82
82
82
82
44
38
00
00
ENDCHAR
STARTCHAR U00F3
ENCODING 243
SWIDTH 480 0
DWIDTH 8 0
BBX 8 16 0 -2
BITMAP
00
18
10
20
00
38
44
82
82
82
82
82
44
38
00
00
ENDCHAR
STARTCHAR U00F4
ENCODING 244
SWIDTH 480 0
DWIDTH 8 0
BBX 8 16 0 -2
BITMAP
00
10
38
44
00
38
44
82
82
82
82
82
44
38
00
00
ENDCHAR
STARTCHAR U00F5
ENCODING 245
SWIDTH 480 0
DWIDTH 8 0
BBX 8 16 0 -2
BITMAP
00
34
58
00
00
38
44
82
82
82
82
82
44
38
00
00
ENDCHAR
STARTCHAR U00F6
ENCODING 246
SWIDTH 480 0
DWIDTH 8 0
BBX 8 16 0 -2
BITMAP
00
44
44
00
00
38
44
82
82
82
82
82
44
38
00
00
ENDCHAR
STARTCHAR U00F7
ENCODING 247
SWIDTH 480 0
DWIDTH 8 0
BBX 8 16 0 -2
BITMAP
00
00
00
00
00
10
10
00
fe
00
10
10
00
00
00
00
ENDCHAR
STARTCHAR U00F8
ENCODING 248
SWIDTH 480 0
DWIDTH 8 0
BBX 8 16 0 -2
BITMAP
00
00
00
00
00
3a
44
8a
8a
92
a2
a2
44
b8
00
00
ENDCHAR
STARTCHAR U00F9
ENCODING 249
SWIDTH 480 0
DWIDTH 8 0
BBX 8 16 0 -2
BITMAP
00
30
10
08
00
42
42
42
42
42
42
42
46
3a
00
00
ENDCHAR
STARTCHAR U00FA
ENCODING 250
SWIDTH 480 0
DWIDTH 8 0
BBX 8 16 0 -2
BITMAP
00
18
10
20
00
42
42
42
42
42
42
42
46
3a
00
00
ENDCHAR
STARTCHAR U00FB
ENCODING 251
SWIDTH 480 0
DWIDTH 8 0
BBX 8 16 0 -2
BITMAP
00
10
38
44
00
42
42
42
42
42
42
42
46
3a
00
00
ENDCHAR
STARTCHAR U00FC
ENCODING 252
SWIDTH 480 0
DWIDTH 8 0
BBX 8 16 0 -2
BITMAP
00
24
24
00
00
42
42
42
42
42
42
42
46
3a
00
00
ENDCHAR
STARTCHAR U00FD
ENCODING 253
SWIDTH 480 0
DWIDTH 8 0
BBX 8 16 0 -2
BITMAP
00
0c
08
10
00
42
42
22
24
14
08
08
10
10
20
40
ENDCHAR
STARTCHAR U00FE
ENCODING 254
SWIDTH 480 0
DWIDTH 8 0
BBX 8 16 0 -2
BITMAP
00
00
40
40
40
78
44
42
42
42
44
78
40
40
40
40
ENDCHAR
STARTCHAR U00FF
ENCODING 255
SWIDTH 480 0
DWIDTH 8 0
BBX 8 16 0 -2
BITMAP
00
24
24
00
00
42
42
22
24
14
08
08
10
10
20
40
ENDCHAR
STARTCHAR U0391
ENCODING 913
SWIDTH 960 0
DWIDTH 16 0
BBX 16 16 0 -2
BITMAP
0000
0080
0080
0140
0140
0220
0220
0410
07f0
0410
0808
0808
1004
380e
0000
0000
ENDCHAR
STARTCHAR U0392
ENCODING 914
SWIDTH 960 0
DWIDTH 16 0
BBX 16 16 0 -2
BITMAP
0000
3fe0
0810
0808
0808
0810
0fe0
0810
0808
0804
0804
0808
0830
3fc0
0000
0000
ENDCHAR
STARTCHAR U0393
ENCODING 915
SWIDTH 960 0
DWIDTH 16 0
BBX 16 16 0 -2
BITMAP
0000
1ff8
0408
0404
0400
0400
0400
0400
0400
0400
0400
0400
0400
0e00
0000
0000
ENDCHAR
STARTCHAR U0394
ENCODING 916
SWIDTH 960 0
DWIDTH 16 0
BBX 16 16 0 -2
BITMAP
0000
0100
0100
0280
0280
0440
0440
0820
0820
0810
1010
1010
2008
7ffc
0000
0000
ENDCHAR
STARTCHAR U0395
ENCODING 917
SWIDTH 960 0
DWIDTH 16 0
BBX 16 16 0 -2
BITMAP
0000
3ff8
0808
0804
0800
0800
0840
0fc0
0840
0800
0800
0804
0808
3ff8
0000
0000
ENDCHAR
STARTCHAR U0396
ENCODING 918
SWIDTH 960 0
DWIDTH 16 0
BBX 16 16 0 -2
BITMAP
0000
0ff8
0810
1020
0040
0040
0080
0100
0100
0200
0400
0408
0808
1ff8
0000
0000
ENDCHAR
STARTCHAR U0397
ENCODING 919
SWIDTH 960 0
DWIDTH 16 0
BBX 16 16 0 -2
BITMAP
0000
381c
1008
1008
1008
1008
1008
1ff8
1008
1008
1008
1008
1008
381c
0000
0000
ENDCHAR
STARTCHAR U0398
ENCODING 920
SWIDTH 960 0
DWIDTH 16 0
BBX 16 16 0 -2
BITMAP
0000
03c0
0c30
1818
1008
2004
2424
27e4
2424
2004
1008
1818
0c30
03c0
0000
0000
ENDCHAR
STARTCHAR U0399
ENCODING 921
SWIDTH 960 0
DWIDTH 16 0
BBX 16 16 0 -2
BITMAP
0000
0380
0100
0100
0100
0100
0100
0100
0100
0100
0100
0100
0100
0380
0000
0000
ENDCHAR
STARTCHAR U039A
ENCODING 922
SWIDTH 960 0
DWIDTH 16 0
BBX 16 16 0 -2
BITMAP
0000
1c1c
0810
0820
0840
0880
0900
0b00
0c80
0840
0820
0810
0808
1c0e
0000
0000
ENDCHAR
STARTCHAR U039B
ENCODING 923
SWIDTH 960 0
DWIDTH 16 0
BBX 16 16 0 -2
BITMAP
0000
0080
0080
0140
0140
0220
0220
0410
0410
0410
0808
0808
1004
380e
0000
0000
ENDCHAR
STARTCHAR U039C
ENCODING 924
SWIDTH 960 0
DWIDTH 16 0
BBX 16 16 0 -2
BITMAP
0000
600c
2008
3018
3018
2828
2828
2448
2448
2448
2288
2288
2108
711c
0000
0000
ENDCHAR
STARTCHAR U039D
ENCODING 925
SWIDTH 960 0
DWIDTH 16 0
BBX 16 16 0 -2
BITMAP
0000
381c
1808
1408
1408
1208
1108
1108
1088
1048
1048
1028
1018
3808
0000
0000
ENDCHAR
STARTCHAR U039E
ENCODING 926
SWIDTH 960 0
DWIDTH 16 0
BBX 16 16 0 -2
BITMAP
0000
3ffc
2004
0000
0000
0000
1008
1ff8
1008
0000
0000
0000
2004
3ffc
0000
0000
ENDCHAR
STARTCHAR U039F
ENCODING 927
SWIDTH 960 0
DWIDTH 16 0
BBX 16 16 0 -2
BITMAP
0000
03c0
0c30
1818
1008
2004
2004
2004
2004
2004
1008
1818
0c30
03c0
0000
0000
ENDCHAR
STARTCHAR U03A0
ENCODING 928
SWIDTH 960 0
DWIDTH 16 0
BBX 16 16 0 -2
BITMAP
0000
1ff8
0810
0810
0810
0810
0810
0810
0810
0810
0810
0810
0810
1c38
0000
0000
ENDCHAR
STARTCHAR U03A1
ENCODING 929
SWIDTH 960 0
DWIDTH 16 0
BBX 16 16 0 -2
BITMAP
0000
1fe0
0418
0404
0404
0404
0418
07e0
0400
0400
0400
0400
0400
0e00
0000
0000
ENDCHAR
STARTCHAR U03A3
ENCODING 931
SWIDTH 960 0
DWIDTH 16 0
BBX 16 16 0 -2
BITMAP
0000
1ff0
0810
0408
0200
0100
0080
00c0
0080
0100
0200
0408
0808
1ff8
0000
0000
ENDCHAR
STARTCHAR U03A4
ENCODING 932
SWIDTH 960 0
DWIDTH 16 0
BBX 16 16 0 -2
BITMAP
0000
3ff8
2108
4104
0100
0100
0100
0100
0100
0100
0100
0100
0100
0380
0000
0000
ENDCHAR
STARTCHAR U03A5
ENCODING 933
SWIDTH 960 0
DWIDTH 16 0
BBX 16 16 0 -2
BITMAP
0000
0e38
1144
2082
0080
0080
0080
0080
0080
0080
0080
0080
0080
01c0
0000
0000
ENDCHAR
STARTCHAR U03A6
ENCODING 934
SWIDTH 960 0
DWIDTH 16 0
BBX 16 16 0 -2
BITMAP
0000
01c0
0080
03e0
0c98
0888
1084
1084
1084
0888
0c98
03e0
0080
01c0
0000
0000
ENDCHAR
STARTCHAR U03A7
ENCODING 935
SWIDTH 960 0
DWIDTH 16 0
BBX 16 16 0 -2
BITMAP
0000
3838
1010
0820
0440
0440
0280
0100
0280
0440
0440
0820
1010
3838
0000
0000
ENDCHAR
STARTCHAR U03A8
ENCODING 936
SWIDTH 960 0
DWIDTH 16 0
BBX 16 16 0 -2
BITMAP
0000
0380
610c
9112
1110
1110
1110
1110
1930
0920
07c0
0100
0100
0380
0000
0000
ENDCHAR
STARTCHAR U03A9
ENCODING 937
SWIDTH 960 0
DWIDTH 16 0
BBX 16 16 0 -2
BITMAP
0000
01c0
0630
0c18
0808
1004
1004
1004
0808
0c18
0630
1144
1144
1f7c
0000
0000
ENDCHAR
STARTCHAR U03B1
ENCODING 945
SWIDTH 960 0
DWIDTH 16 0
BBX 16 16 0 -2
BITMAP
0000
0000
0000
0000
0000
0008
0388
0450
0850
0860
1040
10c0
1148
0e30
0000
0000
ENDCHAR
STARTCHAR U03B2
ENCODING 946
SWIDTH 960 0
DWIDTH 16 0
BBX 16 16 0 -2
BITMAP
0000
0070
0088
0108
0108
0208
0210
04e0
0420
0410
0810
0810
0a20
09c0
1000
1000
ENDCHAR
STARTCHAR U03B3
ENCODING 947
SWIDTH 960 0
DWIDTH 16 0
BBX 16 16 0 -2
BITMAP
0000
0000
0000
0000
0000
0000
0e18
1120
2140
0180
0180
0100
0200
0200
0400
0400
ENDCHAR
STARTCHAR U03B4
ENCODING 948
SWIDTH 960 0
DWIDTH 16 0
BBX 16 16 0 -2
BITMAP
0000
0180
0260
0210
0108
0080
0340
0440
0820
1020
1040
1040
0880
0700
0000
0000
ENDCHAR
STARTCHAR U03B5
ENCODING 949
SWIDTH 960 0
DWIDTH 16 0
BBX 16 16 0 -2
BITMAP
0000
0000
0000
0000
0000
0000
01e0
0210
0200
01c0
0200
0400
0420
03c0
0000
0000
ENDCHAR
STARTCHAR U03B6
ENCODING 950
SWIDTH 960 0
DWIDTH 16 0
BBX 16 16 0 -2
BITMAP
0200
0410
0420
03c0
0080
0100
0200
0400
0800
0800
0400
0300
0080
0040
0040
0180
ENDCHAR
STARTCHAR U03B7
ENCODING 951
SWIDTH 960 0
DWIDTH 16 0
BBX 16 16 0 -2
BITMAP
0000
0000
0000
0000
0000
0000
0ce0
1310
0210
0410
0410
0420
0820
0820
0040
0040
ENDCHAR
STARTCHAR U03B8
ENCODING 952
SWIDTH 960 0
DWIDTH 16 0
BBX 16 16 0 -2
BITMAP
0000
0060
0090
0108
0208
0208
07f8
0410
0810
0820
0820
0840
0480
0300
0000
0000
ENDCHAR
STARTCHAR U03B9
ENCODING 953
SWIDTH 960 0
DWIDTH 16 0
BBX 16 16 0 -2
BITMAP
0000
0000
0000
0000
0000
0000
0200
0200
0400
0400
0800
0820
08c0
0700
0000
0000
ENDCHAR
STARTCHAR U03BA
ENCODING 954
SWIDTH 960 0
DWIDTH 16 0
BBX 16 16 0 -2
BITMAP
0000
0000
0000
0000
0000
0000
0430
0448
0580
0600
0900
0900
1110
10e0
0000
0000
ENDCHAR
STARTCHAR U03BB
ENCODING 955
SWIDTH 960 0
DWIDTH 16 0
BBX 16 16 0 -2
BITMAP
0000
0080
0040
0040
0040
0040
0040
00c0
0140
0140
0220
0420
0810
1008
0000
0000
ENDCHAR
STARTCHAR U03BC
ENCODING 956
SWIDTH 960 0
DWIDTH 16 0
BBX 16 16 0 -2
BITMAP
0000
0000
0000
0000
0000
0000
0420
0420
0420
0440
0840
0840
0cc8
1330
1000
2000
ENDCHAR
STARTCHAR U03BD
ENCODING 957
SWIDTH 960 0
DWIDTH 16 0
BBX 16 16 0 -2
BITMAP
0000
0000
0000
0000
0000
0000
1810
0410
0420
0420
0440
0880
0b00
1c00
0000
0000
ENDCHAR
STARTCHAR U03BE
ENCODING 958
SWIDTH 960 0
DWIDTH 16 0
BBX 16 16 0 -2
BITMAP
0010
00e0
0100
0080
03e0
0400
0400
0200
0fc0
1000
1000
0e00
0180
0040
0040
0f80
ENDCHAR
STARTCHAR U03BF
ENCODING 959
SWIDTH 960 0
DWIDTH 16 0
BBX 16 16 0 -2
BITMAP
0000
0000
0000
0000
0000
0000
01c0
0220
0410
0810
0810
0820
0440
0380
0000
0000
ENDCHAR
STARTCHAR U03C0
ENCODING 960
SWIDTH 960 0
DWIDTH 16 0
BBX 16 16 0 -2
BITMAP
0000
0000
0000
0000
0000
0008
0ff0
1240
0240
0240
0480
0480
0890
1060
0000
0000
ENDCHAR
STARTCHAR U03C1
ENCODING 961
SWIDTH 960 0
DWIDTH 16 0
BBX 16 16 0 -2
BITMAP
0000
0000
0000
0000
0000
0000
01c0
0220
0410
0410
0410
0810
0a20
09c0
1000
1000
ENDCHAR
STARTCHAR U03C3
ENCODING 963
SWIDTH 960 0
DWIDTH 16 0
BBX 16 16 0 -2
BITMAP
0000
0000
0000
0000
0000
0008
00f0
0120
0210
0410
0410
0420
0240
0180
0000
0000
ENDCHAR
STARTCHAR U03C4
ENCODING 964
SWIDTH 960 0
DWIDTH 16 0
BBX 16 16 0 -2
BITMAP
0000
0000
0000
0000
0000
0008
0ff0
1100
0100
0200
0200
0420
0440
0380
0000
0000
ENDCHAR
STARTCHAR U03C5
ENCODING 965
SWIDTH 960 0
DWIDTH 16 0
BBX 16 16 0 -2
BITMAP
0000
0000
0000
0000
0000
0000
0110
0108
0108
0110
0210
0220
0240
0180
0000
0000
ENDCHAR
STARTCHAR U03C6
ENCODING 966
SWIDTH 960 0
DWIDTH 16 0
BBX 16 16 0 -2
BITMAP
0000
0020
0020
0020
0040
0040
01e0
0690
0890
0890
0910
0960
0780
0200
0200
0200
ENDCHAR
STARTCHAR U03C7
ENCODING 967
SWIDTH 960 0
DWIDTH 16 0
BBX 16 16 0 -2
BITMAP
0000
0000
0000
0000
0000
0000
0610
0920
0140
0180
0100
0300
0500
0900
1090
2060
ENDCHAR
STARTCHAR U03C8
ENCODING 968
SWIDTH 960 0
DWIDTH 16 0
BBX 16 16 0 -2
BITMAP
0000
0020
0020
0040
0040
0040
0888
1488
0490
0510
0920
0940
0780
0200
0200
0200
ENDCHAR
STARTCHAR U03C9
ENCODING 969
SWIDTH 960 0
DWIDTH 16 0
BBX 16 16 0 -2
BITMAP
0000
0000
0000
0000
0000
0000
0410
0890
1088
1088
2108
2108
2290
1c60
0000
0000
ENDCHAR
STARTCHAR U0401
ENCODING 1025
SWIDTH 960 0
DWIDTH 16 0
BBX 16 16 0 -2
BITMAP
0410
0410
0000
3ff0
0810
0808
0800
0840
0fc0
0840
0800
0808
0810
3ff0
0000
0000
ENDCHAR
STARTCHAR U0410
ENCODING 1040
SWIDTH 960 0
DWIDTH 16 0
BBX 16 16 0 -2
BITMAP
0000
0080
0080
0140
0140
0220
0220
0410
07f0
0410
0808
0808
1004
380e
0000
0000
ENDCHAR
STARTCHAR U0411
ENCODING 1041
SWIDTH 960 0
DWIDTH 16 0
BBX 16 16 0 -2
BITMAP
0000
3ff0
0810
0808
0800
0800
0fe0
0810
0808
0804
0804
0808
0830
3fc0
0000
0000
ENDCHAR
STARTCHAR U0412
ENCODING 1042
SWIDTH 960 0
DWIDTH 16 0
BBX 16 16 0 -2
BITMAP
0000
3fe0
0810
0808
0808
0810
0fe0
0810
0808
0804
0804
0808
0830
3fc0
0000
0000
ENDCHAR
STARTCHAR U0413
ENCODING 1043
SWIDTH 960 0
DWIDTH 16 0
BBX 16 16 0 -2
BITMAP
0000
1ff8
0408
0404
0400
0400
0400
0400
0400
0400
0400
0400
0400
0e00
0000
0000
ENDCHAR
STARTCHAR U0414
ENCODING 1044
SWIDTH 960 0
DWIDTH 16 0
BBX 16 16 0 -2
BITMAP
0000
0ffc
0210
0210
0210
0210
0210
0210
0210
0210
0410
0410
0810
3ffc
2004
2004
ENDCHAR
STARTCHAR U0415
ENCODING 1045
SWIDTH 960 0
DWIDTH 16 0
BBX 16 16 0 -2
BITMAP
0000
3ff8
0808
0804
0800
0800
0840
0fc0
0840
0800
0800
0804
0808
3ff8
0000
0000
ENDCHAR
STARTCHAR U0416
ENCODING 1046
SWIDTH 960 0
DWIDTH 16 0
BBX 16 16 0 -2
BITMAP
0000
31c6
4889
0888
0888
0888
0490
07f0
0888
1084
1084
2082
2082
71c7
0000
0000
ENDCHAR
STARTCHAR U0417
ENCODING 1047
SWIDTH 960 0
DWIDTH 16 0
BBX 16 16 0 -2
BITMAP
0000
03c0
0c30
1018
0008
0008
0010
03e0
0010
0008
0008
1010
0c30
03c0
0000
0000
ENDCHAR
STARTCHAR U0418
ENCODING 1048
SWIDTH 960 0
DWIDTH 16 0
BBX 16 16 0 -2
BITMAP
0000
381c
1018
1028
1028
1048
1088
1088
1108
1208
1208
1408
1808
101c
0000
0000
ENDCHAR
STARTCHAR U0419
ENCODING 1049
SWIDTH 960 0
DWIDTH 16 0
BBX 16 16 0 -2
BITMAP
0660
0420
3bcc
1018
1018
1028
1048
1088
1088
1108
1208
1408
1808
101c
0000
0000
ENDCHAR
STARTCHAR U041A
ENCODING 1050
SWIDTH 960 0
DWIDTH 16 0
BBX 16 16 0 -2
BITMAP
0000
1c38
0844
0840
0880
0880
0900
0f00
0880
0840
0820
0810
0808
1c1c
0000
0000
ENDCHAR
STARTCHAR U041B
ENCODING 1051
SWIDTH 960 0
DWIDTH 16 0
BBX 16 16 0 -2
BITMAP
0000
0ff8
0210
0210
0210
0210
0210
0210
0210
0410
0410
0810
5010
6038
0000
0000
ENDCHAR
STARTCHAR U041C
ENCODING 1052
SWIDTH 960 0
DWIDTH 16 0
BBX 16 16 0 -2
BITMAP
0000
300c
1008
1818
1818
1428
1428
1228
1248
2244
2144
2184
2084
788e
0000
0000
ENDCHAR
STARTCHAR U041D
ENCODING 1053
SWIDTH 960 0
DWIDTH 16 0
BBX 16 16 0 -2
BITMAP
0000
381c
1008
1008
1008
1008
1008
1ff8
1008
1008
1008
1008
1008
381c
0000
0000
ENDCHAR
STARTCHAR U041E
ENCODING 1054
SWIDTH 960 0
DWIDTH 16 0
BBX 16 16 0 -2
BITMAP
0000
03c0
0c30
1818
1008
2004
2004
2004
2004
2004
1008
1818
0c30
03c0
0000
0000
ENDCHAR
STARTCHAR U041F
ENCODING 1055
SWIDTH 960 0
DWIDTH 16 0
BBX 16 16 0 -2
BITMAP
0000
1ffc
0808
0808
0808
0808
0808
0808
0808
0808
0808
0808
0808
1c1c
0000
0000
ENDCHAR
STARTCHAR U0420
ENCODING 1056
SWIDTH 960 0
DWIDTH 16 0
BBX 16 16 0 -2
BITMAP
0000
1fe0
0418
0404
0404
0404
0418
07e0
0400
0400
0400
0400
0400
0e00
0000
0000
ENDCHAR
STARTCHAR U0421
ENCODING 1057
SWIDTH 960 0
DWIDTH 16 0
BBX 16 16 0 -2
BITMAP
0000
03c0
0c28
1818
1008
2000
2000
2000
2000
2000
1008
1818
0c30
03c0
0000
0000
ENDCHAR
STARTCHAR U0422
ENCODING 1058
SWIDTH 960 0
DWIDTH 16 0
BBX 16 16 0 -2
BITMAP
0000
3ff8
2108
4104
0100
0100
0100
0100
0100
0100
0100
0100
0100
0380
0000
0000
ENDCHAR
STARTCHAR U0423
ENCODING 1059
SWIDTH 960 0
DWIDTH 16 0
BBX 16 16 0 -2
BITMAP
0000
1c1c
0808
0410
0410
0220
0220
0140
0140
0080
0080
0100
1200
0c00
0000
0000
ENDCHAR
STARTCHAR U0424
ENCODING 1060
SWIDTH 960 0
DWIDTH 16 0
BBX 16 16 0 -2
BITMAP
0000
01c0
0080
03e0
0c98
0888
1084
1084
1084
0888
0c98
03e0
0080
01c0
0000
0000
ENDCHAR
STARTCHAR U0425
ENCODING 1061
SWIDTH 960 0
DWIDTH 16 0
BBX 16 16 0 -2
BITMAP
0000
3838
1010
0820
0440
0440
0280
0100
0280
0440
0440
0820
1010
3838
0000
0000
ENDCHAR
STARTCHAR U0426
ENCODING 1062
SWIDTH 960 0
DWIDTH 16 0
BBX 16 16 0 -2
BITMAP
0000
3838
1010
1010
1010
1010
1010
1010
1010
1010
1010
1010
1010
3ffc
0004
0004
ENDCHAR
STARTCHAR U0427
ENCODING 1063
SWIDTH 960 0
DWIDTH 16 0
BBX 16 16 0 -2
BITMAP
0000
1c38
0810
0810
0810
0810
0810
0430
03d0
0010
0010
0010
0010
0038
0000
0000
ENDCHAR
STARTCHAR U0428
ENCODING 1064
SWIDTH 960 0
DWIDTH 16 0
BBX 16 16 0 -2
BITMAP
0000
39ce
1084
1084
1084
1084
1084
1084
1084
1084
1084
1084
1084
3ffe
0000
0000
ENDCHAR
STARTCHAR U0429
ENCODING 1065
SWIDTH 960 0
DWIDTH 16 0
BBX 16 16 0 -2
BITMAP
0000
39ce
1084
1084
1084
1084
1084
1084
1084
1084
1084
1084
1084
3fff
0001
0001
ENDCHAR
STARTCHAR U042A
ENCODING 1066
SWIDTH 960 0
DWIDTH 16 0
BBX 16 16 0 -2
BITMAP
0000
3f00
2200
4200
0200
0200
03f0
020c
0206
0202
0202
0206
020c
07f0
0000
0000
ENDCHAR
STARTCHAR U042B
ENCODING 1067
SWIDTH 960 0
DWIDTH 16 0
BBX 16 16 0 -2
BITMAP
0000
381c
1008
1008
1008
1008
1e08
1188
10c8
1048
1048
10c8
1188
3e1c
0000
0000
ENDCHAR
STARTCHAR U042C
ENCODING 1068
SWIDTH 960 0
DWIDTH 16 0
BBX 16 16 0 -2
BITMAP
0000
1c00
0800
0800
0800
0800
0fc0
0830
0818
0808
0808
0818
0830
1fc0
0000
0000
ENDCHAR
STARTCHAR U042D
ENCODING 1069
SWIDTH 960 0
DWIDTH 16 0
BBX 16 16 0 -2
BITMAP
0000
03c0
0c30
0818
1008
000c
0714
08e4
0004
0004
1008
0818
0c30
03c0
0000
0000
ENDCHAR
STARTCHAR U042E
ENCODING 1070
SWIDTH 960 0
DWIDTH 16 0
BBX 16 16 0 -2
BITMAP
0000
3870
1088
1104
1104
1202
1202
1e02
1202
1202
1104
1104
1088
3870
0000
0000
ENDCHAR
STARTCHAR U042F
ENCODING 1071
SWIDTH 960 0
DWIDTH 16 0
BBX 16 16 0 -2
BITMAP
0000
03f8
0c10
1010
1010
1010
0c10
03f0
0110
0210
0410
0410
1810
6038
0000
0000
ENDCHAR
STARTCHAR U0430
ENCODING 1072
SWIDTH 960 0
DWIDTH 16 0
BBX 16 16 0 -2
BITMAP
0000
0000
0000
0000
0000
03c0
0420
0020
03a0
0460
0820
0860
08a8
0718
0000
0000
ENDCHAR
STARTCHAR U0431
ENCODING 1073
SWIDTH 960 0
DWIDTH 16 0
BBX 16 16 0 -2
BITMAP
0000
0010
01e0
0200
0400
0400
0bc0
0c20
0810
0810
0810
0810
0420
03c0
0000
0000
ENDCHAR
STARTCHAR U0432
ENCODING 1074
SWIDTH 960 0
DWIDTH 16 0
BBX 16 16 0 -2
BITMAP
0000
0000
0000
0000
0000
0fe0
0410
0410
0420
07e0
0410
0410
0410
0fe0
0000
0000
ENDCHAR
STARTCHAR U0433
ENCODING 1075
SWIDTH 960 0
DWIDTH 16 0
BBX 16 16 0 -2
BITMAP
0000
0000
0000
0000
0000
0ff0
0410
0410
0400
0400
0400
0400
0400
0e00
0000
0000
ENDCHAR
STARTCHAR U0434
ENCODING 1076
SWIDTH 960 0
DWIDTH 16 0
BBX 16 16 0 -2
BITMAP
0000
0000
0000
0000
0000
07f0
0220
0220
0220
0220
0220
0420
0420
1ff8
1008
1008
ENDCHAR
STARTCHAR U0435
ENCODING 1077
SWIDTH 960 0
DWIDTH 16 0
BBX 16 16 0 -2
BITMAP
0000
0000
0000
0000
0000
0380
0440
0820
0820
0fe0
0800
0800
0420
03c0
0000
0000
ENDCHAR
STARTCHAR U0436
ENCODING 1078
SWIDTH 960 0
DWIDTH 16 0
BBX 16 16 0 -2
BITMAP
0000
0000
0000
0000
0000
19cc
0888
0490
03e0
02a0
0490
0490
0888
11c4
0000
0000
ENDCHAR
STARTCHAR U0437
ENCODING 1079
SWIDTH 960 0
DWIDTH 16 0
BBX 16 16 0 -2
BITMAP
0000
0000
0000
0000
0000
03e0
0610
0010
0020
01e0
0010
0010
0610
03e0
0000
0000
ENDCHAR
STARTCHAR U0438
ENCODING 1080
SWIDTH 960 0
DWIDTH 16 0
BBX 16 16 0 -2
BITMAP
0000
0000
0000
0000
0000
0e1c
0408
0418
0428
0448
0588
0608
0408
0e1c
0000
0000
ENDCHAR
STARTCHAR U0439
ENCODING 1081
SWIDTH 960 0
DWIDTH 16 0
BBX 16 16 0 -2
BITMAP
0000
0000
0330
0210
01e0
0e1c
0408
0418
0428
0448
0588
0608
0408
0e1c
0000
0000
ENDCHAR
STARTCHAR U043A
ENCODING 1082
SWIDTH 960 0
DWIDTH 16 0
BBX 16 16 0 -2
BITMAP
0000
0000
0000
0000
0000
0e30
0450
0480
0500
0700
0480
0440
0420
0e38
0000
0000
ENDCHAR
STARTCHAR U043B
ENCODING 1083
SWIDTH 960 0
DWIDTH 16 0
BBX 16 16 0 -2
BITMAP
0000
0000
0000
0000
0000
03f8
0110
0110
0110
0110
0110
1110
1210
0c38
0000
0000
ENDCHAR
STARTCHAR U043C
ENCODING 1084
SWIDTH 960 0
DWIDTH 16 0
BBX 16 16 0 -2
BITMAP
0000
0000
0000
0000
0000
1c1c
0c18
0a28
0a28
0948
0948
0888
0888
1c1c
0000
0000
ENDCHAR
STARTCHAR U043D
ENCODING 1085
SWIDTH 960 0
DWIDTH 16 0
BBX 16 16 0 -2
BITMAP
0000
0000
0000
0000
0000
0e38
0410
0410
0410
07f0
0410
0410
0410
0e38
0000
0000
ENDCHAR
STARTCHAR U043E
ENCODING 1086
SWIDTH 960 0
DWIDTH 16 0
BBX 16 16 0 -2
BITMAP
0000
0000
0000
0000
0000
03c0
0420
0810
0810
0810
0810
0810
0420
03c0
0000
0000
ENDCHAR
STARTCHAR U043F
ENCODING 1087
SWIDTH 960 0
DWIDTH 16 0
BBX 16 16 0 -2
BITMAP
0000
0000
0000
0000
0000
1ff0
0820
0820
0820
0820
0820
0820
0820
1c70
0000
0000
ENDCHAR
STARTCHAR U0440
ENCODING 1088
SWIDTH 960 0
DWIDTH 16 0
BBX 16 16 0 -2
BITMAP
0000
0000
0000
0000
0000
0dc0
0620
0410
0410
0410
0410
0620
05c0
0400
0400
0e00
ENDCHAR
STARTCHAR U0441
ENCODING 1089
SWIDTH 960 0
DWIDTH 16 0
BBX 16 16 0 -2
BITMAP
0000
0000
0000
0000
0000
0380
0440
0820
0800
0800
0800
0820
0440
0380
0000
0000
ENDCHAR
STARTCHAR U0442
ENCODING 1090
SWIDTH 960 0
DWIDTH 16 0
BBX 16 16 0 -2
BITMAP
0000
0000
0000
0000
0000
1ff0
1110
1110
0100
0100
0100
0100
0100
0380
0000
0000
ENDCHAR
STARTCHAR U0443
ENCODING 1091
SWIDTH 960 0
DWIDTH 16 0
BBX 16 16 0 -2
BITMAP
0000
0000
0000
0000
0000
0e38
0410
0410
0220
0220
0140
0140
0080
0100
0900
0600
ENDCHAR
STARTCHAR U0444
ENCODING 1092
SWIDTH 960 0
DWIDTH 16 0
BBX 16 16 0 -2
BITMAP
0000
0180
0080
0080
0080
0080
06b0
09c8
1084
1084
1084
1084
09c8
06b0
0080
01c0
ENDCHAR
STARTCHAR U0445
ENCODING 1093
SWIDTH 960 0
DWIDTH 16 0
BBX 16 16 0 -2
BITMAP
0000
0000
0000
0000
0000
0e38
0410
0220
0140
0080
0140
0220
0410
0e38
0000
0000
ENDCHAR
STARTCHAR U0446
ENCODING 1094
SWIDTH 960 0
DWIDTH 16 0
BBX 16 16 0 -2
BITMAP
0000
0000
0000
0000
0000
1c70
0820
0820
0820
0820
0820
0820
0820
1ff8
0008
0008
ENDCHAR
STARTCHAR U0447
ENCODING 1095
SWIDTH 960 0
DWIDTH 16 0
BBX 16 16 0 -2
BITMAP
0000
0000
0000
0000
0000
0e38
0410
0410
0410
0410
03f0
0010
0010
0038
0000
0000
ENDCHAR
STARTCHAR U0448
ENCODING 1096
SWIDTH 960 0
DWIDTH 16 0
BBX 16 16 0 -2
BITMAP
0000
0000
0000
0000
0000
39ce
1084
1084
1084
1084
1084
1084
1084
3ffe
0000
0000
ENDCHAR
STARTCHAR U0449
ENCODING 1097
SWIDTH 960 0
DWIDTH 16 0
BBX 16 16 0 -2
BITMAP
0000
0000
0000
0000
0000
39ce
1084
1084
1084
1084
1084
1084
1084
3fff
0001
0001
ENDCHAR
STARTCHAR U044A
ENCODING 1098
SWIDTH 960 0
DWIDTH 16 0
BBX 16 16 0 -2
BITMAP
0000
0000
0000
0000
0000
1f80
1100
1100
0100
01f0
010c
0104
010c
03f0
0000
0000
ENDCHAR
STARTCHAR U044B
ENCODING 1099
SWIDTH 960 0
DWIDTH 16 0
BBX 16 16 0 -2
BITMAP
0000
0000
0000
0000
0000
1c1c
0808
0808
0808
0f08
08c8
0848
08c8
1f1c
0000
0000
ENDCHAR
STARTCHAR U044C
ENCODING 1100
SWIDTH 960 0
DWIDTH 16 0
BBX 16 16 0 -2
BITMAP
0000
0000
0000
0000
0000
0700
0200
0200
0200
03e0
0218
0208
0218
07e0
0000
0000
ENDCHAR
STARTCHAR U044D
ENCODING 1101
SWIDTH 960 0
DWIDTH 16 0
BBX 16 16 0 -2
BITMAP
0000
0000
0000
0000
0000
03c0
0420
0810
0330
04d0
0010
0810
0420
03c0
0000
0000
ENDCHAR
STARTCHAR U044E
ENCODING 1102
SWIDTH 960 0
DWIDTH 16 0
BBX 16 16 0 -2
BITMAP
0000
0000
0000
0000
0000
1c70
0888
0904
0904
0f04
0904
0904
0888
1c70
0000
0000
ENDCHAR
STARTCHAR U044F
ENCODING 1103
SWIDTH 960 0
DWIDTH 16 0
BBX 16 16 0 -2
BITMAP
0000
0000
0000
0000
0000
07f0
0820
0820
0820
07e0
0220
0420
0420
1870
0000
0000
ENDCHAR
STARTCHAR U0451
ENCODING 1105
SWIDTH 960 0
DWIDTH 16 0
BBX 16 16 0 -2
BITMAP
0000
0000
0440
0440
0000
0380
0440
0820
0820
0fe0
0800
0800
0420
03c0
0000
0000
ENDCHAR
STARTCHAR U2010
ENCODING 8208
SWIDTH 960 0
DWIDTH 16 0
BBX 16 16 0 -2
BITMAP
0000
0000
0000
0000
0000
0000
0000
07e0
0000
0000
0000
0000
0000
0000
0000
0000
ENDCHAR
STARTCHAR U2015
ENCODING 8213
SWIDTH 960 0
DWIDTH 16 0
BBX 16 16 0 -2
BITMAP
0000
0000
0000
0000
0000
0000
0000
ffff
0000
0000
0000
0000
0000
0000
0000
0000
ENDCHAR
STARTCHAR U2018
ENCODING 8216
SWIDTH 960 0
DWIDTH 16 0
BBX 16 16 0 -2
BITMAP
0008
0010
0018
0018
0000
0000
0000
0000
0000
0000
0000
0000
0000
0000
0000
0000
ENDCHAR
STARTCHAR U2019
ENCODING 8217
SWIDTH 960 0
DWIDTH 16 0
BBX 16 16 0 -2
BITMAP
1800
1800
0800
1000
0000
0000
0000
0000
0000
0000
0000
0000
0000
0000
0000
0000
ENDCHAR
STARTCHAR U201C
ENCODING 8220
SWIDTH 960 0
DWIDTH 16 0
BBX 16 16 0 -2
BITMAP
0024
0048
006c
006c
0000
0000
0000
0000
0000
0000
0000
0000
0000
0000
0000
0000
ENDCHAR
STARTCHAR U201D
ENCODING 8221
SWIDTH 960 0
DWIDTH 16 0
BBX 16 16 0 -2
BITMAP
3600
3600
1200
2400
0000
0000
0000
0000
0000
0000
0000
0000
0000
0000
0000
0000
ENDCHAR
STARTCHAR U2020
ENCODING 8224
SWIDTH 960 0
DWIDTH 16 0
BBX 16 16 0 -2
BITMAP
0080
01c0
0490
0ff8
0490
0080
03e0
01c0
01c0
01c0
01c0
01c0
0080
0080
0080
0080
ENDCHAR
STARTCHAR U2021
ENCODING 8225
SWIDTH 960 0
DWIDTH 16 0
BBX 16 16 0 -2
BITMAP
0100
0380
0920
1ff0
0920
0380
0380
0100
0100
0380
0380
0920
1ff0
0920
0380
0100
ENDCHAR
STARTCHAR U2025
ENCODING 8229
SWIDTH 960 0
DWIDTH 16 0
BBX 16 16 0 -2
BITMAP
0000
0000
0000
0000
0000
0000
0000
1818
1818
0000
0000
0000
0000
0000
0000
0000
ENDCHAR
STARTCHAR U2026
ENCODING 8230
SWIDTH 960 0
DWIDTH 16 0
BBX 16 16 0 -2
BITMAP
0000
0000
0000
0000
0000
0000
0000
6186
6186
0000
0000
0000
0000
0000
0000
0000
ENDCHAR
STARTCHAR U2030
ENCODING 8240
SWIDTH 960 0
DWIDTH 16 0
BBX 16 16 0 -2
BITMAP
0000
0008
1810
3420
2420
2440
2480
2d00
1a00
058c
075a
0a52
1252
22d6
418c
0000
ENDCHAR
STARTCHAR U2032
ENCODING 8242
SWIDTH 960 0
DWIDTH 16 0
BBX 16 16 0 -2
BITMAP
0000
0800
1800
3000
2000
0000
0000
0000
0000
0000
0000
0000
0000
0000
0000
0000
ENDCHAR
STARTCHAR U2033
ENCODING 8243
SWIDTH 960 0
DWIDTH 16 0
BBX 16 16 0 -2
BITMAP
0000
1100
3300
6600
4400
0000
0000
0000
0000
0000
0000
0000
0000
0000
0000
0000
ENDCHAR
STARTCHAR U203B
ENCODING 8251
SWIDTH 960 0
DWIDTH 16 0
BBX 16 16 0 -2
BITMAP
0000
0000
2184
1188
0810
0420
0240
318c
318c
0240
0420
0810
1188
2184
0000
0000
ENDCHAR
STARTCHAR U203E
ENCODING 8254
SWIDTH 480 0
DWIDTH 8 0
BBX 8 16 0 -2
BITMAP
ff
00
00
00
00
00
00
00
00
00
00
00
00
00
00
00
ENDCHAR
STARTCHAR U2103
ENCODING 8451
SWIDTH 960 0
DWIDTH 16 0
BBX 16 16 0 -2
BITMAP
0000
3072
498a
4a06
3202
0402
0400
0400
0400
0400
0202
0204
0198
0060
0000
0000
ENDCHAR
STARTCHAR U212B
ENCODING 8491
SWIDTH 960 0
DWIDTH 16 0
BBX 16 16 0 -2
BITMAP
00c0
0120
0120
00c0
0080
0080
0140
0140
0220
0220
03e0
0410
0410
0e38
0000
0000
ENDCHAR
STARTCHAR U2190
ENCODING 8592
SWIDTH 960 0
DWIDTH 16 0
BBX 16 16 0 -2
BITMAP
0000
0000
0000
0000
0400
0800
3000
ffff
3000
0800
0400
0000
0000
0000
0000
0000
ENDCHAR
STARTCHAR U2191
ENCODING 8593
SWIDTH 960 0
DWIDTH 16 0
BBX 16 16 0 -2
BITMAP
0100
0100
0380
0380
0540
0920
0100
0100
0100
0100
0100
0100
0100
0100
0100
0100
ENDCHAR
STARTCHAR U2192
ENCODING 8594
SWIDTH 960 0
DWIDTH 16 0
BBX 16 16 0 -2
BITMAP
0000
0000
0000
0000
0020
0010
000c
ffff
000c
0010
0020
0000
0000
0000
0000
0000
ENDCHAR
STARTCHAR U2193
ENCODING 8595
SWIDTH 960 0
DWIDTH 16 0
BBX 16 16 0 -2
BITMAP
0100
0100
0100
0100
0100
0100
0100
0100
0100
0100
0920
0540
0380
0380
0100
0100
ENDCHAR
STARTCHAR U21D2
ENCODING 8658
SWIDTH 960 0
DWIDTH 16 0
BBX 16 16 0 -2
BITMAP
0000
0000
0000
0010
0008
fffc
0002
0001
0002
fffc
0008
0010
0000
0000
0000
0000
ENDCHAR
STARTCHAR U21D4
ENCODING 8660
SWIDTH 960 0
DWIDTH 16 0
BBX 16 16 0 -2
BITMAP
0000
0000
0000
0810
1008
3ffc
4002
8001
4002
3ffc
1008
0810
0000
0000
0000
0000
ENDCHAR
STARTCHAR U2200
ENCODING 8704
SWIDTH 960 0
DWIDTH 16 0
BBX 16 16 0 -2
BITMAP
0000
2002
2002
1004
1004
0ff8
0808
0410
0410
0220
0220
0140
0140
0080
0080
0000
ENDCHAR
STARTCHAR U2202
ENCODING 8706
SWIDTH 960 0
DWIDTH 16 0
BBX 16 16 0 -2
BITMAP
0000
00c0
0320
0410
0010
0010
03b0
0460
0c60
0860
1840
18c0
0980
0600
0000
0000
ENDCHAR
STARTCHAR U2203
ENCODING 8707
SWIDTH 960 0
DWIDTH 16 0
BBX 16 16 0 -2
BITMAP
0000
0000
1ff0
0010
0010
0010
0010
1ff0
0010
0010
0010
0010
1ff0
0000
0000
0000
ENDCHAR
STARTCHAR U2207
ENCODING 8711
SWIDTH 960 0
DWIDTH 16 0
BBX 16 16 0 -2
BITMAP
0000
7ffe
2004
3004
1008
1808
0810
0c10
0420
0620
0240
0340
0180
0080
0000
0000
ENDCHAR
STARTCHAR U2208
ENCODING 8712
SWIDTH 960 0
DWIDTH 16 0
BBX 16 16 0 -2
BITMAP
0000
0000
0000
07f8
0800
1000
1000
1ff8
1000
1000
0800
07f8
0000
0000
0000
0000
ENDCHAR
STARTCHAR U220B
ENCODING 8715
SWIDTH 960 0
DWIDTH 16 0
BBX 16 16 0 -2
BITMAP
0000
0000
0000
1fe0
0010
0008
0008
1ff8
0008
0008
0010
1fe0
0000
0000
0000
0000
ENDCHAR
STARTCHAR U221A
ENCODING 8730
SWIDTH 960 0
DWIDTH 16 0
BBX 16 16 0 -2
BITMAP
00ff
0080
0080
0100
0100
0100
0100
0200
0200
2200
2200
3400
5400
5c00
0800
0800
ENDCHAR
STARTCHAR U221D
ENCODING 8733
SWIDTH 960 0
DWIDTH 16 0
BBX 16 16 0 -2
BITMAP
0000
0000
0000
0000
1c38
2244
4180
4180
4180
4180
2244
1c38
0000
0000
0000
0000
ENDCHAR
STARTCHAR U221E
ENCODING 8734
SWIDTH 960 0
DWIDTH 16 0
BBX 16 16 0 -2
BITMAP
0000
0000
0000
0000
1c18
2664
4242
4182
4182
4242
2664
1838
0000
0000
0000
0000
ENDCHAR
STARTCHAR U2220
ENCODING 8736
SWIDTH 960 0
DWIDTH 16 0
BBX 16 16 0 -2
BITMAP
0000
0000
0008
0010
0020
0040
0080
0100
0200
0400
0800
1000
3ffc
0000
0000
0000
ENDCHAR
STARTCHAR U2225
ENCODING 8741
SWIDTH 960 0
DWIDTH 16 0
BBX 16 16 0 -2
BITMAP
0440
0440
0440
0440
0440
0440
0440
0440
0440
0440
0440
0440
0440
0440
0440
0440
ENDCHAR
STARTCHAR U2227
ENCODING 8743
SWIDTH 960 0
DWIDTH 16 0
BBX 16 16 0 -2
BITMAP
0000
0000
0080
0080
0140
0140
0220
0220
0410
0410
0808
0808
1004
1004
0000
0000
ENDCHAR
STARTCHAR U2228
ENCODING 8744
SWIDTH 960 0
DWIDTH 16 0
BBX 16 16 0 -2
BITMAP
0000
0000
1004
1004
0808
0808
0410
0410
0220
0220
0140
0140
0080
0080
0000
0000
ENDCHAR
STARTCHAR U2229
ENCODING 8745
SWIDTH 960 0
DWIDTH 16 0
BBX 16 16 0 -2
BITMAP
0000
0000
03c0
0420
0810
0810
1008
1008
1008
1008
1008
1008
1008
1008
0000
0000
ENDCHAR
STARTCHAR U222A
ENCODING 8746
SWIDTH 960 0
DWIDTH 16 0
BBX 16 16 0 -2
BITMAP
0000
0000
1008
1008
1008
1008
1008
1008
1008
1008
0810
0810
0420
03c0
0000
0000
ENDCHAR
STARTCHAR U222B
ENCODING 8747
SWIDTH 960 0
DWIDTH 16 0
BBX 16 16 0 -2
BITMAP
01c0
0240
0200
0200
0300
0300
0100
0180
0180
0080
00c0
00c0
0040
0040
0240
0380
ENDCHAR
STARTCHAR U222C
ENCODING 8748
SWIDTH 960 0
DWIDTH 16 0
BBX 16 16 0 -2
BITMAP
0e38
1248
1040
1040
1860
1860
0820
0c30
0c30
0410
0618
0618
0208
0208
1248
1c70
ENDCHAR
STARTCHAR U2234
ENCODING 8756
SWIDTH 960 0
DWIDTH 16 0
BBX 16 16 0 -2
BITMAP
0000
0000
0000
0180
0180
0000
0000
0000
0000
0000
0000
300c
300c
0000
0000
0000
ENDCHAR
STARTCHAR U2235
ENCODING 8757
SWIDTH 960 0
DWIDTH 16 0
BBX 16 16 0 -2
BITMAP
0000
0000
0000
300c
300c
0000
0000
0000
0000
0000
0000
0180
0180
0000
0000
0000
ENDCHAR
STARTCHAR U223D
ENCODING 8765
SWIDTH 960 0
DWIDTH 16 0
BBX 16 16 0 -2
BITMAP
0000
0000
0000
0000
1c38
2044
4082
4082
4102
4102
2204
1c38
0000
0000
0000
0000
ENDCHAR
STARTCHAR U2252
ENCODING 8786
SWIDTH 960 0
DWIDTH 16 0
BBX 16 16 0 -2
BITMAP
0000
0000
1800
1800
0000
3ffc
0000
0000
0000
3ffc
0000
0018
0018
0000
0000
0000
ENDCHAR
STARTCHAR U2260
ENCODING 8800
SWIDTH 960 0
DWIDTH 16 0
BBX 16 16 0 -2
BITMAP
0000
0000
0040
0040
0080
3ffc
0080
0100
0100
3ffc
0100
0200
0200
0000
0000
0000
ENDCHAR
STARTCHAR U2261
ENCODING 8801
SWIDTH 960 0
DWIDTH 16 0
BBX 16 16 0 -2
BITMAP
0000
0000
0000
3ffc
0000
0000
0000
3ffc
0000
0000
0000
3ffc
0000
0000
0000
0000
ENDCHAR
STARTCHAR U2266
ENCODING 8806
SWIDTH 960 0
DWIDTH 16 0
BBX 16 16 0 -2
BITMAP
0000
0000
001c
00e0
0700
3800
0700
00e0
001c
0000
3ffc
0000
0000
3ffc
0000
0000
ENDCHAR
STARTCHAR U2267
ENCODING 8807
SWIDTH 960 0
DWIDTH 16 0
BBX 16 16 0 -2
BITMAP
0000
0000
3800
0700
00e0
001c
00e0
0700
3800
0000
3ffc
0000
0000
3ffc
0000
0000
ENDCHAR
STARTCHAR U226A
ENCODING 8810
SWIDTH 960 0
DWIDTH 16 0
BBX 16 16 0 -2
BITMAP
0000
0088
0110
0220
0440
0880
1100
2200
1100
0880
0440
0220
0110
0088
0044
0000
ENDCHAR
STARTCHAR U226B
ENCODING 8811
SWIDTH 960 0
DWIDTH 16 0
BBX 16 16 0 -2
BITMAP
0000
1100
0880
0440
0220
0110
0088
0044
0088
0110
0220
0440
0880
1100
2200
0000
ENDCHAR
STARTCHAR U2282
ENCODING 8834
SWIDTH 960 0
DWIDTH 16 0
BBX 16 16 0 -2
BITMAP
0000
0000
0000
03fc
0c00
1000
2000
2000
2000
2000
1000
0c00
03fc
0000
0000
0000
ENDCHAR
STARTCHAR U2283
ENCODING 8835
SWIDTH 960 0
DWIDTH 16 0
BBX 16 16 0 -2
BITMAP
0000
0000
0000
3fc0
0030
0008
0004
0004
0004
0004
0008
0030
3fc0
0000
0000
0000
ENDCHAR
STARTCHAR U2286
ENCODING 8838
SWIDTH 960 0
DWIDTH 16 0
BBX 16 16 0 -2
BITMAP
0000
0000
0ffc
1000
2000
2000
2000
2000
1000
0ffc
0000
0000
3ffc
0000
0000
0000
ENDCHAR
STARTCHAR U2287
ENCODING 8839
SWIDTH 960 0
DWIDTH 16 0
BBX 16 16 0 -2
BITMAP
0000
0000
3ff0
0008
0004
0004
0004
0004
0008
3ff0
0000
0000
3ffc
0000
0000
0000
ENDCHAR
STARTCHAR U22A5
ENCODING 8869
SWIDTH 960 0
DWIDTH 16 0
BBX 16 16 0 -2
BITMAP
0000
0000
0100
0100
0100
0100
0100
0100
0100
0100
0100
0100
3ffc
0000
0000
0000
ENDCHAR
STARTCHAR U2312
ENCODING 8978
SWIDTH 960 0
DWIDTH 16 0
BBX 16 16 0 -2
BITMAP
07e0
381c
4002
0000
0000
0000
0000
0000
0000
0000
0000
0000
0000
0000
0000
0000
ENDCHAR
STARTCHAR U2500
ENCODING 9472
SWIDTH 960 0
DWIDTH 16 0
BBX 16 16 0 -2
BITMAP
0000
0000
0000
0000
0000
0000
0000
ffff
0000
0000
0000
0000
0000
0000
0000
0000
ENDCHAR
STARTCHAR U2501
ENCODING 9473
SWIDTH 960 0
DWIDTH 16 0
BBX 16 16 0 -2
BITMAP
0000
0000
0000
0000
0000
0000
0000
ffff
ffff
0000
0000
0000
0000
0000
0000
0000
ENDCHAR
STARTCHAR U2502
ENCODING 9474
SWIDTH 960 0
DWIDTH 16 0
BBX 16 16 0 -2
BITMAP
0100
0100
0100
0100
0100
0100
0100
0100
0100
0100
0100
0100
0100
0100
0100
0100
ENDCHAR
STARTCHAR U2503
ENCODING 9475
SWIDTH 960 0
DWIDTH 16 0
BBX 16 16 0 -2
BITMAP
0180
0180
0180
0180
0180
0180
0180
0180
0180
0180
0180
0180
0180
0180
0180
0180
ENDCHAR
STARTCHAR U250C
ENCODING 9484
SWIDTH 960 0
DWIDTH 16 0
BBX 16 16 0 -2
BITMAP
0000
0000
0000
0000
0000
0000
0000
01ff
0100
0100
0100
0100
0100
0100
0100
0100
ENDCHAR
STARTCHAR U250F
ENCODING 9487
SWIDTH 960 0
DWIDTH 16 0
BBX 16 16 0 -2
BITMAP
0000
0000
0000
0000
0000
0000
0000
01ff
01ff
0180
0180
0180
0180
0180
0180
0180
ENDCHAR
STARTCHAR U2510
ENCODING 9488
SWIDTH 960 0
DWIDTH 16 0
BBX 16 16 0 -2
BITMAP
0000
0000
0000
0000
0000
0000
0000
ff00
0100
0100
0100
0100
0100
0100
0100
0100
ENDCHAR
STARTCHAR U2513
ENCODING 9491
SWIDTH 960 0
DWIDTH 16 0
BBX 16 16 0 -2
BITMAP
0000
0000
0000
0000
0000
0000
0000
ff80
ff80
0180
0180
0180
0180
0180
0180
0180
ENDCHAR
STARTCHAR U2514
ENCODING 9492
SWIDTH 960 0
DWIDTH 16 0
BBX 16 16 0 -2
BITMAP
0100
0100
0100
0100
0100
0100
0100
01ff
0000
0000
0000
0000
0000
0000
0000
0000
ENDCHAR
STARTCHAR U2517
ENCODING 9495
SWIDTH 960 0
DWIDTH 16 0
BBX 16 16 0 -2
BITMAP
0180
0180
0180
0180
0180
0180
0180
01ff
01ff
0000
0000
0000
0000
0000
0000
0000
ENDCHAR
STARTCHAR U2518
ENCODING 9496
SWIDTH 960 0
DWIDTH 16 0
BBX 16 16 0 -2
BITMAP
0100
0100
0100
0100
0100
0100
0100
ff00
0000
0000
0000
0000
0000
0000
0000
0000
ENDCHAR
STARTCHAR U251B
ENCODING 9499
SWIDTH 960 0
DWIDTH 16 0
BBX 16 16 0 -2
BITMAP
0180
0180
0180
0180
0180
0180
0180
ff80
ff80
0000
0000
0000
0000
0000
0000
0000
ENDCHAR
STARTCHAR U251C
ENCODING 9500
SWIDTH 960 0
DWIDTH 16 0
BBX 16 16 0 -2
BITMAP
0100
0100
0100
0100
0100
0100
0100
01ff
0100
0100
0100
0100
0100
0100
0100
0100
ENDCHAR
STARTCHAR U251D
ENCODING 9501
SWIDTH 960 0
DWIDTH 16 0
BBX 16 16 0 -2
BITMAP
0100
0100
0100
0100
0100
0100
0100
01ff
01ff
0100
0100
0100
0100
0100
0100
0100
ENDCHAR
STARTCHAR U2520
ENCODING 9504
SWIDTH 960 0
DWIDTH 16 0
BBX 16 16 0 -2
BITMAP
0180
0180
0180
0180
0180
0180
0180
01ff
0180
0180
0180
0180
0180
0180
0180
0180
ENDCHAR
STARTCHAR U2523
ENCODING 9507
SWIDTH 960 0
DWIDTH 16 0
BBX 16 16 0 -2
BITMAP
0180
0180
0180
0180
0180
0180
0180
01ff
01ff
0180
0180
0180
0180
0180
0180
0180
ENDCHAR
STARTCHAR U2524
ENCODING 9508
SWIDTH 960 0
DWIDTH 16 0
BBX 16 16 0 -2
BITMAP
0100
0100
0100
0100
0100
0100
0100
ff00
0100
0100
0100
0100
0100
0100
0100
0100
ENDCHAR
STARTCHAR U2525
ENCODING 9509
SWIDTH 960 0
DWIDTH 16 0
BBX 16 16 0 -2
BITMAP
0100
0100
0100
0100
0100
0100
0100
ff00
ff00
0100
0100
0100
0100
0100
0100
0100
ENDCHAR
STARTCHAR U2528
ENCODING 9512
SWIDTH 960 0
DWIDTH 16 0
BBX 16 16 0 -2
BITMAP
0180
0180
0180
0180
0180
0180
0180
ff80
0180
0180
0180
0180
0180
0180
0180
0180
ENDCHAR
STARTCHAR U252B
ENCODING 9515
SWIDTH 960 0
DWIDTH 16 0
BBX 16 16 0 -2
BITMAP
0180
0180
0180
0180
0180
0180
0180
ff80
ff80
0180
0180
0180
0180
0180
0180
0180
ENDCHAR
STARTCHAR U252C
ENCODING 9516
SWIDTH 960 0
DWIDTH 16 0
BBX 16 16 0 -2
BITMAP
0000
0000
0000
0000
0000
0000
0000
ffff
0100
0100
0100
0100
0100
0100
0100
0100
ENDCHAR
STARTCHAR U252F
ENCODING 9519
SWIDTH 960 0
DWIDTH 16 0
BBX 16 16 0 -2
BITMAP
0000
0000
0000
0000
0000
0000
0000
ffff
ffff
0100
0100
0100
0100
0100
0100
0100
ENDCHAR
STARTCHAR U2530
ENCODING 9520
SWIDTH 960 0
DWIDTH 16 0
BBX 16 16 0 -2
BITMAP
0000
0000
0000
0000
0000
0000
0000
ffff
0180
0180
0180
0180
0180
0180
0180
0180
ENDCHAR
STARTCHAR U2533
ENCODING 9523
SWIDTH 960 0
DWIDTH 16 0
BBX 16 16 0 -2
BITMAP
0000
0000
0000
0000
0000
0000
0000
ffff
ffff
0180
0180
0180
0180
0180
0180
0180
ENDCHAR
STARTCHAR U2534
ENCODING 9524
SWIDTH 960 0
DWIDTH 16 0
BBX 16 16 0 -2
BITMAP
0100
0100
0100
0100
0100
0100
0100
ffff
0000
0000
0000
0000
0000
0000
0000
0000
ENDCHAR
STARTCHAR U2537
ENCODING 9527
SWIDTH 960 0
DWIDTH 16 0
BBX 16 16 0 -2
BITMAP
0100
0100
0100
0100
0100
0100
0100
ffff
ffff
0000
0000
0000
0000
0000
0000
0000
ENDCHAR
STARTCHAR U2538
ENCODING 9528
SWIDTH 960 0
DWIDTH 16 0
BBX 16 16 0 -2
BITMAP
0180
0180
0180
0180
0180
0180
0180
ffff
0000
0000
0000
0000
0000
0000
0000
0000
ENDCHAR
STARTCHAR U253B
ENCODING 9531
SWIDTH 960 0
DWIDTH 16 0
BBX 16 16 0 -2
BITMAP
0180
0180
0180
0180
0180
0180
0180
ffff
ffff
0000
0000
0000
0000
0000
0000
0000
ENDCHAR
STARTCHAR U253C
ENCODING 9532
SWIDTH 960 0
DWIDTH 16 0
BBX 16 16 0 -2
BITMAP
0100
0100
0100
0100
0100
0100
0100
ffff
0100
0100
0100
0100
0100
0100
0100
0100
ENDCHAR
STARTCHAR U253F
ENCODING 9535
SWIDTH 960 0
DWIDTH 16 0
BBX 16 16 0 -2
BITMAP
0100
0100
0100
0100
0100
0100
0100
ffff
ffff
0100
0100
0100
0100
0100
0100
0100
ENDCHAR
STARTCHAR U2542
ENCODING 9538
SWIDTH 960 0
DWIDTH 16 0
BBX 16 16 0 -2
BITMAP
0180
0180
0180
0180
0180
0180
0180
ffff
0180
0180
0180
0180
0180
0180
0180
0180
ENDCHAR
STARTCHAR U254B
ENCODING 9547
SWIDTH 960 0
DWIDTH 16 0
BBX 16 16 0 -2
BITMAP
0180
0180
0180
0180
0180
0180
0180
ffff
ffff
0180
0180
0180
0180
0180
0180
0180
ENDCHAR
STARTCHAR U25A0
ENCODING 9632
SWIDTH 960 0
DWIDTH 16 0
BBX 16 16 0 -2
BITMAP
0000
7ffe
7ffe
7ffe
7ffe
7ffe
7ffe
7ffe
7ffe
7ffe
7ffe
7ffe
7ffe
7ffe
7ffe
0000
ENDCHAR
STARTCHAR U25A1
ENCODING 9633
SWIDTH 960 0
DWIDTH 16 0
BBX 16 16 0 -2
BITMAP
0000
7ffe
4002
4002
4002
4002
4002
4002
4002
4002
4002
4002
4002
4002
7ffe
0000
ENDCHAR
STARTCHAR U25B2
ENCODING 9650
SWIDTH 960 0
DWIDTH 16 0
BBX 16 16 0 -2
BITMAP
0000
0100
0100
0380
0380
07c0
07e0
0fe0
0ff0
1ff0
1ff8
3ffc
3ffc
7ffe
0000
0000
ENDCHAR
STARTCHAR U25B3
ENCODING 9651
SWIDTH 960 0
DWIDTH 16 0
BBX 16 16 0 -2
BITMAP
0000
0100
0100
0280
0280
0440
0440
0820
0810
1010
1008
2008
2004
7ffe
0000
0000
ENDCHAR
STARTCHAR U25BC
ENCODING 9660
SWIDTH 960 0
DWIDTH 16 0
BBX 16 16 0 -2
BITMAP
0000
0000
7ffe
3ffc
3ffc
1ff8
1ff0
0ff0
0fe0
07e0
07c0
0380
0380
0100
0100
0000
ENDCHAR
STARTCHAR U25BD
ENCODING 9661
SWIDTH 960 0
DWIDTH 16 0
BBX 16 16 0 -2
BITMAP
0000
0000
7ffe
2004
2008
1008
1010
0810
0820
0440
0440
0280
0280
0100
0100
0000
ENDCHAR
STARTCHAR U25C6
ENCODING 9670
SWIDTH 960 0
DWIDTH 16 0
BBX 16 16 0 -2
BITMAP
0180
03c0
07e0
0ff0
1ff8
3ffc
7ffe
ffff
ffff
7ffe
3ffc
1ff8
0ff0
07e0
03c0
0180
ENDCHAR
STARTCHAR U25C7
ENCODING 9671
SWIDTH 960 0
DWIDTH 16 0
BBX 16 16 0 -2
BITMAP
0180
0240
0420
0810
1008
2004
4002
8001
8001
4002
2004
1008
0810
0420
0240
0180
ENDCHAR
STARTCHAR U25CB
ENCODING 9675
SWIDTH 960 0
DWIDTH 16 0
BBX 16 16 0 -2
BITMAP
0000
03c0
0c30
1008
2004
2004
4002
4002
4002
4002
2004
2004
1008
0c30
03c0
0000
ENDCHAR
STARTCHAR U25CE
ENCODING 9678
SWIDTH 960 0
DWIDTH 16 0
BBX 16 16 0 -2
BITMAP
0000
03c0
0c30
1008
23c4
2424
4812
4812
4812
4812
2424
23c4
1008
0c30
03c0
0000
ENDCHAR
STARTCHAR U25CF
ENCODING 9679
SWIDTH 960 0
DWIDTH 16 0
BBX 16 16 0 -2
BITMAP
0000
03c0
0ff0
1ff8
3ffc
3ffc
7ffe
7ffe
7ffe
7ffe
3ffc
3ffc
1ff8
0ff0
03c0
0000
ENDCHAR
STARTCHAR U25EF
ENCODING 9711
SWIDTH 960 0
DWIDTH 16 0
BBX 16 16 0 -2
BITMAP
03c0
0c30
1008
2004
4002
4002
8001
8001
8001
8001
4002
4002
2004
1008
0c30
03c0
ENDCHAR
STARTCHAR U2605
ENCODING 9733
SWIDTH 960 0
DWIDTH 16 0
BBX 16 16 0 -2
BITMAP
0000
0100
0100
0380
0380
07c0
7ffc
3ff8
1ff0
0fe0
0fe0
1ef0
1c70
3838
2008
0000
ENDCHAR
STARTCHAR U2606
ENCODING 9734
SWIDTH 960 0
DWIDTH 16 0
BBX 16 16 0 -2
BITMAP
0000
0100
0100
0280
0280
0440
7c7c
2008
1010
0820
0820
1110
1290
2c68
3018
0000
ENDCHAR
STARTCHAR U2640
ENCODING 9792
SWIDTH 960 0
DWIDTH 16 0
BBX 16 16 0 -2
BITMAP
0000
03c0
0420
0810
0810
0810
0810
0420
03c0
0100
1ff8
0100
0100
0100
0100
0100
ENDCHAR
STARTCHAR U2642
ENCODING 9794
SWIDTH 960 0
DWIDTH 16 0
BBX 16 16 0 -2
BITMAP
0000
00fe
0006
000a
0012
0022
0042
1e82
2100
4080
4080
4080
4080
2100
1e00
0000
ENDCHAR
STARTCHAR U266A
ENCODING 9834
SWIDTH 960 0
DWIDTH 16 0
BBX 16 16 0 -2
BITMAP
0080
0080
00c0
00e0
00b0
0098
008c
0084
0084
0088
0090
0080
0f80
1f80
1f00
0e00
ENDCHAR
STARTCHAR U266D
ENCODING 9837
SWIDTH 960 0
DWIDTH 16 0
BBX 16 16 0 -2
BITMAP
0400
0400
0400
0400
0400
0400
0400
05e0
0630
0430
0430
0460
04c0
0500
0600
0400
ENDCHAR
STARTCHAR U266F
ENCODING 9839
SWIDTH 960 0
DWIDTH 16 0
BBX 16 16 0 -2
BITMAP
0020
0420
0420
043c
07fc
3fe0
3c20
0420
0420
043c
07fc
3fe0
3c20
0420
0420
0400
ENDCHAR
STARTCHAR U3000
ENCODING 12288
SWIDTH 960 0
DWIDTH 16 0
BBX 16 16 0 -2
BITMAP
0000
0000
0000
0000
0000
0000
0000
0000
0000
0000
0000
0000
0000
0000
0000
0000
ENDCHAR
STARTCHAR U3001
ENCODING 12289
SWIDTH 960 0
DWIDTH 16 0
BBX 16 16 0 -2
BITMAP
0000
0000
0000
0000
0000
0000
0000
0000
0000
0000
0000
0000
2000
1000
0800
0800
ENDCHAR
STARTCHAR U3002
ENCODING 12290
SWIDTH 960 0
DWIDTH 16 0
BBX 16 16 0 -2
BITMAP
0000
0000
0000
0000
0000
0000
0000
0000
0000
0000
0000
3000
4800
4800
3000
0000
ENDCHAR
STARTCHAR U3003
ENCODING 12291
SWIDTH 960 0
DWIDTH 16 0
BBX 16 16 0 -2
BITMAP
0000
0000
0000
0000
0110
0110
0110
0220
0220
0440
0880
0000
0000
0000
0000
0000
ENDCHAR
STARTCHAR U3005
ENCODING 12293
SWIDTH 960 0
DWIDTH 16 0
BBX 16 16 0 -2
BITMAP
0000
0100
0100
0100
01f8
0108
0208
0210
0410
09a0
1060
0010
0008
0008
0000
0000
ENDCHAR
STARTCHAR U3006
ENCODING 12294
SWIDTH 960 0
DWIDTH 16 0
BBX 16 16 0 -2
BITMAP
0000
0002
0002
0004
0008
0190
0260
0440
04a0
0900
0a00
0c00
0800
1000
1000
0000
ENDCHAR
STARTCHAR U3007
ENCODING 12295
SWIDTH 960 0
DWIDTH 16 0
BBX 16 16 0 -2
BITMAP
0000
03c0
0c30
1008
2004
2004
4002
4002
4002
4002
2004
2004
1008
0c30
03c0
0000
ENDCHAR
STARTCHAR U3008
ENCODING 12296
SWIDTH 960 0
DWIDTH 16 0
BBX 16 16 0 -2
BITMAP
0008
0008
0010
0010
0020
0020
0040
0080
0080
0040
0020
0020
0010
0010
0008
0008
ENDCHAR
STARTCHAR U3009
ENCODING 12297
SWIDTH 960 0
DWIDTH 16 0
BBX 16 16 0 -2
BITMAP
1000
1000
0800
0800
0400
0400
0200
0100
0100
0200
0400
0400
0800
0800
1000
1000
ENDCHAR
STARTCHAR U300A
ENCODING 12298
SWIDTH 960 0
DWIDTH 16 0
BBX 16 16 0 -2
BITMAP
0024
0024
0048
0048
0090
0090
0120
0240
0240
0120
0090
0090
0048
0048
0024
0024
ENDCHAR
STARTCHAR U300B
ENCODING 12299
SWIDTH 960 0
DWIDTH 16 0
BBX 16 16 0 -2
BITMAP
2400
2400
1200
1200
0900
0900
0480
0240
0240
0480
0900
0900
1200
1200
2400
2400
ENDCHAR
STARTCHAR U300C
ENCODING 12300
SWIDTH 960 0
DWIDTH 16 0
BBX 16 16 0 -2
BITMAP
00f8
0080
0080
0080
0080
0080
0080
0080
0080
0080
0080
0000
0000
0000
0000
0000
ENDCHAR
STARTCHAR U300D
ENCODING 12301
SWIDTH 960 0
DWIDTH 16 0
BBX 16 16 0 -2
BITMAP
0000
0000
0000
0000
0000
0100
0100
0100
0100
0100
0100
0100
0100
0100
0100
1f00
ENDCHAR
STARTCHAR U300E
ENCODING 12302
SWIDTH 960 0
DWIDTH 16 0
BBX 16 16 0 -2
BITMAP
01f8
0108
0178
0140
0140
0140
0140
0140
0140
0140
01c0
0000
0000
0000
0000
0000
ENDCHAR
STARTCHAR U300F
ENCODING 12303
SWIDTH 960 0
DWIDTH 16 0
BBX 16 16 0 -2
BITMAP
0000
0000
0000
0000
0000
0380
0280
0280
0280
0280
0280
0280
0280
1e80
1080
1f80
ENDCHAR
STARTCHAR U3010
ENCODING 12304
SWIDTH 960 0
DWIDTH 16 0
BBX 16 16 0 -2
BITMAP
00f8
00f0
00e0
00c0
00c0
0080
0080
0080
0080
0080
0080
00c0
00c0
00e0
00f0
00f8
ENDCHAR
STARTCHAR U3011
ENCODING 12305
SWIDTH 960 0
DWIDTH 16 0
BBX 16 16 0 -2
BITMAP
1f00
0f00
0700
0300
0300
0100
0100
0100
0100
0100
0100
0300
0300
0700
0f00
1f00
ENDCHAR
STARTCHAR U3012
ENCODING 12306
SWIDTH 960 0
DWIDTH 16 0
BBX 16 16 0 -2
BITMAP
0000
3ffc
3ffc
0000
0000
7ffe
7ffe
0180
0180
0180
0180
0180
0180
0180
0180
0000
ENDCHAR
STARTCHAR U3013
ENCODING 12307
SWIDTH 960 0
DWIDTH 16 0
BBX 16 16 0 -2
BITMAP
0000
0000
0000
3ffe
3ffe
3ffe
0000
0000
0000
0000
3ffe
3ffe
3ffe
0000
0000
0000
ENDCHAR
STARTCHAR U3014
ENCODING 12308
SWIDTH 960 0
DWIDTH 16 0
BBX 16 16 0 -2
BITMAP
0008
0030
00c0
0080
0080
0080
0080
0080
0080
0080
0080
0080
0080
00c0
0030
0008
ENDCHAR
STARTCHAR U3015
ENCODING 12309
SWIDTH 960 0
DWIDTH 16 0
BBX 16 16 0 -2
BITMAP
1000
0c00
0300
0100
0100
0100
0100
0100
0100
0100
0100
0100
0100
0300
0c00
1000
ENDCHAR
STARTCHAR U301C
ENCODING 12316
SWIDTH 960 0
DWIDTH 16 0
BBX 16 16 0 -2
BITMAP
0000
0000
0000
0000
0000
0000
1c00
2302
40c4
0038
0000
0000
0000
0000
0000
0000
ENDCHAR
STARTCHAR U3041
ENCODING 12353
SWIDTH 960 0
DWIDTH 16 0
BBX 16 16 0 -2
BITMAP
0000
0000
0000
0200
02c0
0f00
0240
03e0
0650
0a88
1288
1308
1210
0c20
00c0
0000
ENDCHAR
STARTCHAR U3042
ENCODING 12354
SWIDTH 960 0
DWIDTH 16 0
BBX 16 16 0 -2
BITMAP
0200
0200
0260
1f80
0200
0240
03f0
0448
0c44
1482
2482
2302
2504
1818
0060
0000
ENDCHAR
STARTCHAR U3043
ENCODING 12355
SWIDTH 960 0
DWIDTH 16 0
BBX 16 16 0 -2
BITMAP
0000
0000
0000
0000
0000
0000
0400
0410
0808
0808
0804
0804
0904
0500
0200
0000
ENDCHAR
STARTCHAR U3044
ENCODING 12356
SWIDTH 960 0
DWIDTH 16 0
BBX 16 16 0 -2
BITMAP
0000
0000
0000
1000
1010
1008
2004
2004
2002
2002
2002
1202
1200
0c00
0000
0000
ENDCHAR
STARTCHAR U3045
ENCODING 12357
SWIDTH 960 0
DWIDTH 16 0
BBX 16 16 0 -2
BITMAP
0000
0000
0000
0100
00c0
0000
0000
01e0
0610
0010
0010
0020
0020
0040
0180
0000
ENDCHAR
STARTCHAR U3046
ENCODING 12358
SWIDTH 960 0
DWIDTH 16 0
BBX 16 16 0 -2
BITMAP
0300
00c0
0000
0000
03e0
1c10
0008
0008
0008
0010
0010
0020
0040
0180
0600
0000
ENDCHAR
STARTCHAR U3047
ENCODING 12359
SWIDTH 960 0
DWIDTH 16 0
BBX 16 16 0 -2
BITMAP
0000
0000
0000
0000
0200
0180
0060
0000
0fe0
0040
0080
0100
0680
0880
1080
0078
ENDCHAR
STARTCHAR U3048
ENCODING 12360
SWIDTH 960 0
DWIDTH 16 0
BBX 16 16 0 -2
BITMAP
0200
0100
00c0
0000
0ff0
0020
0040
0080
0100
0380
0440
0840
1040
2020
001c
0000
ENDCHAR
STARTCHAR U3049
ENCODING 12361
SWIDTH 960 0
DWIDTH 16 0
BBX 16 16 0 -2
BITMAP
0000
0000
0000
0000
0200
0210
03c8
1e08
0200
03e0
0610
0a08
1208
1210
0c60
0000
ENDCHAR
STARTCHAR U304A
ENCODING 12362
SWIDTH 960 0
DWIDTH 16 0
BBX 16 16 0 -2
BITMAP
0200
0200
0218
03c4
3e02
0201
0200
03e0
0e18
1204
2204
2204
2408
1830
00c0
0000
ENDCHAR
STARTCHAR U304B
ENCODING 12363
SWIDTH 960 0
DWIDTH 16 0
BBX 16 16 0 -2
BITMAP
0000
0400
0400
0410
0408
3f84
0444
0842
0842
0842
1040
1040
2080
2480
0300
0000
ENDCHAR
STARTCHAR U304C
ENCODING 12364
SWIDTH 960 0
DWIDTH 16 0
BBX 16 16 0 -2
BITMAP
0400
040a
040a
0412
0408
3f84
0444
0842
0842
0842
1040
1040
2080
2480
0300
0000
ENDCHAR
STARTCHAR U304D
ENCODING 12365
SWIDTH 960 0
DWIDTH 16 0
BBX 16 16 0 -2
BITMAP
0100
0100
0170
1f80
0080
00f8
3f40
0020
0020
07d0
0830
1000
1000
0c00
03c0
0000
ENDCHAR
STARTCHAR U304E
ENCODING 12366
SWIDTH 960 0
DWIDTH 16 0
BBX 16 16 0 -2
BITMAP
0104
0112
017a
1f88
0080
00f8
3f40
0020
0020
07d0
0830
1000
1000
0c00
03c0
0000
ENDCHAR
STARTCHAR U304F
ENCODING 12367
SWIDTH 960 0
DWIDTH 16 0
BBX 16 16 0 -2
BITMAP
0020
0020
0040
0080
0100
0200
0400
0400
0200
0100
0080
0040
0040
0020
0020
0000
ENDCHAR
STARTCHAR U3050
ENCODING 12368
SWIDTH 960 0
DWIDTH 16 0
BBX 16 16 0 -2
BITMAP
0020
0020
0044
0092
010a
0208
0400
0400
0200
0100
0080
0040
0040
0020
0020
0000
ENDCHAR
STARTCHAR U3051
ENCODING 12369
SWIDTH 960 0
DWIDTH 16 0
BBX 16 16 0 -2
BITMAP
0010
1010
1010
1010
101e
23f0
2010
2010
2010
2010
2810
1010
1010
0020
00c0
0000
ENDCHAR
STARTCHAR U3052
ENCODING 12370
SWIDTH 960 0
DWIDTH 16 0
BBX 16 16 0 -2
BITMAP
0012
1019
1015
1014
101e
23f0
2010
2010
2010
2010
2810
1010
1010
0020
00c0
0000
ENDCHAR
STARTCHAR U3053
ENCODING 12371
SWIDTH 960 0
DWIDTH 16 0
BBX 16 16 0 -2
BITMAP
0000
0000
0700
00f8
0000
0000
0000
0000
0000
1000
1000
1000
0804
07f8
0000
0000
ENDCHAR
STARTCHAR U3054
ENCODING 12372
SWIDTH 960 0
DWIDTH 16 0
BBX 16 16 0 -2
BITMAP
0000
000a
070a
00fa
0000
0000
0000
0000
0000
1000
1000
1000
0804
07f8
0000
0000
ENDCHAR
STARTCHAR U3055
ENCODING 12373
SWIDTH 960 0
DWIDTH 16 0
BBX 16 16 0 -2
BITMAP
0080
0080
008c
0ff0
0040
0020
0020
0010
03e8
0418
0800
0800
0400
0300
00f0
0000
ENDCHAR
STARTCHAR U3056
ENCODING 12374
SWIDTH 960 0
DWIDTH 16 0
BBX 16 16 0 -2
BITMAP
0104
0112
010a
1ff8
0080
0040
0040
0020
07d0
0830
1000
1000
0800
0600
01e0
0000
ENDCHAR
STARTCHAR U3057
ENCODING 12375
SWIDTH 960 0
DWIDTH 16 0
BBX 16 16 0 -2
BITMAP
0000
0800
0800
0800
0800
0800
0800
0800
0800
0800
0800
0808
0810
0460
0380
0000
ENDCHAR
STARTCHAR U3058
ENCODING 12376
SWIDTH 960 0
DWIDTH 16 0
BBX 16 16 0 -2
BITMAP
0000
0800
0810
0848
0828
0820
0800
0800
0800
0800
0800
0808
0810
0460
0380
0000
ENDCHAR
STARTCHAR U3059
ENCODING 12377
SWIDTH 960 0
DWIDTH 16 0
BBX 16 16 0 -2
BITMAP
0040
0040
007e
3fc0
0040
0040
0340
04c0
0440
0440
04c0
0340
0040
0040
0080
0300
ENDCHAR
STARTCHAR U305A
ENCODING 12378
SWIDTH 960 0
DWIDTH 16 0
BBX 16 16 0 -2
BITMAP
0042
0049
007d
3fc4
0040
0040
0340
04c0
0440
0440
04c0
0340
0040
0040
0080
0300
ENDCHAR
STARTCHAR U305B
ENCODING 12379
SWIDTH 960 0
DWIDTH 16 0
BBX 16 16 0 -2
BITMAP
0000
0020
0420
0420
043e
07e0
7c20
0420
0420
0420
0440
0400
0200
01f8
0000
0000
ENDCHAR
STARTCHAR U305C
ENCODING 12380
SWIDTH 960 0
DWIDTH 16 0
BBX 16 16 0 -2
BITMAP
0000
0022
0429
0425
043c
07e0
7c20
0420
0420
0420
0440
0400
0200
01f8
0000
0000
ENDCHAR
STARTCHAR U305D
ENCODING 12381
SWIDTH 960 0
DWIDTH 16 0
BBX 16 16 0 -2
BITMAP
0000
07f0
0040
0080
0100
0200
043c
3fc0
0080
0100
0200
0200
0200
0100
00e0
0000
ENDCHAR
STARTCHAR U305E
ENCODING 12382
SWIDTH 960 0
DWIDTH 16 0
BBX 16 16 0 -2
BITMAP
0004
07f2
004a
0088
0100
0200
043c
3fc0
0080
0100
0200
0200
0200
0100
00e0
0000
ENDCHAR
STARTCHAR U305F
ENCODING 12383
SWIDTH 960 0
DWIDTH 16 0
BBX 16 16 0 -2
BITMAP
0400
0400
04c0
3f00
0400
0800
081c
08e0
0800
1000
1000
1000
2080
2080
207e
0000
ENDCHAR
STARTCHAR U3060
ENCODING 12384
SWIDTH 960 0
DWIDTH 16 0
BBX 16 16 0 -2
BITMAP
0400
0404
04d2
3f0a
0408
0800
081c
08e0
0800
1000
1000
1000
2080
2080
207e
0000
ENDCHAR
STARTCHAR U3061
ENCODING 12385
SWIDTH 960 0
DWIDTH 16 0
BBX 16 16 0 -2
BITMAP
0200
0200
0200
3ff0
0200
0400
0400
04f0
0b08
0c04
0804
0004
0008
0030
03c0
0000
ENDCHAR
STARTCHAR U3062
ENCODING 12386
SWIDTH 960 0
DWIDTH 16 0
BBX 16 16 0 -2
BITMAP
0204
0212
020a
3ff8
0200
0400
0400
04f0
0b08
0c04
0804
0004
0008
0030
03c0
0000
ENDCHAR
STARTCHAR U3063
ENCODING 12387
SWIDTH 960 0
DWIDTH 16 0
BBX 16 16 0 -2
BITMAP
0000
0000
0000
0000
0000
0000
0000
0000
01f0
0e08
0008
0008
0010
0060
0180
0000
ENDCHAR
STARTCHAR U3064
ENCODING 12388
SWIDTH 960 0
DWIDTH 16 0
BBX 16 16 0 -2
BITMAP
0000
0000
0000
00e0
0718
7804
0002
0002
0002
0004
0008
0030
01c0
0000
0000
0000
ENDCHAR
STARTCHAR U3065
ENCODING 12389
SWIDTH 960 0
DWIDTH 16 0
BBX 16 16 0 -2
BITMAP
0002
0009
0005
00e4
0718
7804
0002
0002
0002
0004
0008
0030
01c0
0000
0000
0000
ENDCHAR
STARTCHAR U3066
ENCODING 12390
SWIDTH 960 0
DWIDTH 16 0
BBX 16 16 0 -2
BITMAP
0000
000e
03f0
7c20
0040
0080
0080
0100
0100
0100
0100
0080
0040
0038
0000
0000
ENDCHAR
STARTCHAR U3067
ENCODING 12391
SWIDTH 960 0
DWIDTH 16 0
BBX 16 16 0 -2
BITMAP
0000
000e
03f0
7c22
0049
0085
0084
0100
0100
0100
0100
0080
0040
0038
0000
0000
ENDCHAR
STARTCHAR U3068
ENCODING 12392
SWIDTH 960 0
DWIDTH 16 0
BBX 16 16 0 -2
BITMAP
0000
0400
0400
0200
0200
010c
0130
00c0
0100
0200
0400
0800
0800
0400
03fc
0000
ENDCHAR
STARTCHAR U3069
ENCODING 12393
SWIDTH 960 0
DWIDTH 16 0
BBX 16 16 0 -2
BITMAP
0000
0804
0812
040a
0408
0218
0260
0180
0200
0400
0800
1000
1000
0800
07f8
0000
ENDCHAR
STARTCHAR U306A
ENCODING 12394
SWIDTH 960 0
DWIDTH 16 0
BBX 16 16 0 -2
BITMAP
0400
0400
0780
3c18
0404
0822
0820
0820
1020
1020
2020
03e0
0438
0424
03c0
0000
ENDCHAR
STARTCHAR U306B
ENCODING 12395
SWIDTH 960 0
DWIDTH 16 0
BBX 16 16 0 -2
BITMAP
0000
1000
1000
1038
11c0
2000
2000
2000
2000
2000
2200
2200
2180
287c
1000
0000
ENDCHAR
STARTCHAR U306C
ENCODING 12396
SWIDTH 960 0
DWIDTH 16 0
BBX 16 16 0 -2
BITMAP
0000
0080
1080
1080
13f0
1c88
1084
1082
2902
2902
4602
443a
4a44
3044
003a
0000
ENDCHAR
STARTCHAR U306D
ENCODING 12397
SWIDTH 960 0
DWIDTH 16 0
BBX 16 16 0 -2
BITMAP
0800
0800
0800
0c70
7888
0904
0a04
0c04
0804
1804
183c
2844
4846
0838
0800
0000
ENDCHAR
STARTCHAR U306E
ENCODING 12398
SWIDTH 960 0
DWIDTH 16 0
BBX 16 16 0 -2
BITMAP
0000
0000
01e0
0690
0888
1084
1084
2102
2102
2204
2404
1808
0010
0060
0000
0000
ENDCHAR
STARTCHAR U306F
ENCODING 12399
SWIDTH 960 0
DWIDTH 16 0
BBX 16 16 0 -2
BITMAP
0010
1010
1010
1010
101e
23f0
2010
2010
2010
2010
2010
21f0
2a1c
1212
11e0
0000
ENDCHAR
STARTCHAR U3070
ENCODING 12400
SWIDTH 960 0
DWIDTH 16 0
BBX 16 16 0 -2
BITMAP
0010
1015
1015
1015
101e
13f0
2010
2010
2010
2010
2010
21f0
2a1c
1212
11e0
0000
ENDCHAR
STARTCHAR U3071
ENCODING 12401
SWIDTH 960 0
DWIDTH 16 0
BBX 16 16 0 -2
BITMAP
0016
1019
1019
1016
101e
13f0
2010
2010
2010
2010
2010
21f0
2a1c
1212
11e0
0000
ENDCHAR
STARTCHAR U3072
ENCODING 12402
SWIDTH 960 0
DWIDTH 16 0
BBX 16 16 0 -2
BITMAP
0000
0100
0f00
7210
0410
0818
1018
1014
2012
2010
2010
2020
1020
08c0
0700
0000
ENDCHAR
STARTCHAR U3073
ENCODING 12403
SWIDTH 960 0
DWIDTH 16 0
BBX 16 16 0 -2
BITMAP
0000
0102
0f09
7215
0414
0818
1018
1014
2012
2010
2010
2020
1020
08c0
0700
0000
ENDCHAR
STARTCHAR U3074
ENCODING 12404
SWIDTH 960 0
DWIDTH 16 0
BBX 16 16 0 -2
BITMAP
0006
0109
0f09
7216
0410
0818
1018
1014
2012
2010
2010
2020
1020
08c0
0700
0000
ENDCHAR
STARTCHAR U3075
ENCODING 12405
SWIDTH 960 0
DWIDTH 16 0
BBX 16 16 0 -2
BITMAP
0000
0200
01c0
0040
0080
0100
0100
0088
1044
1042
2021
2021
4020
0440
0380
0000
ENDCHAR
STARTCHAR U3076
ENCODING 12406
SWIDTH 960 0
DWIDTH 16 0
BBX 16 16 0 -2
BITMAP
0000
0204
01d2
004a
0088
0100
0100
0088
1044
1042
2021
2021
4020
0440
0380
0000
ENDCHAR
STARTCHAR U3077
ENCODING 12407
SWIDTH 960 0
DWIDTH 16 0
BBX 16 16 0 -2
BITMAP
000c
0212
01d2
004c
0080
0100
0100
0088
1044
1042
2021
2021
4020
0440
0380
0000
ENDCHAR
STARTCHAR U3078
ENCODING 12408
SWIDTH 960 0
DWIDTH 16 0
BBX 16 16 0 -2
BITMAP
0000
0000
0000
0000
0600
0900
1080
2040
4020
0018
0006
0000
0000
0000
0000
0000
ENDCHAR
STARTCHAR U3079
ENCODING 12409
SWIDTH 960 0
DWIDTH 16 0
BBX 16 16 0 -2
BITMAP
0000
0000
0008
0024
0614
0910
1080
2040
4020
0018
0006
0000
0000
0000
0000
0000
ENDCHAR
STARTCHAR U307A
ENCODING 12410
SWIDTH 960 0
DWIDTH 16 0
BBX 16 16 0 -2
BITMAP
0000
0000
0018
0024
0024
0618
0900
1080
2040
4020
0018
0006
0000
0000
0000
0000
ENDCHAR
STARTCHAR U307B
ENCODING 12411
SWIDTH 960 0
DWIDTH 16 0
BBX 16 16 0 -2
BITMAP
0000
13fc
1010
1010
1010
201c
23f0
2010
2010
2010
2010
21f0
2a1c
1212
11e0
0000
ENDCHAR
STARTCHAR U307C
ENCODING 12412
SWIDTH 960 0
DWIDTH 16 0
BBX 16 16 0 -2
BITMAP
0002
13f9
1015
1014
1010
201c
23f0
2010
2010
2010
2010
21f0
2a1c
1212
11e0
0000
ENDCHAR
STARTCHAR U307D
ENCODING 12413
SWIDTH 960 0
DWIDTH 16 0
BBX 16 16 0 -2
BITMAP
0006
13f9
1019
1016
1010
201c
23f0
2010
2010
2010
2010
21f0
2a1c
1212
11e0
0000
ENDCHAR
STARTCHAR U307E
ENCODING 12414
SWIDTH 960 0
DWIDTH 16 0
BBX 16 16 0 -2
BITMAP
0040
0040
1ffc
0040
0040
0078
1fc0
0040
0040
0040
07c0
0870
104c
1840
0780
0000
ENDCHAR
STARTCHAR U307F
ENCODING 12415
SWIDTH 960 0
DWIDTH 16 0
BBX 16 16 0 -2
BITMAP
0000
0000
1f80
0080
0080
0108
0108
0108
07e8
1a1c
2212
4410
4820
3020
0040
0000
ENDCHAR
STARTCHAR U3080
ENCODING 12416
SWIDTH 960 0
DWIDTH 16 0
BBX 16 16 0 -2
BITMAP
0400
0400
0400
3f88
0404
0404
1c02
2402
2410
2408
2808
1808
0808
0810
07e0
0000
ENDCHAR
STARTCHAR U3081
ENCODING 12417
SWIDTH 960 0
DWIDTH 16 0
BBX 16 16 0 -2
BITMAP
0000
0040
1040
1040
11f0
1688
1884
1884
2902
2502
4202
4204
4d04
3008
0030
0000
ENDCHAR
STARTCHAR U3082
ENCODING 12418
SWIDTH 960 0
DWIDTH 16 0
BBX 16 16 0 -2
BITMAP
0200
0200
0200
1fc0
0200
0200
0460
3f80
0400
0404
0404
0404
0208
0110
00e0
0000
ENDCHAR
STARTCHAR U3083
ENCODING 12419
SWIDTH 960 0
DWIDTH 16 0
BBX 16 16 0 -2
BITMAP
0000
0000
0000
0000
00c0
0820
0800
04f0
0708
0c08
3210
0260
0100
0100
0100
0000
ENDCHAR
STARTCHAR U3084
ENCODING 12420
SWIDTH 960 0
DWIDTH 16 0
BBX 16 16 0 -2
BITMAP
0040
0020
1010
1010
0800
087c
0582
0e02
7402
0204
0238
0100
0100
0080
0080
0080
ENDCHAR
STARTCHAR U3085
ENCODING 12421
SWIDTH 960 0
DWIDTH 16 0
BBX 16 16 0 -2
BITMAP
0000
0000
0000
0000
0080
1080
11e0
1290
1488
1888
1888
1290
11e0
0080
0100
0200
ENDCHAR
STARTCHAR U3086
ENCODING 12422
SWIDTH 960 0
DWIDTH 16 0
BBX 16 16 0 -2
BITMAP
0000
0080
2040
20f8
2344
2442
2842
3042
3042
2244
2148
20f0
0040
0080
0100
0000
ENDCHAR
STARTCHAR U3087
ENCODING 12423
SWIDTH 960 0
DWIDTH 16 0
BBX 16 16 0 -2
BITMAP
0000
0000
0000
0000
0100
0100
0100
01e0
0100
0100
0100
0f00
11c0
1130
0e00
0000
ENDCHAR
STARTCHAR U3088
ENCODING 12424
SWIDTH 960 0
DWIDTH 16 0
BBX 16 16 0 -2
BITMAP
0080
0080
0080
008c
00f0
0080
0080
0080
0080
0080
0f80
30e0
2098
2104
1e00
0000
ENDCHAR
STARTCHAR U3089
ENCODING 12425
SWIDTH 960 0
DWIDTH 16 0
BBX 16 16 0 -2
BITMAP
0100
0080
0060
0800
0800
0800
0800
08f0
0b08
0c04
0804
0008
0010
0060
0380
0000
ENDCHAR
STARTCHAR U308A
ENCODING 12426
SWIDTH 960 0
DWIDTH 16 0
BBX 16 16 0 -2
BITMAP
0020
0410
0410
0410
0810
0810
0810
0810
0a10
0410
0020
0020
0040
0080
0300
0000
ENDCHAR
STARTCHAR U308B
ENCODING 12427
SWIDTH 960 0
DWIDTH 16 0
BBX 16 16 0 -2
BITMAP
0000
07e0
0040
0080
0100
0200
07e0
0c10
1008
2004
0004
0304
0488
0470
03c0
0000
ENDCHAR
STARTCHAR U308C
ENCODING 12428
SWIDTH 960 0
DWIDTH 16 0
BBX 16 16 0 -2
BITMAP
0400
0400
0400
04e0
0d10
7610
0410
0410
0410
0c10
0c10
1411
2412
440c
0400
0000
ENDCHAR
STARTCHAR U308D
ENCODING 12429
SWIDTH 960 0
DWIDTH 16 0
BBX 16 16 0 -2
BITMAP
0000
07e0
0020
0040
0080
0100
03f0
0608
0804
1004
0004
0008
0010
0060
0180
0000
ENDCHAR
STARTCHAR U308E
ENCODING 12430
SWIDTH 960 0
DWIDTH 16 0
BBX 16 16 0 -2
BITMAP
0000
0000
0000
0000
0400
0400
0400
06e0
1d10
0608
0408
0c08
1410
0460
0400
0400
ENDCHAR
STARTCHAR U308F
ENCODING 12431
SWIDTH 960 0
DWIDTH 16 0
BBX 16 16 0 -2
BITMAP
0800
0800
0800
0e00
1c00
68f0
0b08
0c04
0802
1802
2804
4804
0818
0860
0800
0000
ENDCHAR
STARTCHAR U3090
ENCODING 12432
SWIDTH 960 0
DWIDTH 16 0
BBX 16 16 0 -2
BITMAP
0000
0f80
0080
0080
0080
0080
03f0
0d08
1104
2202
4202
4472
488c
308a
0070
0000
ENDCHAR
STARTCHAR U3091
ENCODING 12433
SWIDTH 960 0
DWIDTH 16 0
BBX 16 16 0 -2
BITMAP
0000
1fc0
0080
0300
07c0
0820
1010
0610
0920
0940
0780
0400
0e70
3188
401c
0000
ENDCHAR
STARTCHAR U3092
ENCODING 12434
SWIDTH 960 0
DWIDTH 16 0
BBX 16 16 0 -2
BITMAP
0100
0100
01e0
1f00
0200
0206
0798
0860
10c0
2140
0240
0440
0400
0200
01f8
0000
ENDCHAR
STARTCHAR U3093
ENCODING 12435
SWIDTH 960 0
DWIDTH 16 0
BBX 16 16 0 -2
BITMAP
0080
0080
0100
0100
0200
0200
0200
0580
0640
0c40
0840
1041
1042
2024
2018
0000
ENDCHAR
STARTCHAR U309B
ENCODING 12443
SWIDTH 960 0
DWIDTH 16 0
BBX 16 16 0 -2
BITMAP
1000
4800
2800
2000
0000
0000
0000
0000
0000
0000
0000
0000
0000
0000
0000
0000
ENDCHAR
STARTCHAR U309C
ENCODING 12444
SWIDTH 960 0
DWIDTH 16 0
BBX 16 16 0 -2
BITMAP
0000
6000
9000
9000
6000
0000
0000
0000
0000
0000
0000
0000
0000
0000
0000
0000
ENDCHAR
STARTCHAR U309D
ENCODING 12445
SWIDTH 960 0
DWIDTH 16 0
BBX 16 16 0 -2
BITMAP
0000
0000
0000
0000
0c00
0300
0080
0040
0020
0070
0080
0100
0000
0000
0000
0000
ENDCHAR
STARTCHAR U309E
ENCODING 12446
SWIDTH 960 0
DWIDTH 16 0
BBX 16 16 0 -2
BITMAP
0000
0000
0010
0048
0c28
0320
0080
0040
0020
0070
0080
0100
0000
0000
0000
0000
ENDCHAR
STARTCHAR U30A1
ENCODING 12449
SWIDTH 960 0
DWIDTH 16 0
BBX 16 16 0 -2
BITMAP
0000
0000
0000
0000
0000
0000
0000
1ff0
0110
0120
0140
0100
0100
0200
0400
0000
ENDCHAR
STARTCHAR U30A2
ENCODING 12450
SWIDTH 960 0
DWIDTH 16 0
BBX 16 16 0 -2
BITMAP
0000
0000
0000
7ffc
0004
0104
0108
0110
0160
0100
0100
0200
0200
0400
1800
0000
ENDCHAR
STARTCHAR U30A3
ENCODING 12451
SWIDTH 960 0
DWIDTH 16 0
BBX 16 16 0 -2
BITMAP
0000
0000
0000
0000
0000
0010
0020
0040
0080
0380
0c80
0080
0080
0080
0080
0000
ENDCHAR
STARTCHAR U30A4
ENCODING 12452
SWIDTH 960 0
DWIDTH 16 0
BBX 16 16 0 -2
BITMAP
0000
0010
0010
0020
0040
0080
0380
0c80
3080
0080
0080
0080
0080
0080
0080
0000
ENDCHAR
STARTCHAR U30A5
ENCODING 12453
SWIDTH 960 0
DWIDTH 16 0
BBX 16 16 0 -2
BITMAP
0000
0000
0000
0000
0080
0080
0080
0ff8
0808
0808
0810
0010
0020
00c0
0300
0000
ENDCHAR
STARTCHAR U30A6
ENCODING 12454
SWIDTH 960 0
DWIDTH 16 0
BBX 16 16 0 -2
BITMAP
0000
0080
0080
0080
1ffc
1004
1004
1004
1004
0008
0008
0010
0020
00c0
0300
0000
ENDCHAR
STARTCHAR U30A7
ENCODING 12455
SWIDTH 960 0
DWIDTH 16 0
BBX 16 16 0 -2
BITMAP
0000
0000
0000
0000
0000
0000
0000
0000
0fe0
0100
0100
0100
0100
0100
1ff0
0000
ENDCHAR
STARTCHAR U30A8
ENCODING 12456
SWIDTH 960 0
DWIDTH 16 0
BBX 16 16 0 -2
BITMAP
0000
0000
0000
0000
1ff8
0080
0080
0080
0080
0080
0080
0080
7ffe
0000
0000
0000
ENDCHAR
STARTCHAR U30A9
ENCODING 12457
SWIDTH 960 0
DWIDTH 16 0
BBX 16 16 0 -2
BITMAP
0000
0000
0000
0000
0000
0040
0040
0040
0ff8
00c0
0140
0240
0440
0840
00c0
0000
ENDCHAR
STARTCHAR U30AA
ENCODING 12458
SWIDTH 960 0
DWIDTH 16 0
BBX 16 16 0 -2
BITMAP
0000
0020
0020
0020
1ffe
0020
0060
00a0
00a0
0120
0220
0420
1820
0020
00e0
0000
ENDCHAR
STARTCHAR U30AB
ENCODING 12459
SWIDTH 960 0
DWIDTH 16 0
BBX 16 16 0 -2
BITMAP
0000
0100
0100
0100
3ff8
0108
0108
0108
0108
0208
0208
0408
0808
1010
2060
0000
ENDCHAR
STARTCHAR U30AC
ENCODING 12460
SWIDTH 960 0
DWIDTH 16 0
BBX 16 16 0 -2
BITMAP
0000
0102
0109
0105
3ffc
0108
0108
0108
0108
0208
0208
0408
0808
1010
2060
0000
ENDCHAR
STARTCHAR U30AD
ENCODING 12461
SWIDTH 960 0
DWIDTH 16 0
BBX 16 16 0 -2
BITMAP
0000
0100
0100
0118
01e0
1e80
0080
008e
00f0
0340
3c40
0040
0040
0020
0020
0020
ENDCHAR
STARTCHAR U30AE
ENCODING 12462
SWIDTH 960 0
DWIDTH 16 0
BBX 16 16 0 -2
BITMAP
0000
0104
0112
011a
01e8
1e80
0080
008e
00f0
0340
3c40
0040
0040
0020
0020
0020
ENDCHAR
STARTCHAR U30AF
ENCODING 12463
SWIDTH 960 0
DWIDTH 16 0
BBX 16 16 0 -2
BITMAP
0000
0080
0080
01fc
0104
0208
0408
0810
1010
0020
0040
0080
0100
0600
1800
0000
ENDCHAR
STARTCHAR U30B0
ENCODING 12464
SWIDTH 960 0
DWIDTH 16 0
BBX 16 16 0 -2
BITMAP
0002
0109
0105
03f4
0210
0410
0820
1020
2040
0040
0080
0100
0200
0c00
3000
0000
ENDCHAR
STARTCHAR U30B1
ENCODING 12465
SWIDTH 960 0
DWIDTH 16 0
BBX 16 16 0 -2
BITMAP
0000
0400
0400
0400
07fe
0420
0820
0820
1020
2020
0040
0040
0080
0100
0600
0000
ENDCHAR
STARTCHAR U30B2
ENCODING 12466
SWIDTH 960 0
DWIDTH 16 0
BBX 16 16 0 -2
BITMAP
0000
0402
0409
0405
07fc
0420
0820
0820
1020
2020
0040
0040
0080
0100
0600
0000
ENDCHAR
STARTCHAR U30B3
ENCODING 12467
SWIDTH 960 0
DWIDTH 16 0
BBX 16 16 0 -2
BITMAP
0000
0000
0000
3ff8
0008
0008
0008
0008
0008
0008
0008
0008
3ff8
0008
0000
0000
ENDCHAR
STARTCHAR U30B4
ENCODING 12468
SWIDTH 960 0
DWIDTH 16 0
BBX 16 16 0 -2
BITMAP
0002
0009
0005
3ffc
0008
0008
0008
0008
0008
0008
0008
0008
3ff8
0008
0000
0000
ENDCHAR
STARTCHAR U30B5
ENCODING 12469
SWIDTH 960 0
DWIDTH 16 0
BBX 16 16 0 -2
BITMAP
0000
0410
0410
0410
0410
7ffe
0410
0410
0410
0410
0420
0020
0040
0080
0300
0000
ENDCHAR
STARTCHAR U30B6
ENCODING 12470
SWIDTH 960 0
DWIDTH 16 0
BBX 16 16 0 -2
BITMAP
0002
0419
0415
0414
0410
7ffe
0410
0410
0410
0410
0420
0020
0040
0080
0300
0000
ENDCHAR
STARTCHAR U30B7
ENCODING 12471
SWIDTH 960 0
DWIDTH 16 0
BBX 16 16 0 -2
BITMAP
0000
0000
0c00
0200
0000
0002
1802
0404
0004
0008
0010
0020
00c0
0300
1c00
0000
ENDCHAR
STARTCHAR U30B8
ENCODING 12472
SWIDTH 960 0
DWIDTH 16 0
BBX 16 16 0 -2
BITMAP
0000
0004
0c12
020a
0008
0002
1802
0404
0004
0008
0010
0020
00c0
0300
1c00
0000
ENDCHAR
STARTCHAR U30B9
ENCODING 12473
SWIDTH 960 0
DWIDTH 16 0
BBX 16 16 0 -2
BITMAP
0000
0000
0000
1fe0
0020
0020
0040
0040
0080
00c0
0120
0210
0408
1804
6004
0000
ENDCHAR
STARTCHAR U30BA
ENCODING 12474
SWIDTH 960 0
DWIDTH 16 0
BBX 16 16 0 -2
BITMAP
0000
0004
0012
1fea
0028
0020
0040
0040
0080
00c0
0120
0210
0408
1804
6004
0000
ENDCHAR
STARTCHAR U30BB
ENCODING 12475
SWIDTH 960 0
DWIDTH 16 0
BBX 16 16 0 -2
BITMAP
0000
0200
0200
0200
021e
03e2
3e04
0208
0210
0220
0200
0200
0100
00fc
0000
0000
ENDCHAR
STARTCHAR U30BC
ENCODING 12476
SWIDTH 960 0
DWIDTH 16 0
BBX 16 16 0 -2
BITMAP
0002
0209
0205
0204
021e
03e2
3e04
0208
0210
0220
0200
0200
0100
00fc
0000
0000
ENDCHAR
STARTCHAR U30BD
ENCODING 12477
SWIDTH 960 0
DWIDTH 16 0
BBX 16 16 0 -2
BITMAP
0000
0000
0004
1004
0804
0404
0408
0408
0010
0010
0020
0040
0080
0300
0c00
0000
ENDCHAR
STARTCHAR U30BE
ENCODING 12478
SWIDTH 960 0
DWIDTH 16 0
BBX 16 16 0 -2
BITMAP
0000
0004
0012
200a
1008
0808
0810
0810
0020
0020
0040
0080
0100
0600
1800
0000
ENDCHAR
STARTCHAR U30BF
ENCODING 12479
SWIDTH 960 0
DWIDTH 16 0
BBX 16 16 0 -2
BITMAP
0000
0100
0100
01fc
0204
0408
0808
3310
00d0
0020
0040
0080
0100
0600
3800
0000
ENDCHAR
STARTCHAR U30C0
ENCODING 12480
SWIDTH 960 0
DWIDTH 16 0
BBX 16 16 0 -2
BITMAP
0002
0109
0105
01fc
0204
0408
0808
3310
00d0
0020
0040
0080
0100
0600
3800
0000
ENDCHAR
STARTCHAR U30C1
ENCODING 12481
SWIDTH 960 0
DWIDTH 16 0
BBX 16 16 0 -2
BITMAP
0000
0010
00e0
1f80
0080
0080
0080
7ffc
0080
0080
0080
0100
0100
0200
0c00
0000
ENDCHAR
STARTCHAR U30C2
ENCODING 12482
SWIDTH 960 0
DWIDTH 16 0
BBX 16 16 0 -2
BITMAP
0004
0012
00ea
1f88
0080
0080
0080
7ffc
0080
0080
0080
0100
0100
0200
0c00
0000
ENDCHAR
STARTCHAR U30C3
ENCODING 12483
SWIDTH 960 0
DWIDTH 16 0
BBX 16 16 0 -2
BITMAP
0000
0000
0000
0000
0000
0000
0200
1110
0910
0810
0020
0020
0040
0080
0300
0000
ENDCHAR
STARTCHAR U30C4
ENCODING 12484
SWIDTH 960 0
DWIDTH 16 0
BBX 16 16 0 -2
BITMAP
0000
0000
0200
2104
1104
1104
1008
0008
0010
0010
0020
0040
0080
0300
0c00
0000
ENDCHAR
STARTCHAR U30C5
ENCODING 12485
SWIDTH 960 0
DWIDTH 16 0
BBX 16 16 0 -2
BITMAP
0002
0009
0205
2104
1108
1108
1008
0010
0010
0020
0020
0040
0080
0300
0c00
0000
ENDCHAR
STARTCHAR U30C6
ENCODING 12486
SWIDTH 960 0
DWIDTH 16 0
BBX 16 16 0 -2
BITMAP
0000
0000
0000
0ff8
0000
0000
0000
3ffe
0040
0040
0040
0080
0080
0100
0600
0000
ENDCHAR
STARTCHAR U30C7
ENCODING 12487
SWIDTH 960 0
DWIDTH 16 0
BBX 16 16 0 -2
BITMAP
0000
0004
0012
0fea
0008
0000
0000
3ffe
0040
0040
0040
0080
0080
0100
0600
0000
ENDCHAR
STARTCHAR U30C8
ENCODING 12488
SWIDTH 960 0
DWIDTH 16 0
BBX 16 16 0 -2
BITMAP
0000
0200
0200
0200
0200
0200
0200
0380
0260
0210
0208
0200
0200
0200
0200
0200
ENDCHAR
STARTCHAR U30C9
ENCODING 12489
SWIDTH 960 0
DWIDTH 16 0
BBX 16 16 0 -2
BITMAP
0000
0204
0212
020a
0208
0200
0200
0380
0260
0210
0208
0200
0200
0200
0200
0200
ENDCHAR
STARTCHAR U30CA
ENCODING 12490
SWIDTH 960 0
DWIDTH 16 0
BBX 16 16 0 -2
BITMAP
0000
0040
0040
0040
0040
3ffe
0040
0040
0040
0040
0040
0080
0080
0300
0c00
0000
ENDCHAR
STARTCHAR U30CB
ENCODING 12491
SWIDTH 960 0
DWIDTH 16 0
BBX 16 16 0 -2
BITMAP
0000
0000
0000
0000
1ff8
0000
0000
0000
0000
0000
0000
7ffe
0000
0000
0000
0000
ENDCHAR
STARTCHAR U30CC
ENCODING 12492
SWIDTH 960 0
DWIDTH 16 0
BBX 16 16 0 -2
BITMAP
0000
0000
0000
0ff8
0008
0010
0010
0620
01a0
0040
00a0
0110
0208
0c04
3000
0000
ENDCHAR
STARTCHAR U30CD
ENCODING 12493
SWIDTH 960 0
DWIDTH 16 0
BBX 16 16 0 -2
BITMAP
0080
0080
0080
1ff8
0008
0010
0020
0040
01b0
068c
3882
0080
0080
0080
0080
0000
ENDCHAR
STARTCHAR U30CE
ENCODING 12494
SWIDTH 960 0
DWIDTH 16 0
BBX 16 16 0 -2
BITMAP
0000
0008
0008
0008
0008
0010
0010
0020
0020
0040
0080
0100
0200
0c00
3000
0000
ENDCHAR
STARTCHAR U30CF
ENCODING 12495
SWIDTH 960 0
DWIDTH 16 0
BBX 16 16 0 -2
BITMAP
0000
0000
0000
0440
0420
0410
0410
0808
0808
0804
1004
1002
2002
4002
0000
0000
ENDCHAR
STARTCHAR U30D0
ENCODING 12496
SWIDTH 960 0
DWIDTH 16 0
BBX 16 16 0 -2
BITMAP
0000
0004
0012
044a
0428
0410
0410
0808
0808
0804
1004
1002
2002
4002
0000
0000
ENDCHAR
STARTCHAR U30D1
ENCODING 12497
SWIDTH 960 0
DWIDTH 16 0
BBX 16 16 0 -2
BITMAP
000c
0012
0012
044c
0420
0410
0410
0808
0808
0804
1004
1002
2002
4002
0000
0000
ENDCHAR
STARTCHAR U30D2
ENCODING 12498
SWIDTH 960 0
DWIDTH 16 0
BBX 16 16 0 -2
BITMAP
0000
1000
1000
1000
1000
1030
11c0
1e00
1000
1000
1000
1000
0800
07f8
0000
0000
ENDCHAR
STARTCHAR U30D3
ENCODING 12499
SWIDTH 960 0
DWIDTH 16 0
BBX 16 16 0 -2
BITMAP
0000
1004
1012
100a
1008
1030
11c0
1e00
1000
1000
1000
1000
0800
07f8
0000
0000
ENDCHAR
STARTCHAR U30D4
ENCODING 12500
SWIDTH 960 0
DWIDTH 16 0
BBX 16 16 0 -2
BITMAP
0000
200c
2012
2012
200c
2060
2380
3c00
2000
2000
2000
2000
1000
0ff0
0000
0000
ENDCHAR
STARTCHAR U30D5
ENCODING 12501
SWIDTH 960 0
DWIDTH 16 0
BBX 16 16 0 -2
BITMAP
0000
0000
0000
3ffc
0004
0004
0008
0008
0010
0010
0020
0040
0080
0300
0c00
0000
ENDCHAR
STARTCHAR U30D6
ENCODING 12502
SWIDTH 960 0
DWIDTH 16 0
BBX 16 16 0 -2
BITMAP
0004
0012
000a
3ff8
0008
0008
0010
0010
0020
0020
0040
0080
0100
0600
1800
0000
ENDCHAR
STARTCHAR U30D7
ENCODING 12503
SWIDTH 960 0
DWIDTH 16 0
BBX 16 16 0 -2
BITMAP
0000
0006
0009
3ff9
000e
0008
0010
0010
0020
0020
0040
0080
0100
0600
1800
0000
ENDCHAR
STARTCHAR U30D8
ENCODING 12504
SWIDTH 960 0
DWIDTH 16 0
BBX 16 16 0 -2
BITMAP
0000
0000
0000
0000
0300
0480
0840
1020
2010
4008
0004
0002
0000
0000
0000
0000
ENDCHAR
STARTCHAR U30D9
ENCODING 12505
SWIDTH 960 0
DWIDTH 16 0
BBX 16 16 0 -2
BITMAP
0000
0000
0004
0012
030a
0488
0840
1020
2010
4008
0004
0002
0000
0000
0000
0000
ENDCHAR
STARTCHAR U30DA
ENCODING 12506
SWIDTH 960 0
DWIDTH 16 0
BBX 16 16 0 -2
BITMAP
0000
0018
0024
0024
0318
0480
0840
1020
2010
4008
0004
0002
0000
0000
0000
0000
ENDCHAR
STARTCHAR U30DB
ENCODING 12507
SWIDTH 960 0
DWIDTH 16 0
BBX 16 16 0 -2
BITMAP
0000
0080
0080
0080
3ffe
0080
0080
0490
0488
0484
0884
0882
1082
2080
0180
0000
ENDCHAR
STARTCHAR U30DC
ENCODING 12508
SWIDTH 960 0
DWIDTH 16 0
BBX 16 16 0 -2
BITMAP
0000
0082
0089
0085
3ffc
0080
0080
0490
0488
0484
0884
0882
1082
2080
0180
0000
ENDCHAR
STARTCHAR U30DD
ENCODING 12509
SWIDTH 960 0
DWIDTH 16 0
BBX 16 16 0 -2
BITMAP
0000
0086
0089
0089
3ffe
0080
0080
0490
0488
0484
0884
0882
1082
2080
0180
0000
ENDCHAR
STARTCHAR U30DE
ENCODING 12510
SWIDTH 960 0
DWIDTH 16 0
BBX 16 16 0 -2
BITMAP
0000
0000
0000
3ffe
0004
0004
0008
0010
0c20
0340
0080
0040
0020
0020
0000
0000
ENDCHAR
STARTCHAR U30DF
ENCODING 12511
SWIDTH 960 0
DWIDTH 16 0
BBX 16 16 0 -2
BITMAP
0000
0600
0180
0060
0010
0000
0600
0180
0040
0020
1000
0c00
0300
00c0
0020
0010
ENDCHAR
STARTCHAR U30E0
ENCODING 12512
SWIDTH 960 0
DWIDTH 16 0
BBX 16 16 0 -2
BITMAP
0000
0100
0100
0100
0100
0100
0200
0220
0210
0410
0408
09f8
3e04
0004
0004
0000
ENDCHAR
STARTCHAR U30E1
ENCODING 12513
SWIDTH 960 0
DWIDTH 16 0
BBX 16 16 0 -2
BITMAP
0000
0008
0008
0008
0008
0610
0190
0050
0020
0030
0048
0084
0100
0600
1800
0000
ENDCHAR
STARTCHAR U30E2
ENCODING 12514
SWIDTH 960 0
DWIDTH 16 0
BBX 16 16 0 -2
BITMAP
0000
0000
1ff0
0200
0200
0200
0200
7ffc
0200
0200
0200
0200
0100
00f8
0000
0000
ENDCHAR
STARTCHAR U30E3
ENCODING 12515
SWIDTH 960 0
DWIDTH 16 0
BBX 16 16 0 -2
BITMAP
0000
0000
0000
0000
0000
0200
0200
0138
01c8
0710
1920
0080
0080
0040
0040
0040
ENDCHAR
STARTCHAR U30E4
ENCODING 12516
SWIDTH 960 0
DWIDTH 16 0
BBX 16 16 0 -2
BITMAP
0000
0400
0400
020e
0272
0784
3a08
0110
0120
0080
0080
0080
0040
0040
0040
0000
ENDCHAR
STARTCHAR U30E5
ENCODING 12517
SWIDTH 960 0
DWIDTH 16 0
BBX 16 16 0 -2
BITMAP
0000
0000
0000
0000
0000
0000
0000
0000
0fc0
0040
0040
0040
0040
3ff8
0000
0000
ENDCHAR
STARTCHAR U30E6
ENCODING 12518
SWIDTH 960 0
DWIDTH 16 0
BBX 16 16 0 -2
BITMAP
0000
0000
0000
0000
1fe0
0020
0020
0020
0020
0020
0020
0020
7ffe
0000
0000
0000
ENDCHAR
STARTCHAR U30E7
ENCODING 12519
SWIDTH 960 0
DWIDTH 16 0
BBX 16 16 0 -2
BITMAP
0000
0000
0000
0000
0000
0000
07f0
0010
0010
0010
07f0
0010
0010
0010
07f0
0000
ENDCHAR
STARTCHAR U30E8
ENCODING 12520
SWIDTH 960 0
DWIDTH 16 0
BBX 16 16 0 -2
BITMAP
0000
0000
1ff8
0008
0008
0008
0008
1ff8
0008
0008
0008
0008
0008
1ff8
0008
0000
ENDCHAR
STARTCHAR U30E9
ENCODING 12521
SWIDTH 960 0
DWIDTH 16 0
BBX 16 16 0 -2
BITMAP
0000
0000
1ff8
0000
0000
0000
3ffc
0004
0004
0008
0008
0010
0060
0180
0e00
0000
ENDCHAR
STARTCHAR U30EA
ENCODING 12522
SWIDTH 960 0
DWIDTH 16 0
BBX 16 16 0 -2
BITMAP
0000
0810
0810
0810
0810
0810
0810
0810
0810
0010
0020
0020
0040
0080
0300
0000
ENDCHAR
STARTCHAR U30EB
ENCODING 12523
SWIDTH 960 0
DWIDTH 16 0
BBX 16 16 0 -2
BITMAP
0000
0040
0040
0440
0440
0440
0441
0441
0442
0442
0444
0848
0850
1060
2000
0000
ENDCHAR
STARTCHAR U30EC
ENCODING 12524
SWIDTH 960 0
DWIDTH 16 0
BBX 16 16 0 -2
BITMAP
0000
0400
0400
0400
0400
0400
0400
0400
0404
0404
0408
0410
0420
04c0
0700
0000
ENDCHAR
STARTCHAR U30ED
ENCODING 12525
SWIDTH 960 0
DWIDTH 16 0
BBX 16 16 0 -2
BITMAP
0000
0000
0000
1ffc
1004
1004
1004
1004
1004
1004
1004
1004
1ffc
1004
0000
0000
ENDCHAR
STARTCHAR U30EE
ENCODING 12526
SWIDTH 960 0
DWIDTH 16 0
BBX 16 16 0 -2
BITMAP
0000
0000
0000
0000
0000
0000
0ff8
0808
0808
0808
0010
0010
0020
0040
0180
0000
ENDCHAR
STARTCHAR U30EF
ENCODING 12527
SWIDTH 960 0
DWIDTH 16 0
BBX 16 16 0 -2
BITMAP
0000
0000
0000
3ff8
2008
2008
2008
2008
0008
0010
0010
0020
0040
0180
0600
0000
ENDCHAR
STARTCHAR U30F0
ENCODING 12528
SWIDTH 960 0
DWIDTH 16 0
BBX 16 16 0 -2
BITMAP
0000
0040
0040
0040
3ffc
0840
0840
0840
0840
0840
7ffe
0040
0040
0040
0040
0000
ENDCHAR
STARTCHAR U30F1
ENCODING 12529
SWIDTH 960 0
DWIDTH 16 0
BBX 16 16 0 -2
BITMAP
0000
0000
0000
1ff8
0010
0020
0140
0100
0100
0100
0100
0100
7ffc
0000
0000
0000
ENDCHAR
STARTCHAR U30F2
ENCODING 12530
SWIDTH 960 0
DWIDTH 16 0
BBX 16 16 0 -2
BITMAP
0000
0000
0ffc
0004
0004
0004
07fc
0008
0008
0010
0020
0040
0180
0e00
0000
0000
ENDCHAR
STARTCHAR U30F3
ENCODING 12531
SWIDTH 960 0
DWIDTH 16 0
BBX 16 16 0 -2
BITMAP
0000
0000
0000
1800
0400
0202
0002
0004
0004
0008
0010
0020
00c0
0300
1c00
0000
ENDCHAR
STARTCHAR U30F4
ENCODING 12532
SWIDTH 960 0
DWIDTH 16 0
BBX 16 16 0 -2
BITMAP
0080
0082
0089
0085
1ffc
1004
1004
1004
1004
0008
0008
0010
0020
00c0
0300
0000
ENDCHAR
STARTCHAR U30F5
ENCODING 12533
SWIDTH 960 0
DWIDTH 16 0
BBX 16 16 0 -2
BITMAP
0000
0000
0000
0000
0100
0100
0100
1ff0
0110
0110
0110
0210
0210
0410
0860
0000
ENDCHAR
STARTCHAR U30F6
ENCODING 12534
SWIDTH 960 0
DWIDTH 16 0
BBX 16 16 0 -2
BITMAP
0000
0000
0000
0000
0200
0200
0200
07fc
0420
0820
1040
0040
0080
0100
0600
0000
ENDCHAR
STARTCHAR U30FB
ENCODING 12539
SWIDTH 960 0
DWIDTH 16 0
BBX 16 16 0 -2
BITMAP
0000
0000
0000
0000
0000
0000
0000
0180
0180
0000
0000
0000
0000
0000
0000
0000
ENDCHAR
STARTCHAR U30FC
ENCODING 12540
SWIDTH 960 0
DWIDTH 16 0
BBX 16 16 0 -2
BITMAP
0000
0000
0000
0000
0000
0000
4000
3ffc
0000
0000
0000
0000
0000
0000
0000
0000
ENDCHAR
STARTCHAR U30FD
ENCODING 12541
SWIDTH 960 0
DWIDTH 16 0
BBX 16 16 0 -2
BITMAP
0000
0000
0000
0000
0000
0c00
0300
0080
0040
0020
0010
0000
0000
0000
0000
0000
ENDCHAR
STARTCHAR U30FE
ENCODING 12542
SWIDTH 960 0
DWIDTH 16 0
BBX 16 16 0 -2
BITMAP
0000
0000
0020
0090
0050
0c40
0300
0080
0040
0020
0010
0000
0000
0000
0000
0000
ENDCHAR
STARTCHAR U4E00
ENCODING 19968
SWIDTH 960 0
DWIDTH 16 0
BBX 16 16 0 -2
BITMAP
0000
0000
0000
0000
0000
0000
0002
7fff
0000
0000
0000
0000
0000
0000
0000
0000
ENDCHAR
STARTCHAR U4E01
ENCODING 19969
SWIDTH 960 0
DWIDTH 16 0
BBX 16 16 0 -2
BITMAP
0000
0000
7fff
0080
0080
0080
0080
0080
0080
0080
0080
0080
0080
0080
0080
0180
ENDCHAR
STARTCHAR U4E03
ENCODING 19971
SWIDTH 960 0
DWIDTH 16 0
BBX 16 16 0 -2
BITMAP
0400
0400
0400
0400
0406
0478
0780
7c00
0400
0400
0400
0404
0404
0204
01fc
0000
ENDCHAR
STARTCHAR U4E07
ENCODING 19975
SWIDTH 960 0
DWIDTH 16 0
BBX 16 16 0 -2
BITMAP
0000
7ffe
0100
0100
0100
01f8
0108
0108
0208
0208
0208
0408
0408
0808
1010
2060
ENDCHAR
STARTCHAR U4E08
ENCODING 19976
SWIDTH 960 0
DWIDTH 16 0
BBX 16 16 0 -2
BITMAP
0040
0040
0040
3fff
0040
0440
0440
0240
0280
0180
0080
0140
0220
0410
180c
6003
ENDCHAR
STARTCHAR U4E09
ENCODING 19977
SWIDTH 960 0
DWIDTH 16 0
BBX 16 16 0 -2
BITMAP
0000
1ffc
0000
0000
0000
0000
0000
0ff8
0000
0000
0000
0000
0000
7fff
0000
0000
ENDCHAR
STARTCHAR U4E0A
ENCODING 19978
SWIDTH 960 0
DWIDTH 16 0
BBX 16 16 0 -2
BITMAP
0080
0080
0080
0080
0080
0080
00fc
0080
0080
0080
0080
0080
0080
0080
7fff
0000
ENDCHAR
STARTCHAR U4E0B
ENCODING 19979
SWIDTH 960 0
DWIDTH 16 0
BBX 16 16 0 -2
BITMAP
0000
7fff
0080
0080
0080
00c0
00a0
0090
0088
0088
0080
0080
0080
0080
0080
0080
ENDCHAR
STARTCHAR U4E0D
ENCODING 19981
SWIDTH 960 0
DWIDTH 16 0
BBX 16 16 0 -2
BITMAP
0000
7fff
0040
0040
0080
00c0
01b0
0288
0484
1882
6081
0080
0080
0080
0080
0080
ENDCHAR
STARTCHAR U4E0E
ENCODING 19982
SWIDTH 960 0
DWIDTH 16 0
BBX 16 16 0 -2
BITMAP
0200
0200
03fc
0200
0200
03f0
0010
0010
7fff
0010
0010
0010
0010
0010
0060
0180
ENDCHAR
STARTCHAR U4E10
ENCODING 19984
SWIDTH 960 0
DWIDTH 16 0
BBX 16 16 0 -2
BITMAP
0000
7fff
0080
0880
08fe
0880
0880
0ffc
0004
0004
0004
0004
0004
0008
0008
0030
ENDCHAR
STARTCHAR U4E11
ENCODING 19985
SWIDTH 960 0
DWIDTH 16 0
BBX 16 16 0 -2
BITMAP
0000
1ff0
0210
0210
0210
0210
0210
7ffe
0410
0410
0410
0410
0410
0410
7fff
0000
ENDCHAR
STARTCHAR U4E14
ENCODING 19988
SWIDTH 960 0
DWIDTH 16 0
BBX 16 16 0 -2
BITMAP
0000
0ff0
0810
0810
0810
0ff0
0810
0810
0810
0ff0
0810
0810
0810
0810
7ffe
0000
ENDCHAR
STARTCHAR U4E15
ENCODING 19989
SWIDTH 960 0
DWIDTH 16 0
BBX 16 16 0 -2
BITMAP
0000
3ffe
0040
0040
0080
0180
02b0
048c
1882
6081
0080
0080
0080
0000
3ffe
0000
ENDCHAR
STARTCHAR U4E16
ENCODING 19990
SWIDTH 960 0
DWIDTH 16 0
BBX 16 16 0 -2
BITMAP
0000
0888
0888
0888
0888
7fff
0888
0888
0888
0888
08f8
0800
0800
0800
0ffe
0000
ENDCHAR
STARTCHAR U4E17
ENCODING 19991
SWIDTH 960 0
DWIDTH 16 0
BBX 16 16 0 -2
BITMAP
0888
0888
0888
0888
0888
0888
7fff
0888
0888
0888
0888
0888
0888
0888
0ff8
0000
ENDCHAR
STARTCHAR U4E18
ENCODING 19992
SWIDTH 960 0
DWIDTH 16 0
BBX 16 16 0 -2
BITMAP
0010
00e0
0f00
0800
0800
0800
0ffc
0820
0820
0820
0820
0820
0820
0820
7ffe
0000
ENDCHAR
STARTCHAR U4E19
ENCODING 19993
SWIDTH 960 0
DWIDTH 16 0
BBX 16 16 0 -2
BITMAP
0000
7fff
0080
0080
1ffc
1084
1084
1144
1224
1c14
1004
1004
1004
1004
1004
100c
ENDCHAR
STARTCHAR U4E1E
ENCODING 19998
SWIDTH 960 0
DWIDTH 16 0
BBX 16 16 0 -2
BITMAP
0000
1ff8
0010
0060
0082
3ea2
02a4
0498
0488
0884
1082
2081
4180
0000
7ffe
0000
ENDCHAR
STARTCHAR U4E21
ENCODING 20001
SWIDTH 960 0
DWIDTH 16 0
BBX 16 16 0 -2
BITMAP
0000
7fff
0080
0080
0080
3ffe
2082
2492
2492
2492
2492
27f2
2412
2002
2002
2006
ENDCHAR
STARTCHAR U4E26
ENCODING 20006
SWIDTH 960 0
DWIDTH 16 0
BBX 16 16 0 -2
BITMAP
0808
0408
0210
0220
3ffe
0220
0220
2222
1222
1224
0a24
0a28
0220
0220
7fff
0000
ENDCHAR
STARTCHAR U4E2A
ENCODING 20010
SWIDTH 960 0
DWIDTH 16 0
BBX 16 16 0 -2
BITMAP
0080
0080
0140
0140
0220
0410
0888
1084
2082
4081
0080
0080
0080
0080
0080
0080
ENDCHAR
STARTCHAR U4E2D
ENCODING 20013
SWIDTH 960 0
DWIDTH 16 0
BBX 16 16 0 -2
BITMAP
0080
0080
0080
3ffe
2082
2082
2082
2082
2082
3ffe
0080
0080
0080
0080
0080
0080
ENDCHAR
STARTCHAR U4E31
ENCODING 20017
SWIDTH 960 0
DWIDTH 16 0
BBX 16 16 0 -2
BITMAP
0220
0220
2222
2222
2222
2222
2222
2222
2222
2222
3e3e
0220
0420
0420
0820
1020
ENDCHAR
STARTCHAR U4E32
ENCODING 20018
SWIDTH 960 0
DWIDTH 16 0
BBX 16 16 0 -2
BITMAP
0080
0080
1ffc
1084
1084
1ffc
0080
0080
3ffe
2082
2082
3ffe
0080
0080
0080
0080
ENDCHAR
STARTCHAR U4E36
ENCODING 20022
SWIDTH 960 0
DWIDTH 16 0
BBX 16 16 0 -2
BITMAP
0000
0000
0000
0c00
0300
0080
0040
0020
0020
0010
0010
0000
0000
0000
0000
0000
ENDCHAR
STARTCHAR U4E38
ENCODING 20024
SWIDTH 960 0
DWIDTH 16 0
BBX 16 16 0 -2
BITMAP
0200
0200
0200
0200
7ff0
0210
0210
0a10
0610
0210
0510
0490
0892
1012
2012
400e
ENDCHAR
STARTCHAR U4E39
ENCODING 20025
SWIDTH 960 0
DWIDTH 16 0
BBX 16 16 0 -2
BITMAP
0000
0ff8
0808
0a08
0908
0888
0888
0808
7fff
0808
0808
0808
1008
1008
2008
4018
ENDCHAR
STARTCHAR U4E3B
ENCODING 20027
SWIDTH 960 0
DWIDTH 16 0
BBX 16 16 0 -2
BITMAP
0100
0080
0080
3ffe
0080
0080
0080
0080
1ffc
0080
0080
0080
0080
0080
7fff
0000
ENDCHAR
STARTCHAR U4E3C
ENCODING 20028
SWIDTH 960 0
DWIDTH 16 0
BBX 16 16 0 -2
BITMAP
0420
0420
0420
0420
3ffc
0420
0520
04a0
04a0
7ffe
0420
0420
0420
0820
0820
1020
ENDCHAR
STARTCHAR U4E3F
ENCODING 20031
SWIDTH 960 0
DWIDTH 16 0
BBX 16 16 0 -2
BITMAP
0040
0040
0040
0040
0040
0040
0040
0040
0040
0040
0080
0080
0100
0200
0c00
3000
ENDCHAR
STARTCHAR U4E42
ENCODING 20034
SWIDTH 960 0
DWIDTH 16 0
BBX 16 16 0 -2
BITMAP
0000
0410
0410
0410
0410
0410
0220
0220
0140
0140
0080
0140
0220
0410
180c
6003
ENDCHAR
STARTCHAR U4E43
ENCODING 20035
SWIDTH 960 0
DWIDTH 16 0
BBX 16 16 0 -2
BITMAP
0000
3ff0
0110
0110
0110
0110
011c
0204
0204
0404
0404
0804
1004
2008
4030
0000
ENDCHAR
STARTCHAR U4E45
ENCODING 20037
SWIDTH 960 0
DWIDTH 16 0
BBX 16 16 0 -2
BITMAP
0100
0100
01f0
0210
0210
0420
0820
1040
0040
00c0
00a0
0120
0210
0408
1804
6003
ENDCHAR
STARTCHAR U4E4B
ENCODING 20043
SWIDTH 960 0
DWIDTH 16 0
BBX 16 16 0 -2
BITMAP
0080
0080
0080
0080
1ffc
0008
0010
0010
0020
0040
0880
0900
0e00
1200
2180
407f
ENDCHAR
STARTCHAR U4E4D
ENCODING 20045
SWIDTH 960 0
DWIDTH 16 0
BBX 16 16 0 -2
BITMAP
0400
0400
0400
07fe
0880
0880
1080
20fc
4080
0080
0080
00fc
0080
0080
0080
0080
ENDCHAR
STARTCHAR U4E4E
ENCODING 20046
SWIDTH 960 0
DWIDTH 16 0
BBX 16 16 0 -2
BITMAP
0004
0038
3fc0
0084
0884
0488
0490
0080
7fff
0080
0080
0080
0080
0080
0080
0180
ENDCHAR
STARTCHAR U4E4F
ENCODING 20047
SWIDTH 960 0
DWIDTH 16 0
BBX 16 16 0 -2
BITMAP
0004
0038
7fc0
0100
0100
0100
3ff8
0008
0010
0020
0840
0980
1e00
1200
2180
407f
ENDCHAR
STARTCHAR U4E55
ENCODING 20053
SWIDTH 960 0
DWIDTH 16 0
BBX 16 16 0 -2
BITMAP
0004
0038
0fc0
0840
0fff
0840
0840
0fff
0840
0840
17fe
1442
2442
4442
044c
0040
ENDCHAR
STARTCHAR U4E56
ENCODING 20054
SWIDTH 960 0
DWIDTH 16 0
BBX 16 16 0 -2
BITMAP
0008
0070
1f80
0080
0080
7fff
0080
0490
0493
7c9c
0490
0491
1c91
648f
0480
0080
ENDCHAR
STARTCHAR U4E57
ENCODING 20055
SWIDTH 960 0
DWIDTH 16 0
BBX 16 16 0 -2
BITMAP
0010
0fe0
0080
3ffe
0888
0888
7fff
0888
0888
3ffe
01c0
02a0
0490
188c
6083
0080
ENDCHAR
STARTCHAR U4E58
ENCODING 20056
SWIDTH 960 0
DWIDTH 16 0
BBX 16 16 0 -2
BITMAP
0008
0070
1f80
0080
7fff
0080
0492
7c9c
0491
1c91
65cf
02a0
0490
188c
6083
0080
ENDCHAR
STARTCHAR U4E59
ENCODING 20057
SWIDTH 960 0
DWIDTH 16 0
BBX 16 16 0 -2
BITMAP
0000
1ff8
0010
0060
0080
0100
0200
0400
0800
1000
1000
2004
2004
2004
1ffc
0000
ENDCHAR
STARTCHAR U4E5D
ENCODING 20061
SWIDTH 960 0
DWIDTH 16 0
BBX 16 16 0 -2
BITMAP
0000
0200
0200
0200
7fe0
0220
0220
0220
0220
0420
0420
0420
0822
1022
201e
4000
ENDCHAR
STARTCHAR U4E5E
ENCODING 20062
SWIDTH 960 0
DWIDTH 16 0
BBX 16 16 0 -2
BITMAP
0400
0400
0400
0ffe
0800
1000
2ff0
4040
0180
0200
0400
0800
1000
1004
1004
0ffc
ENDCHAR
STARTCHAR U4E5F
ENCODING 20063
SWIDTH 960 0
DWIDTH 16 0
BBX 16 16 0 -2
BITMAP
0080
0880
0880
0898
08e8
0f88
7888
0888
0888
0888
08b0
0882
0802
0402
03fe
0000
ENDCHAR
STARTCHAR U4E62
ENCODING 20066
SWIDTH 960 0
DWIDTH 16 0
BBX 16 16 0 -2
BITMAP
0840
0840
0840
2940
2940
2940
2940
2940
2940
2940
2940
2941
3f41
0041
003f
0000
ENDCHAR
STARTCHAR U4E71
ENCODING 20081
SWIDTH 960 0
DWIDTH 16 0
BBX 16 16 0 -2
BITMAP
0120
0620
3820
0820
0820
0820
7fa0
0820
0820
0820
3f20
2120
2121
2121
3f21
001f
ENDCHAR
STARTCHAR U4E73
ENCODING 20083
SWIDTH 960 0
DWIDTH 16 0
BBX 16 16 0 -2
BITMAP
00a0
0720
78a0
24a0
1520
1220
3fa0
0120
0220
0420
07e0
7c20
0420
0421
0411
0c0f
ENDCHAR
STARTCHAR U4E7E
ENCODING 20094
SWIDTH 960 0
DWIDTH 16 0
BBX 16 16 0 -2
BITMAP
0840
0840
7f40
087f
3e40
2280
22fc
3f04
2208
2210
3e20
0820
7fc2
0842
0842
083e
ENDCHAR
STARTCHAR U4E80
ENCODING 20096
SWIDTH 960 0
DWIDTH 16 0
BBX 16 16 0 -2
BITMAP
0200
07f0
0820
1ff8
6888
0ff8
0888
0ff8
0080
1ffc
1084
1ffc
1084
1ffd
0081
007f
ENDCHAR
STARTCHAR U4E82
ENCODING 20098
SWIDTH 960 0
DWIDTH 16 0
BBX 16 16 0 -2
BITMAP
0110
0610
7c90
1250
2250
7fd0
1110
0a10
3fd0
2550
3ed0
2051
2f51
2551
224f
2dc0
ENDCHAR
STARTCHAR U4E85
ENCODING 20101
SWIDTH 960 0
DWIDTH 16 0
BBX 16 16 0 -2
BITMAP
0100
0100
0100
0100
0100
0100
0100
0100
0100
0100
0100
0100
0100
0100
0100
0300
ENDCHAR
STARTCHAR U4E86
ENCODING 20102
SWIDTH 960 0
DWIDTH 16 0
BBX 16 16 0 -2
BITMAP
0000
3ffc
0008
0010
0020
00c0
0080
0080
0080
0080
0080
0080
0080
0080
0080
0180
ENDCHAR
STARTCHAR U4E88
ENCODING 20104
SWIDTH 960 0
DWIDTH 16 0
BBX 16 16 0 -2
BITMAP
0000
1ff8
0010
0620
0140
0080
7ffe
0082
0084
0088
0080
0080
0080
0080
0080
0180
ENDCHAR
STARTCHAR U4E89
ENCODING 20105
SWIDTH 960 0
DWIDTH 16 0
BBX 16 16 0 -2
BITMAP
0100
01e0
0220
0440
1880
1ff8
0088
0088
7fff
0088
0088
1ff8
0080
0080
0080
0180
ENDCHAR
STARTCHAR U4E8A
ENCODING 20106
SWIDTH 960 0
DWIDTH 16 0
BBX 16 16 0 -2
BITMAP
0080
0080
3ffe
0888
0490
0480
1ffc
0084
0084
7fff
0084
0084
1ffc
0080
0080
0180
ENDCHAR
STARTCHAR U4E8B
ENCODING 20107
SWIDTH 960 0
DWIDTH 16 0
BBX 16 16 0 -2
BITMAP
0080
0080
7fff
0080
0ff8
0888
0ff8
0080
1ffc
0084
7fff
0084
1ffc
0080
0080
0180
ENDCHAR
STARTCHAR U4E8C
ENCODING 20108
SWIDTH 960 0
DWIDTH 16 0
BBX 16 16 0 -2
BITMAP
0000
0000
1ffc
0000
0000
0000
0000
0000
0000
0000
0000
0000
0000
7fff
0000
0000
ENDCHAR
STARTCHAR U4E8E
ENCODING 20110
SWIDTH 960 0
DWIDTH 16 0
BBX 16 16 0 -2
BITMAP
0000
1ffc
0080
0080
0080
0080
0080
7fff
0080
0080
0080
0080
0080
0080
0080
0180
ENDCHAR
STARTCHAR U4E91
ENCODING 20113
SWIDTH 960 0
DWIDTH 16 0
BBX 16 16 0 -2
BITMAP
0000
0000
1ff8
0000
0000
0000
7ffe
0100
0100
0220
0210
0408
08f8
7f04
0004
0004
ENDCHAR
STARTCHAR U4E92
ENCODING 20114
SWIDTH 960 0
DWIDTH 16 0
BBX 16 16 0 -2
BITMAP
0000
3ffe
0200
0200
0200
03f0
0410
0410
0410
0810
0fe0
0020
0020
0020
7fff
0000
ENDCHAR
STARTCHAR U4E94
ENCODING 20116
SWIDTH 960 0
DWIDTH 16 0
BBX 16 16 0 -2
BITMAP
0000
3ffe
0080
0080
0080
0080
1ff8
0108
0108
0108
0108
0208
0208
0208
7fff
0000
ENDCHAR
STARTCHAR U4E95
ENCODING 20117
SWIDTH 960 0
DWIDTH 16 0
BBX 16 16 0 -2
BITMAP
0420
0420
0420
0420
3ffc
0420
0420
0420
0420
7ffe
0420
0420
0420
0820
0820
1020
ENDCHAR
STARTCHAR U4E98
ENCODING 20120
SWIDTH 960 0
DWIDTH 16 0
BBX 16 16 0 -2
BITMAP
0000
3ffc
0000
0000
0ff0
0810
0810
0ff0
0810
0810
0810
0ff0
0000
0000
7ffe
0000
ENDCHAR
STARTCHAR U4E99
ENCODING 20121
SWIDTH 960 0
DWIDTH 16 0
BBX 16 16 0 -2
BITMAP
0000
3ffe
0200
0200
03f0
0210
0590
0450
0410
0b20
08a0
0820
0020
0020
7fff
0000
ENDCHAR
STARTCHAR U4E9B
ENCODING 20123
SWIDTH 960 0
DWIDTH 16 0
BBX 16 16 0 -2
BITMAP
0440
0440
1444
1778
1440
1440
1442
1742
183e
6000
0ff8
0000
0000
0000
7fff
0000
ENDCHAR
STARTCHAR U4E9C
ENCODING 20124
SWIDTH 960 0
DWIDTH 16 0
BBX 16 16 0 -2
BITMAP
0000
3fff
0220
0220
0220
1ffc
1224
1224
1224
1224
1ffc
0220
0220
0220
7fff
0000
ENDCHAR
STARTCHAR U4E9E
ENCODING 20126
SWIDTH 960 0
DWIDTH 16 0
BBX 16 16 0 -2
BITMAP
0000
7fff
0220
0220
0220
3e3e
2002
2002
2002
2002
3e3e
0220
0220
0220
7fff
0000
ENDCHAR
STARTCHAR U4E9F
ENCODING 20127
SWIDTH 960 0
DWIDTH 16 0
BBX 16 16 0 -2
BITMAP
0000
3ffe
0100
0100
03c0
007e
3e42
2254
224c
3e4c
2252
00a1
0300
0000
7fff
0000
ENDCHAR
STARTCHAR U4EA0
ENCODING 20128
SWIDTH 960 0
DWIDTH 16 0
BBX 16 16 0 -2
BITMAP
0000
0000
0000
0080
0080
0080
0080
7fff
0000
0000
0000
0000
0000
0000
0000
0000
ENDCHAR
STARTCHAR U4EA1
ENCODING 20129
SWIDTH 960 0
DWIDTH 16 0
BBX 16 16 0 -2
BITMAP
0080
0080
0080
7fff
0800
0800
0800
0800
0800
0800
0800
0800
0800
0400
03fc
0000
ENDCHAR
STARTCHAR U4EA2
ENCODING 20130
SWIDTH 960 0
DWIDTH 16 0
BBX 16 16 0 -2
BITMAP
0080
0080
0080
7ffe
0000
0000
03e0
0220
0220
0220
0220
0220
0422
0422
0822
301e
ENDCHAR
STARTCHAR U4EA4
ENCODING 20132
SWIDTH 960 0
DWIDTH 16 0
BBX 16 16 0 -2
BITMAP
0080
0080
0080
7fff
0420
0410
0828
0a28
1224
2144
0140
0080
0140
0220
0c18
7007
ENDCHAR
STARTCHAR U4EA5
ENCODING 20133
SWIDTH 960 0
DWIDTH 16 0
BBX 16 16 0 -2
BITMAP
0080
0080
0080
7fff
0100
0110
1a20
0440
0288
0110
0620
1860
0090
0308
0c04
7004
ENDCHAR
STARTCHAR U4EA6
ENCODING 20134
SWIDTH 960 0
DWIDTH 16 0
BBX 16 16 0 -2
BITMAP
0080
0080
0080
7fff
0220
0220
0a28
0a24
0a24
1222
2222
4222
0420
0420
0820
1060
ENDCHAR
STARTCHAR U4EA8
ENCODING 20136
SWIDTH 960 0
DWIDTH 16 0
BBX 16 16 0 -2
BITMAP
0080
0080
7fff
0000
0ff8
0808
0ff8
0000
3ffc
0008
0030
00c0
0080
0080
0080
0180
ENDCHAR
STARTCHAR U4EAB
ENCODING 20139
SWIDTH 960 0
DWIDTH 16 0
BBX 16 16 0 -2
BITMAP
0080
0080
7fff
0000
0ff8
0808
0ff8
0000
1ff8
0020
0040
7ffe
0080
0080
0080
0180
ENDCHAR
STARTCHAR U4EAC
ENCODING 20140
SWIDTH 960 0
DWIDTH 16 0
BBX 16 16 0 -2
BITMAP
0080
0080
0080
7fff
0000
0ff8
0808
0808
0808
0ff8
0080
04b0
0888
1084
6082
0180
ENDCHAR
STARTCHAR U4EAD
ENCODING 20141
SWIDTH 960 0
DWIDTH 16 0
BBX 16 16 0 -2
BITMAP
0080
0080
7fff
0000
0ff0
0810
0ff0
0000
7ffe
4002
4ff2
0080
0080
0080
0080
0180
ENDCHAR
STARTCHAR U4EAE
ENCODING 20142
SWIDTH 960 0
DWIDTH 16 0
BBX 16 16 0 -2
BITMAP
0080
0080
7fff
0000
0ff8
0808
0ff8
0000
7ffe
4002
4242
0240
0240
0441
1821
601f
ENDCHAR
STARTCHAR U4EB0
ENCODING 20144
SWIDTH 960 0
DWIDTH 16 0
BBX 16 16 0 -2
BITMAP
0080
0080
7fff
0000
0ff0
0810
0810
0ff0
0810
0ff0
0080
04a0
0898
1084
6082
0180
ENDCHAR
STARTCHAR U4EB3
ENCODING 20147
SWIDTH 960 0
DWIDTH 16 0
BBX 16 16 0 -2
BITMAP
0100
7ffe
0000
0ff0
0810
0ff0
0000
7ffe
4012
41e2
1f00
0100
7ffe
0100
0082
007e
ENDCHAR
STARTCHAR U4EB6
ENCODING 20150
SWIDTH 960 0
DWIDTH 16 0
BBX 16 16 0 -2
BITMAP
0080
7fff
0000
1ffc
13e4
1224
13e4
1004
1ffc
0410
07f0
0410
07f0
0000
7fff
0000
ENDCHAR
STARTCHAR U4EBA
ENCODING 20154
SWIDTH 960 0
DWIDTH 16 0
BBX 16 16 0 -2
BITMAP
0080
0080
0080
0080
0080
0080
0080
0140
0140
0220
0220
0410
0808
1004
2002
4001
ENDCHAR
STARTCHAR U4EC0
ENCODING 20160
SWIDTH 960 0
DWIDTH 16 0
BBX 16 16 0 -2
BITMAP
0410
0410
0410
0810
0810
1810
1bff
2810
4810
0810
0810
0810
0810
0810
0810
0810
ENDCHAR
STARTCHAR U4EC1
ENCODING 20161
SWIDTH 960 0
DWIDTH 16 0
BBX 16 16 0 -2
BITMAP
0400
0400
0400
09fc
0800
1000
3000
5000
1000
1000
1000
1000
1000
17ff
1000
1000
ENDCHAR
STARTCHAR U4EC2
ENCODING 20162
SWIDTH 960 0
DWIDTH 16 0
BBX 16 16 0 -2
BITMAP
0440
0440
0440
0840
0bfe
1042
1042
3042
5042
1042
1042
1082
1082
1102
1204
1418
ENDCHAR
STARTCHAR U4EC4
ENCODING 20164
SWIDTH 960 0
DWIDTH 16 0
BBX 16 16 0 -2
BITMAP
0000
1fff
1000
1040
1040
1040
1040
1040
1040
1040
10a0
10a0
2110
2208
4c04
3003
ENDCHAR
STARTCHAR U4EC6
ENCODING 20166
SWIDTH 960 0
DWIDTH 16 0
BBX 16 16 0 -2
BITMAP
0220
0220
0420
0420
0820
0820
1830
2828
4824
0822
0822
0820
0820
0820
0820
0820
ENDCHAR
STARTCHAR U4EC7
ENCODING 20167
SWIDTH 960 0
DWIDTH 16 0
BBX 16 16 0 -2
BITMAP
0480
0480
0480
0880
08f0
0f90
1090
3090
5090
1090
1090
1112
1112
1212
140e
1800
ENDCHAR
STARTCHAR U4ECA
ENCODING 20170
SWIDTH 960 0
DWIDTH 16 0
BBX 16 16 0 -2
BITMAP
0080
0080
0140
0220
0410
0808
13e4
6003
0000
0ff0
0010
0020
0020
0040
0080
0100
ENDCHAR
STARTCHAR U4ECB
ENCODING 20171
SWIDTH 960 0
DWIDTH 16 0
BBX 16 16 0 -2
BITMAP
0080
0080
0140
0220
0410
180c
6413
0410
0410
0410
0410
0410
0810
0810
1010
2010
ENDCHAR
STARTCHAR U4ECD
ENCODING 20173
SWIDTH 960 0
DWIDTH 16 0
BBX 16 16 0 -2
BITMAP
0400
07f8
0488
0888
0888
1088
108e
3082
5082
1082
1082
1102
1102
1202
1404
1818
ENDCHAR
STARTCHAR U4ECE
ENCODING 20174
SWIDTH 960 0
DWIDTH 16 0
BBX 16 16 0 -2
BITMAP
0410
0410
0410
0410
0410
0410
0410
0410
0610
0a18
0928
0928
10c4
1044
2082
4101
ENDCHAR
STARTCHAR U4ECF
ENCODING 20175
SWIDTH 960 0
DWIDTH 16 0
BBX 16 16 0 -2
BITMAP
0420
0420
0420
0820
0820
1020
1040
3040
5050
1048
1084
1084
1082
113e
17c1
1001
ENDCHAR
STARTCHAR U4ED4
ENCODING 20180
SWIDTH 960 0
DWIDTH 16 0
BBX 16 16 0 -2
BITMAP
0400
05fc
0404
0808
0810
1020
3020
57ff
1020
1020
1020
1020
1020
1020
1020
1060
ENDCHAR
STARTCHAR U4ED5
ENCODING 20181
SWIDTH 960 0
DWIDTH 16 0
BBX 16 16 0 -2
BITMAP
0420
0420
0420
0820
0820
1020
17ff
3020
5020
1020
1020
1020
1020
1020
13fe
1000
ENDCHAR
STARTCHAR U4ED6
ENCODING 20182
SWIDTH 960 0
DWIDTH 16 0
BBX 16 16 0 -2
BITMAP
0410
0410
0490
0892
089e
18f2
1b92
2892
4892
0892
089c
0890
0881
0881
0841
083f
ENDCHAR
STARTCHAR U4ED7
ENCODING 20183
SWIDTH 960 0
DWIDTH 16 0
BBX 16 16 0 -2
BITMAP
0420
0420
0420
0820
0bff
1020
1120
3120
50a0
10a0
1040
1040
10a0
1110
120c
1c03
ENDCHAR
STARTCHAR U4ED8
ENCODING 20184
SWIDTH 960 0
DWIDTH 16 0
BBX 16 16 0 -2
BITMAP
0208
0208
0208
0408
05ff
0808
0a08
1908
2888
4888
0888
0808
0808
0808
0808
0818
ENDCHAR
STARTCHAR U4ED9
ENCODING 20185
SWIDTH 960 0
DWIDTH 16 0
BBX 16 16 0 -2
BITMAP
0420
0420
0420
0820
0a22
1222
1222
3222
5222
1222
1222
1222
1222
1222
13fe
1000
ENDCHAR
STARTCHAR U4EDD
ENCODING 20189
SWIDTH 960 0
DWIDTH 16 0
BBX 16 16 0 -2
BITMAP
0080
0080
0140
0220
0410
180c
6003
0000
0ffc
0080
0080
0080
0080
0080
3ffe
0000
ENDCHAR
STARTCHAR U4EDE
ENCODING 20190
SWIDTH 960 0
DWIDTH 16 0
BBX 16 16 0 -2
BITMAP
0400
07fe
0442
0842
0842
1142
1142
3142
5242
1442
1042
1082
1082
1102
1204
1418
ENDCHAR
STARTCHAR U4EDF
ENCODING 20191
SWIDTH 960 0
DWIDTH 16 0
BBX 16 16 0 -2
BITMAP
0404
0418
05e0
0820
0820
1020
1020
37ff
5020
1020
1020
1020
1020
1020
1020
1020
ENDCHAR
STARTCHAR U4EE3
ENCODING 20195
SWIDTH 960 0
DWIDTH 16 0
BBX 16 16 0 -2
BITMAP
0428
0424
0422
0820
0820
183f
1be0
2820
4810
0810
0810
0808
0809
0805
0803
0801
ENDCHAR
STARTCHAR U4EE4
ENCODING 20196
SWIDTH 960 0
DWIDTH 16 0
BBX 16 16 0 -2
BITMAP
0080
0080
0140
0220
0410
180c
67f3
0000
0000
3ffc
0084
0084
0084
0098
0080
0080
ENDCHAR
STARTCHAR U4EE5
ENCODING 20197
SWIDTH 960 0
DWIDTH 16 0
BBX 16 16 0 -2
BITMAP
0000
1008
1008
1008
1208
1108
1088
1088
1008
1008
1018
1114
1622
1842
6081
0301
ENDCHAR
STARTCHAR U4EED
ENCODING 20205
SWIDTH 960 0
DWIDTH 16 0
BBX 16 16 0 -2
BITMAP
0400
07fc
0444
0844
0844
1044
1244
3144
50c4
1074
104f
1084
1084
1104
1208
1430
ENDCHAR
STARTCHAR U4EEE
ENCODING 20206
SWIDTH 960 0
DWIDTH 16 0
BBX 16 16 0 -2
BITMAP
0400
05ff
0500
0900
0900
11fc
1184
3144
5148
1128
1230
1210
1428
1444
1982
1601
ENDCHAR
STARTCHAR U4EF0
ENCODING 20208
SWIDTH 960 0
DWIDTH 16 0
BBX 16 16 0 -2
BITMAP
0440
0480
073e
0a22
0a22
1222
1222
3222
5222
1222
1262
13a2
162c
1020
1020
1020
ENDCHAR
STARTCHAR U4EF2
ENCODING 20210
SWIDTH 960 0
DWIDTH 16 0
BBX 16 16 0 -2
BITMAP
0420
0420
0420
0820
0bfe
1a22
1a22
2a22
4a22
0bfe
0820
0820
0820
0820
0820
0820
ENDCHAR
STARTCHAR U4EF6
ENCODING 20214
SWIDTH 960 0
DWIDTH 16 0
BBX 16 16 0 -2
BITMAP
0420
0520
0520
0920
09fe
1220
1220
3420
5020
13ff
1020
1020
1020
1020
1020
1020
ENDCHAR
STARTCHAR U4EF7
ENCODING 20215
SWIDTH 960 0
DWIDTH 16 0
BBX 16 16 0 -2
BITMAP
0420
0420
0450
0850
0888
118c
128a
3489
5088
1088
1088
1088
1108
1108
1208
1408
ENDCHAR
STARTCHAR U4EFB
ENCODING 20219
SWIDTH 960 0
DWIDTH 16 0
BBX 16 16 0 -2
BITMAP
0404
0418
0460
0ba0
0820
1820
1820
2fff
4820
0820
0820
0820
0820
0bfe
0800
0800
ENDCHAR
STARTCHAR U4F01
ENCODING 20225
SWIDTH 960 0
DWIDTH 16 0
BBX 16 16 0 -2
BITMAP
0080
0080
0140
0220
0410
188c
6083
0080
08fc
0880
0880
0880
0880
0880
7fff
0000
ENDCHAR
STARTCHAR U4F09
ENCODING 20233
SWIDTH 960 0
DWIDTH 16 0
BBX 16 16 0 -2
BITMAP
0420
0420
0420
0bff
0800
1000
10f0
3090
5090
1090
1090
1110
1110
1212
1412
180e
ENDCHAR
STARTCHAR U4F0A
ENCODING 20234
SWIDTH 960 0
DWIDTH 16 0
BBX 16 16 0 -2
BITMAP
0400
05fc
0424
0824
0824
1fff
1824
2824
4824
09fc
0820
0820
0840
0840
0880
0900
ENDCHAR
STARTCHAR U4F0D
ENCODING 20237
SWIDTH 960 0
DWIDTH 16 0
BBX 16 16 0 -2
BITMAP
0400
07fe
0440
0840
0840
1040
13f8
3048
5048
1048
1088
1088
1088
1088
17ff
1000
ENDCHAR
STARTCHAR U4F0E
ENCODING 20238
SWIDTH 960 0
DWIDTH 16 0
BBX 16 16 0 -2
BITMAP
0420
0420
0420
0fff
0820
1820
1820
2bfc
4884
0848
0848
0830
0830
0848
0884
0b03
ENDCHAR
STARTCHAR U4F0F
ENCODING 20239
SWIDTH 960 0
DWIDTH 16 0
BBX 16 16 0 -2
BITMAP
0440
0448
0444
0844
0840
17ff
1040
3040
5040
1060
10a0
1090
1108
1204
1402
1801
ENDCHAR
STARTCHAR U4F10
ENCODING 20240
SWIDTH 960 0
DWIDTH 16 0
BBX 16 16 0 -2
BITMAP
0488
0484
0484
0880
0fff
1084
1084
3048
5048
1050
1020
1050
1192
160a
1006
1002
ENDCHAR
STARTCHAR U4F11
ENCODING 20241
SWIDTH 960 0
DWIDTH 16 0
BBX 16 16 0 -2
BITMAP
0840
0840
0840
0840
17fe
10e0
10e0
3150
5150
1248
1244
1442
1841
1040
1040
1040
ENDCHAR
STARTCHAR U4F1A
ENCODING 20250
SWIDTH 960 0
DWIDTH 16 0
BBX 16 16 0 -2
BITMAP
0080
0080
0140
0220
0410
180c
67f3
0000
0000
3ffe
0100
0120
0210
0468
3f84
0004
ENDCHAR
STARTCHAR U4F1C
ENCODING 20252
SWIDTH 960 0
DWIDTH 16 0
BBX 16 16 0 -2
BITMAP
0440
0440
07f8
0848
0888
1089
1109
3207
5420
1020
17ff
1020
1020
1020
1020
1020
ENDCHAR
STARTCHAR U4F1D
ENCODING 20253
SWIDTH 960 0
DWIDTH 16 0
BBX 16 16 0 -2
BITMAP
0400
0400
05fc
0800
0800
1000
17ff
3040
5040
1050
1088
1084
1104
113e
17c2
1002
ENDCHAR
STARTCHAR U4F2F
ENCODING 20271
SWIDTH 960 0
DWIDTH 16 0
BBX 16 16 0 -2
BITMAP
0420
0420
0440
09fc
0904
1104
1104
3104
51fc
1104
1104
1104
1104
1104
11fc
1000
ENDCHAR
STARTCHAR U4F30
ENCODING 20272
SWIDTH 960 0
DWIDTH 16 0
BBX 16 16 0 -2
BITMAP
0420
0420
0420
0820
0fff
1020
1020
3020
5020
11fc
1104
1104
1104
1104
11fc
1000
ENDCHAR
STARTCHAR U4F34
ENCODING 20276
SWIDTH 960 0
DWIDTH 16 0
BBX 16 16 0 -2
BITMAP
0420
0424
0524
08a4
08a8
1820
1bfe
2820
4820
0820
0fff
0820
0820
0820
0820
0820
ENDCHAR
STARTCHAR U4F36
ENCODING 20278
SWIDTH 960 0
DWIDTH 16 0
BBX 16 16 0 -2
BITMAP
0420
0420
0450
0888
0904
12fa
1401
3000
53fc
1044
1044
1044
1044
1058
1040
1040
ENDCHAR
STARTCHAR U4F38
ENCODING 20280
SWIDTH 960 0
DWIDTH 16 0
BBX 16 16 0 -2
BITMAP
0420
0420
0420
0bfe
0a22
1222
1222
33fe
5222
1222
13fe
1020
1020
1020
1020
1020
ENDCHAR
STARTCHAR U4F3A
ENCODING 20282
SWIDTH 960 0
DWIDTH 16 0
BBX 16 16 0 -2
BITMAP
0400
07fe
0402
0802
0bfa
1002
1002
31f2
5112
1112
1112
11f2
1002
1002
1002
1006
ENDCHAR
STARTCHAR U4F3C
ENCODING 20284
SWIDTH 960 0
DWIDTH 16 0
BBX 16 16 0 -2
BITMAP
0404
0504
0504
0984
0944
1124
1124
3104
5104
1104
1104
114c
118a
1312
1c21
1041
ENDCHAR
STARTCHAR U4F3D
ENCODING 20285
SWIDTH 960 0
DWIDTH 16 0
BBX 16 16 0 -2
BITMAP
0a00
0a00
0a1e
1212
1fd2
1252
3252
3252
5252
1252
1252
1252
1452
145e
1980
1000
ENDCHAR
STARTCHAR U4F43
ENCODING 20291
SWIDTH 960 0
DWIDTH 16 0
BBX 16 16 0 -2
BITMAP
0400
05fe
0522
0922
0922
1122
1122
31fe
5122
1122
1122
1122
1122
1122
11fe
1000
ENDCHAR
STARTCHAR U4F46
ENCODING 20294
SWIDTH 960 0
DWIDTH 16 0
BBX 16 16 0 -2
BITMAP
0400
05fc
0504
0904
0904
1904
19fc
2904
4904
0904
0904
09fc
0800
0800
0fff
0800
ENDCHAR
STARTCHAR U4F47
ENCODING 20295
SWIDTH 960 0
DWIDTH 16 0
BBX 16 16 0 -2
BITMAP
0420
0420
07fe
0a02
0a02
1000
13ff
3020
5020
1020
1020
1020
1020
1020
1020
1060
ENDCHAR
STARTCHAR U4F4D
ENCODING 20301
SWIDTH 960 0
DWIDTH 16 0
BBX 16 16 0 -2
BITMAP
0420
0420
0420
0820
0bfe
1804
1804
2904
4888
0888
0888
0890
0890
0820
0fff
0800
ENDCHAR
STARTCHAR U4F4E
ENCODING 20302
SWIDTH 960 0
DWIDTH 16 0
BBX 16 16 0 -2
BITMAP
0404
0418
05f0
0910
0910
1110
11ff
3110
5110
1108
1108
11c8
1604
1005
17f3
1001
ENDCHAR
STARTCHAR U4F4F
ENCODING 20303
SWIDTH 960 0
DWIDTH 16 0
BBX 16 16 0 -2
BITMAP
0440
0420
0420
0bfe
0820
1020
1020
3020
53fe
1020
1020
1020
1020
1020
17ff
1000
ENDCHAR
STARTCHAR U4F50
ENCODING 20304
SWIDTH 960 0
DWIDTH 16 0
BBX 16 16 0 -2
BITMAP
0440
0440
0440
0bff
0840
1040
1080
3080
51fe
1120
1220
1420
1020
1020
13ff
1000
ENDCHAR
STARTCHAR U4F51
ENCODING 20305
SWIDTH 960 0
DWIDTH 16 0
BBX 16 16 0 -2
BITMAP
0440
0440
0440
0fff
0840
1040
1080
3080
51fc
1184
1284
1484
1084
1084
10fc
1000
ENDCHAR
STARTCHAR U4F53
ENCODING 20307
SWIDTH 960 0
DWIDTH 16 0
BBX 16 16 0 -2
BITMAP
0820
0820
0820
0820
17ff
1070
1070
30a8
50a8
1124
1222
14fd
1020
1020
1020
1020
ENDCHAR
STARTCHAR U4F55
ENCODING 20309
SWIDTH 960 0
DWIDTH 16 0
BBX 16 16 0 -2
BITMAP
0400
0400
07ff
0804
0804
13e4
1224
3224
5224
1224
13e4
1004
1004
1004
1004
100c
ENDCHAR
STARTCHAR U4F57
ENCODING 20311
SWIDTH 960 0
DWIDTH 16 0
BBX 16 16 0 -2
BITMAP
0420
0420
0420
0bfe
0a02
1282
1080
3084
5098
10e0
1080
1080
1080
1082
1042
103e
ENDCHAR
STARTCHAR U4F59
ENCODING 20313
SWIDTH 960 0
DWIDTH 16 0
BBX 16 16 0 -2
BITMAP
0080
0080
0140
0220
0410
180c
67fb
0080
0080
3ffe
0080
0490
0488
0884
1084
0180
ENDCHAR
STARTCHAR U4F5A
ENCODING 20314
SWIDTH 960 0
DWIDTH 16 0
BBX 16 16 0 -2
BITMAP
0420
0520
0520
0920
09fe
1220
1220
3420
53ff
1030
1050
1048
1088
1104
1202
1401
ENDCHAR
STARTCHAR U4F5B
ENCODING 20315
SWIDTH 960 0
DWIDTH 16 0
BBX 16 16 0 -2
BITMAP
0490
0490
07fe
0892
0892
13fe
1290
3290
53ff
1091
1091
1091
1112
111c
1210
1410
ENDCHAR
STARTCHAR U4F5C
ENCODING 20316
SWIDTH 960 0
DWIDTH 16 0
BBX 16 16 0 -2
BITMAP
0480
0480
0480
08ff
0920
1920
1a20
2c3e
4820
0820
0820
083e
0820
0820
0820
0820
ENDCHAR
STARTCHAR U4F5D
ENCODING 20317
SWIDTH 960 0
DWIDTH 16 0
BBX 16 16 0 -2
BITMAP
0480
0480
0480
08fe
0902
1102
13f2
3512
5112
1112
1112
11f2
1002
1002
1004
1018
ENDCHAR
STARTCHAR U4F5E
ENCODING 20318
SWIDTH 960 0
DWIDTH 16 0
BBX 16 16 0 -2
BITMAP
0400
05fc
0400
0800
0800
17ff
1040
3040
57ff
1088
1088
1110
13f0
1028
10c4
1702
ENDCHAR
STARTCHAR U4F69
ENCODING 20329
SWIDTH 960 0
DWIDTH 16 0
BBX 16 16 0 -2
BITMAP
0800
0bfc
0a04
0a04
13fc
1244
3244
33f4
5354
1354
1354
1354
1575
1545
1843
1041
ENDCHAR
STARTCHAR U4F6F
ENCODING 20335
SWIDTH 960 0
DWIDTH 16 0
BBX 16 16 0 -2
BITMAP
0484
0444
0448
0bfe
0820
1020
1020
31fc
5020
1020
1020
17ff
1020
1020
1020
1020
ENDCHAR
STARTCHAR U4F70
ENCODING 20336
SWIDTH 960 0
DWIDTH 16 0
BBX 16 16 0 -2
BITMAP
0400
07ff
0420
0820
0840
11fc
1104
3104
5104
11fc
1104
1104
1104
1104
11fc
1000
ENDCHAR
STARTCHAR U4F73
ENCODING 20339
SWIDTH 960 0
DWIDTH 16 0
BBX 16 16 0 -2
BITMAP
0420
0420
05fc
0820
0820
1820
2bfe
2820
4820
0820
09fc
0820
0820
0820
0bfe
0800
ENDCHAR
STARTCHAR U4F75
ENCODING 20341
SWIDTH 960 0
DWIDTH 16 0
BBX 16 16 0 -2
BITMAP
0504
0484
0488
0bfe
0888
1088
1088
3088
57ff
1088
1088
1088
1088
1108
1108
1208
ENDCHAR
STARTCHAR U4F76
ENCODING 20342
SWIDTH 960 0
DWIDTH 16 0
BBX 16 16 0 -2
BITMAP
0420
0420
0420
0fff
0820
1020
1020
33fe
5000
1000
11fc
1104
1104
1104
11fc
1000
ENDCHAR
STARTCHAR U4F7B
ENCODING 20347
SWIDTH 960 0
DWIDTH 16 0
BBX 16 16 0 -2
BITMAP
0490
0490
0492
0892
0c94
1290
1290
3098
5094
1192
1291
1c90
1110
1111
1211
140f
ENDCHAR
STARTCHAR U4F7C
ENCODING 20348
SWIDTH 960 0
DWIDTH 16 0
BBX 16 16 0 -2
BITMAP
0420
0420
0420
0bff
0888
1084
110a
328a
5488
1050
1050
1020
1050
1088
1104
1603
ENDCHAR
STARTCHAR U4F7F
ENCODING 20351
SWIDTH 960 0
DWIDTH 16 0
BBX 16 16 0 -2
BITMAP
0420
0420
07ff
0820
0820
13fe
1222
3222
5222
13fe
10a0
1040
1060
1090
130c
1c03
ENDCHAR
STARTCHAR U4F83
ENCODING 20355
SWIDTH 960 0
DWIDTH 16 0
BBX 16 16 0 -2
BITMAP
0400
05fc
0504
0904
0904
11fc
1000
3124
5124
1124
1124
1124
1124
1225
1225
1403
ENDCHAR
STARTCHAR U4F86
ENCODING 20358
SWIDTH 960 0
DWIDTH 16 0
BBX 16 16 0 -2
BITMAP
0080
0080
7fff
0888
0888
0c8c
1494
1292
20a0
01c0
02a0
0490
188c
6083
0080
0080
ENDCHAR
STARTCHAR U4F88
ENCODING 20360
SWIDTH 960 0
DWIDTH 16 0
BBX 16 16 0 -2
BITMAP
0440
0440
0478
0888
0990
1650
1020
3050
519e
1622
1064
1194
1008
1010
1060
1380
ENDCHAR
STARTCHAR U4F8B
ENCODING 20363
SWIDTH 960 0
DWIDTH 16 0
BBX 16 16 0 -2
BITMAP
0802
0ff2
0912
1112
1112
11d2
3252
3252
5352
14d2
1892
1082
1102
1102
1202
1406
ENDCHAR
STARTCHAR U4F8D
ENCODING 20365
SWIDTH 960 0
DWIDTH 16 0
BBX 16 16 0 -2
BITMAP
0420
0420
05fe
0820
0820
1020
17ff
3008
5008
13fe
1108
1088
1088
1088
1008
1018
ENDCHAR
STARTCHAR U4F8F
ENCODING 20367
SWIDTH 960 0
DWIDTH 16 0
BBX 16 16 0 -2
BITMAP
0420
04a0
04a0
08fe
0920
1220
1020
33ff
5070
1070
10a8
1128
1224
1422
1021
1020
ENDCHAR
STARTCHAR U4F91
ENCODING 20369
SWIDTH 960 0
DWIDTH 16 0
BBX 16 16 0 -2
BITMAP
0440
0440
07ff
0840
0880
10fc
1184
3184
52fc
1484
1084
10fc
1084
1084
1084
108c
ENDCHAR
STARTCHAR U4F96
ENCODING 20374
SWIDTH 960 0
DWIDTH 16 0
BBX 16 16 0 -2
BITMAP
0080
0080
0140
0230
0c0c
37fb
0000
0000
0ffc
0924
0924
0ffc
0924
0924
0924
092c
ENDCHAR
STARTCHAR U4F98
ENCODING 20376
SWIDTH 960 0
DWIDTH 16 0
BBX 16 16 0 -2
BITMAP
0420
0420
07fe
0a02
0a0a
1030
13c0
3040
5040
107f
17c0
1040
1040
1042
1022
101e
ENDCHAR
STARTCHAR U4F9B
ENCODING 20379
SWIDTH 960 0
DWIDTH 16 0
BBX 16 16 0 -2
BITMAP
0488
0488
0488
0888
0bfe
1888
1888
2888
4888
0fff
0800
0888
0884
0904
0a02
0c02
ENDCHAR
STARTCHAR U4F9D
ENCODING 20381
SWIDTH 960 0
DWIDTH 16 0
BBX 16 16 0 -2
BITMAP
0420
0420
0420
0fff
08c0
10a2
10a2
3124
5324
1518
1910
1108
1108
1164
1182
1601
ENDCHAR
STARTCHAR U4FA0
ENCODING 20384
SWIDTH 960 0
DWIDTH 16 0
BBX 16 16 0 -2
BITMAP
0440
0440
07fe
0840
0a48
1148
1148
3150
5040
1fff
1060
10a0
1090
1108
1204
1c02
ENDCHAR
STARTCHAR U4FA1
ENCODING 20385
SWIDTH 960 0
DWIDTH 16 0
BBX 16 16 0 -2
BITMAP
0400
0400
07ff
0850
0850
1050
13fe
3252
5252
1252
1252
1252
1252
1252
13fe
1000
ENDCHAR
STARTCHAR U4FAB
ENCODING 20395
SWIDTH 960 0
DWIDTH 16 0
BBX 16 16 0 -2
BITMAP
0420
0420
05ff
0500
0900
10fe
1040
3040
57ff
1088
1088
1110
13f0
1028
10c4
1702
ENDCHAR
STARTCHAR U4FAD
ENCODING 20397
SWIDTH 960 0
DWIDTH 16 0
BBX 16 16 0 -2
BITMAP
0400
05fc
0504
0904
0904
11fc
1110
3110
5208
12c4
1422
1811
1180
1060
1010
1008
ENDCHAR
STARTCHAR U4FAE
ENCODING 20398
SWIDTH 960 0
DWIDTH 16 0
BBX 16 16 0 -2
BITMAP
0480
0480
04ff
0900
0900
12fc
14a4
30a4
57ff
1124
1124
1124
13ff
1204
1008
1030
ENDCHAR
STARTCHAR U4FAF
ENCODING 20399
SWIDTH 960 0
DWIDTH 16 0
BBX 16 16 0 -2
BITMAP
0400
05f8
0408
0808
0fff
1080
1080
30fc
5120
1220
17ff
1020
1050
1088
1104
1603
ENDCHAR
STARTCHAR U4FB5
ENCODING 20405
SWIDTH 960 0
DWIDTH 16 0
BBX 16 16 0 -2
BITMAP
0400
05fc
0404
08fc
0804
11fc
1000
37ff
5401
17f9
1088
1050
1020
1050
118c
1603
ENDCHAR
STARTCHAR U4FB6
ENCODING 20406
SWIDTH 960 0
DWIDTH 16 0
BBX 16 16 0 -2
BITMAP
0400
05fc
0504
0904
0904
11fc
1020
3020
5040
13fe
1202
1202
1202
1202
13fe
1000
ENDCHAR
STARTCHAR U4FBF
ENCODING 20415
SWIDTH 960 0
DWIDTH 16 0
BBX 16 16 0 -2
BITMAP
0400
07ff
0420
09fe
0922
1922
19fe
2922
4922
09fe
08a0
0840
0860
0890
0b0c
0c03
ENDCHAR
STARTCHAR U4FC2
ENCODING 20418
SWIDTH 960 0
DWIDTH 16 0
BBX 16 16 0 -2
BITMAP
0406
0438
07c0
0848
0888
1310
10a0
3048
5084
17fe
1022
1128
1124
1222
1422
1020
ENDCHAR
STARTCHAR U4FC3
ENCODING 20419
SWIDTH 960 0
DWIDTH 16 0
BBX 16 16 0 -2
BITMAP
0400
05fe
0502
0902
0902
1102
11fe
3020
5020
1120
113e
1120
12a0
1260
1430
180f
ENDCHAR
STARTCHAR U4FC4
ENCODING 20420
SWIDTH 960 0
DWIDTH 16 0
BBX 16 16 0 -2
BITMAP
0450
0494
0712
0912
0910
1fff
1110
3112
5152
1194
1708
111a
112a
1146
1186
1302
ENDCHAR
STARTCHAR U4FCA
ENCODING 20426
SWIDTH 960 0
DWIDTH 16 0
BBX 16 16 0 -2
BITMAP
0440
0450
048c
0bfa
0890
1091
110f
3280
54f8
1088
1188
1250
1420
1050
118c
1603
ENDCHAR
STARTCHAR U4FCE
ENCODING 20430
SWIDTH 960 0
DWIDTH 16 0
BBX 16 16 0 -2
BITMAP
0800
087c
0844
1444
1244
217c
4044
0844
0844
087c
1444
1244
2144
4044
03ff
0000
ENDCHAR
STARTCHAR U4FD0
ENCODING 20432
SWIDTH 960 0
DWIDTH 16 0
BBX 16 16 0 -2
BITMAP
0842
0992
0f12
1112
1112
1fd2
3112
3112
5392
1352
1552
1512
1902
1102
1102
1106
ENDCHAR
STARTCHAR U4FD1
ENCODING 20433
SWIDTH 960 0
DWIDTH 16 0
BBX 16 16 0 -2
BITMAP
0400
07fc
0408
08d0
0820
13fe
1222
3222
53fe
1222
1222
13fe
1222
1222
1222
1226
ENDCHAR
STARTCHAR U4FD4
ENCODING 20436
SWIDTH 960 0
DWIDTH 16 0
BBX 16 16 0 -2
BITMAP
0400
05fc
0504
0904
09fc
1104
11fc
3104
5104
11fc
1050
1050
1090
1111
1211
1c0f
ENDCHAR
STARTCHAR U4FD7
ENCODING 20439
SWIDTH 960 0
DWIDTH 16 0
BBX 16 16 0 -2
BITMAP
0488
0484
0484
0922
0a22
1050
1050
3088
5104
13fe
1505
1104
1104
1104
11fc
1000
ENDCHAR
STARTCHAR U4FD8
ENCODING 20440
SWIDTH 960 0
DWIDTH 16 0
BBX 16 16 0 -2
BITMAP
0404
0438
07c4
0922
0922
1201
15fd
3008
5010
1020
17ff
1020
1020
1020
1020
1060
ENDCHAR
STARTCHAR U4FDA
ENCODING 20442
SWIDTH 960 0
DWIDTH 16 0
BBX 16 16 0 -2
BITMAP
0400
05fc
0524
0924
09fc
1124
1124
31fc
5020
1020
13fe
1020
1020
1020
17ff
1000
ENDCHAR
STARTCHAR U4FDB
ENCODING 20443
SWIDTH 960 0
DWIDTH 16 0
BBX 16 16 0 -2
BITMAP
0440
0478
0488
0910
0920
13fe
1522
3122
5142
11fe
1050
1050
1090
1111
1211
1c0f
ENDCHAR
STARTCHAR U4FDD
ENCODING 20445
SWIDTH 960 0
DWIDTH 16 0
BBX 16 16 0 -2
BITMAP
0400
05fc
0504
0904
0904
11fc
1020
3020
57ff
1070
10a8
1124
1222
1421
1020
1020
ENDCHAR
STARTCHAR U4FDF
ENCODING 20447
SWIDTH 960 0
DWIDTH 16 0
BBX 16 16 0 -2
BITMAP
0440
0450
044c
089a
0be1
1080
1080
31fe
5120
1220
17ff
1050
1048
1084
1302
1c01
ENDCHAR
STARTCHAR U4FE1
ENCODING 20449
SWIDTH 960 0
DWIDTH 16 0
BBX 16 16 0 -2
BITMAP
0800
09f8
0800
0fff
1000
13fc
3000
3000
53fc
1000
13fc
1204
1204
1204
13fc
1000
ENDCHAR
STARTCHAR U4FE3
ENCODING 20451
SWIDTH 960 0
DWIDTH 16 0
BBX 16 16 0 -2
BITMAP
0400
05fc
0504
0904
0904
11fc
1000
33fe
5020
1020
17ff
1050
1048
1084
1102
1201
ENDCHAR
STARTCHAR U4FE4
ENCODING 20452
SWIDTH 960 0
DWIDTH 16 0
BBX 16 16 0 -2
BITMAP
0508
0488
0490
0ffe
0822
1022
13fe
3220
5220
13fe
1062
10a2
1122
1222
142c
1020
ENDCHAR
STARTCHAR U4FE5
ENCODING 20453
SWIDTH 960 0
DWIDTH 16 0
BBX 16 16 0 -2
BITMAP
0420
0420
07ff
0820
09fc
1124
1124
31fc
5124
1124
11fc
1020
17ff
1020
1020
1020
ENDCHAR
STARTCHAR U4FEE
ENCODING 20462
SWIDTH 960 0
DWIDTH 16 0
BBX 16 16 0 -2
BITMAP
0440
0440
047f
0888
0988
1650
1430
34cc
5713
1464
1598
1462
1584
1418
1060
1380
ENDCHAR
STARTCHAR U4FEF
ENCODING 20463
SWIDTH 960 0
DWIDTH 16 0
BBX 16 16 0 -2
BITMAP
0420
0420
07ff
0a00
0a44
1244
127f
3284
52a4
1394
1294
1284
1484
1484
1884
108c
ENDCHAR
STARTCHAR U4FF3
ENCODING 20467
SWIDTH 960 0
DWIDTH 16 0
BBX 16 16 0 -2
BITMAP
0490
0490
0490
0f9e
0890
1090
1090
379e
5090
1090
1390
1c9f
1110
1110
1210
1410
ENDCHAR
STARTCHAR U4FF5
ENCODING 20469
SWIDTH 960 0
DWIDTH 16 0
BBX 16 16 0 -2
BITMAP
0420
0420
07fe
0820
0bfe
1020
1020
37ff
50a0
1124
1314
1518
1108
1104
11c2
1601
ENDCHAR
STARTCHAR U4FF6
ENCODING 20470
SWIDTH 960 0
DWIDTH 16 0
BBX 16 16 0 -2
BITMAP
0900
093e
0902
19e2
1112
3112
3ff4
5114
1114
1588
1548
154c
1914
1122
1342
1081
ENDCHAR
STARTCHAR U4FF8
ENCODING 20472
SWIDTH 960 0
DWIDTH 16 0
BBX 16 16 0 -2
BITMAP
0420
0420
07fe
0820
09fe
1050
17ff
3088
5124
1623
11fc
1020
17ff
1020
1020
1020
ENDCHAR
STARTCHAR U4FFA
ENCODING 20474
SWIDTH 960 0
DWIDTH 16 0
BBX 16 16 0 -2
BITMAP
0440
0440
07ff
08a0
08d0
1148
13fc
364a
5a49
13f8
1248
1248
13f8
1042
1042
103e
ENDCHAR
STARTCHAR U4FFE
ENCODING 20478
SWIDTH 960 0
DWIDTH 16 0
BBX 16 16 0 -2
BITMAP
0420
0440
07fc
0a24
0a24
13fc
1224
3224
53fc
1090
1110
17ff
1010
1010
1010
1010
ENDCHAR
STARTCHAR U5005
ENCODING 20485
SWIDTH 960 0
DWIDTH 16 0
BBX 16 16 0 -2
BITMAP
0420
0420
07ff
0908
0908
118c
1252
3420
5020
17ff
1020
1020
1020
1020
1020
1020
ENDCHAR
STARTCHAR U5006
ENCODING 20486
SWIDTH 960 0
DWIDTH 16 0
BBX 16 16 0 -2
BITMAP
0800
0fff
0820
0820
13fe
1222
3222
33fe
5266
12aa
12aa
1376
1222
1222
1222
1226
ENDCHAR
STARTCHAR U5009
ENCODING 20489
SWIDTH 960 0
DWIDTH 16 0
BBX 16 16 0 -2
BITMAP
0080
0080
0140
0220
07f0
180c
67f3
0410
07f0
0410
07f0
0800
0ff8
1408
27f8
0000
ENDCHAR
STARTCHAR U500B
ENCODING 20491
SWIDTH 960 0
DWIDTH 16 0
BBX 16 16 0 -2
BITMAP
0400
07fe
0622
0a22
0a22
13fe
1222
3222
52fa
128a
128a
12fa
1202
1202
13fe
1000
ENDCHAR
STARTCHAR U500D
ENCODING 20493
SWIDTH 960 0
DWIDTH 16 0
BBX 16 16 0 -2
BITMAP
0420
0420
07fe
0904
0884
1088
1088
37ff
5000
1000
11fc
1104
1104
1104
11fc
1000
ENDCHAR
STARTCHAR U500F
ENCODING 20495
SWIDTH 960 0
DWIDTH 16 0
BBX 16 16 0 -2
BITMAP
0420
043c
0444
0888
0950
1430
14cc
3703
5428
1424
1424
17ff
1430
1048
1184
1603
ENDCHAR
STARTCHAR U5011
ENCODING 20497
SWIDTH 960 0
DWIDTH 16 0
BBX 16 16 0 -2
BITMAP
0800
0bde
0a52
0bde
1252
1252
33de
3202
5202
1202
1202
1202
1202
1202
1202
1206
ENDCHAR
STARTCHAR U5012
ENCODING 20498
SWIDTH 960 0
DWIDTH 16 0
BBX 16 16 0 -2
BITMAP
0802
0ffa
090a
114a
112a
126a
339a
3c9a
508a
17ea
108a
108a
10b2
11c2
1602
1006
ENDCHAR
STARTCHAR U5014
ENCODING 20500
SWIDTH 960 0
DWIDTH 16 0
BBX 16 16 0 -2
BITMAP
0400
07fe
0602
0a02
0bfe
1210
1292
3292
5292
12fe
1210
1292
1492
1492
18fe
1000
ENDCHAR
STARTCHAR U5016
ENCODING 20502
SWIDTH 960 0
DWIDTH 16 0
BBX 16 16 0 -2
BITMAP
0420
0420
05fe
0820
0820
17ff
1108
3088
5090
17fe
1020
1020
13fe
1020
1020
1020
ENDCHAR
STARTCHAR U5019
ENCODING 20505
SWIDTH 960 0
DWIDTH 16 0
BBX 16 16 0 -2
BITMAP
0800
09f8
0808
1408
17ff
1480
3480
35fe
5520
1620
17ff
1430
1450
1488
1104
1203
ENDCHAR
STARTCHAR U501A
ENCODING 20506
SWIDTH 960 0
DWIDTH 16 0
BBX 16 16 0 -2
BITMAP
0420
0420
07fe
0850
0888
1304
1000
37ff
5004
13e4
1224
1224
13e4
1004
1004
100c
ENDCHAR
STARTCHAR U501F
ENCODING 20511
SWIDTH 960 0
DWIDTH 16 0
BBX 16 16 0 -2
BITMAP
0488
0488
0488
0bfe
0888
1088
17ff
3000
51fc
1104
1104
11fc
1104
1104
11fc
1000
ENDCHAR
STARTCHAR U5021
ENCODING 20513
SWIDTH 960 0
DWIDTH 16 0
BBX 16 16 0 -2
BITMAP
0400
05fc
0504
0904
09fc
1104
1104
31fc
5000
13fe
1202
13fe
1202
1202
13fe
1000
ENDCHAR
STARTCHAR U5023
ENCODING 20515
SWIDTH 960 0
DWIDTH 16 0
BBX 16 16 0 -2
BITMAP
0510
0510
0510
0fff
0a12
1212
13e2
3274
5254
1254
1248
1458
1454
1864
1042
1181
ENDCHAR
STARTCHAR U5024
ENCODING 20516
SWIDTH 960 0
DWIDTH 16 0
BBX 16 16 0 -2
BITMAP
0410
0410
07ff
0810
0afc
1284
1284
32fc
5284
12fc
1284
1284
12fc
1200
13ff
1000
ENDCHAR
STARTCHAR U5025
ENCODING 20517
SWIDTH 960 0
DWIDTH 16 0
BBX 16 16 0 -2
BITMAP
0420
0420
07ff
0a51
0a51
1250
1092
310e
5200
11fc
1020
1020
1020
1020
17ff
1000
ENDCHAR
STARTCHAR U5026
ENCODING 20518
SWIDTH 960 0
DWIDTH 16 0
BBX 16 16 0 -2
BITMAP
0524
04a4
04a8
0ffe
0850
1050
17ff
3088
5104
12f2
1411
1010
11f0
1104
1104
10fc
ENDCHAR
STARTCHAR U5028
ENCODING 20520
SWIDTH 960 0
DWIDTH 16 0
BBX 16 16 0 -2
BITMAP
0400
05fe
0502
0902
09fe
1110
1110
31ff
5110
1110
12fe
1282
1482
1882
10fe
1000
ENDCHAR
STARTCHAR U5029
ENCODING 20521
SWIDTH 960 0
DWIDTH 16 0
BBX 16 16 0 -2
BITMAP
0420
0420
07fe
0820
09fc
1020
17ff
3000
51fc
1124
1124
11fc
1104
1104
1104
110c
ENDCHAR
STARTCHAR U502A
ENCODING 20522
SWIDTH 960 0
DWIDTH 16 0
BBX 16 16 0 -2
BITMAP
0420
0440
079c
0a04
0a04
13bc
1204
3204
53fc
1050
1050
1090
1091
1111
1211
140f
ENDCHAR
STARTCHAR U502B
ENCODING 20523
SWIDTH 960 0
DWIDTH 16 0
BBX 16 16 0 -2
BITMAP
0420
0460
0450
0888
0904
16fb
1000
3000
53fe
1252
1252
13fe
1252
1252
1252
1256
ENDCHAR
STARTCHAR U502C
ENCODING 20524
SWIDTH 960 0
DWIDTH 16 0
BBX 16 16 0 -2
BITMAP
0420
0420
043f
0820
09fc
1104
1104
31fc
5104
1104
11fc
1020
17ff
1020
1020
1020
ENDCHAR
STARTCHAR U502D
ENCODING 20525
SWIDTH 960 0
DWIDTH 16 0
BBX 16 16 0 -2
BITMAP
0408
0430
05e0
0820
0fff
1070
11ac
3623
5060
17ff
1048
1088
11d0
1070
1188
1604
ENDCHAR
STARTCHAR U5036
ENCODING 20534
SWIDTH 960 0
DWIDTH 16 0
BBX 16 16 0 -2
BITMAP
0400
05fc
0504
0904
09fc
1104
1104
31fc
5104
1104
11fc
1000
17ff
1098
1104
1602
ENDCHAR
STARTCHAR U5039
ENCODING 20537
SWIDTH 960 0
DWIDTH 16 0
BBX 16 16 0 -2
BITMAP
0420
0420
0450
0888
0904
1bfe
1c21
29fc
4924
0924
09fc
0830
0850
0888
0904
0e03
ENDCHAR
STARTCHAR U5043
ENCODING 20547
SWIDTH 960 0
DWIDTH 16 0
BBX 16 16 0 -2
BITMAP
0800
0bff
0a00
127e
1242
327e
3242
527e
1210
13ff
1224
1278
1214
1262
13ff
1200
ENDCHAR
STARTCHAR U5047
ENCODING 20551
SWIDTH 960 0
DWIDTH 16 0
BBX 16 16 0 -2
BITMAP
0400
07de
0642
0a42
0a42
13de
1200
327e
53a4
1224
1214
1398
1208
1214
1222
12c1
ENDCHAR
STARTCHAR U5048
ENCODING 20552
SWIDTH 960 0
DWIDTH 16 0
BBX 16 16 0 -2
BITMAP
0400
05fc
0504
09fc
0904
1104
11fc
3080
51fe
1222
1d32
1152
1182
11fa
1002
101c
ENDCHAR
STARTCHAR U5049
ENCODING 20553
SWIDTH 960 0
DWIDTH 16 0
BBX 16 16 0 -2
BITMAP
0420
05fc
0444
0844
0fff
1000
11fc
3104
51fc
1010
11fe
1110
1110
17ff
1010
1010
ENDCHAR
STARTCHAR U504F
ENCODING 20559
SWIDTH 960 0
DWIDTH 16 0
BBX 16 16 0 -2
BITMAP
0400
07fe
0400
0bfc
0a04
1204
13fc
3200
53fe
1252
1652
17fe
1a52
1252
1252
1206
ENDCHAR
STARTCHAR U5050
ENCODING 20560
SWIDTH 960 0
DWIDTH 16 0
BBX 16 16 0 -2
BITMAP
0420
07ff
0448
0830
08cc
13ff
1208
3210
5262
1384
1208
1231
14c2
140c
1830
11c0
ENDCHAR
STARTCHAR U5055
ENCODING 20565
SWIDTH 960 0
DWIDTH 16 0
BBX 16 16 0 -2
BITMAP
0510
0532
05dc
0910
0910
1131
11cf
3220
5040
11fc
1104
11fc
1104
1104
11fc
1000
ENDCHAR
STARTCHAR U5056
ENCODING 20566
SWIDTH 960 0
DWIDTH 16 0
BBX 16 16 0 -2
BITMAP
0440
0444
07fc
0848
0848
1050
17ff
3048
5084
10fc
1184
12fc
1484
1084
10fc
1000
ENDCHAR
STARTCHAR U505A
ENCODING 20570
SWIDTH 960 0
DWIDTH 16 0
BBX 16 16 0 -2
BITMAP
0910
0910
0910
0fdf
1124
1124
3144
3114
57d4
1454
1448
1448
17d4
1024
1042
1181
ENDCHAR
STARTCHAR U505C
ENCODING 20572
SWIDTH 960 0
DWIDTH 16 0
BBX 16 16 0 -2
BITMAP
0420
0420
07ff
0800
09fc
1104
11fc
3000
17ff
1401
15fd
1020
1020
1020
1020
1060
ENDCHAR
STARTCHAR U5065
ENCODING 20581
SWIDTH 960 0
DWIDTH 16 0
BBX 16 16 0 -2
BITMAP
0808
0fbe
088a
090a
117f
120a
378a
30be
5288
12be
1288
117f
1108
1288
1460
181f
ENDCHAR
STARTCHAR U506C
ENCODING 20588
SWIDTH 960 0
DWIDTH 16 0
BBX 16 16 0 -2
BITMAP
0480
0480
04fe
092a
092a
12ea
145a
3096
5122
100c
12a0
1292
1291
1485
1845
103c
ENDCHAR
STARTCHAR U5072
ENCODING 20594
SWIDTH 960 0
DWIDTH 16 0
BBX 16 16 0 -2
BITMAP
0400
05fe
0522
0922
09fe
1122
1122
3122
51fe
1020
1090
1292
1281
1285
1484
107c
ENDCHAR
STARTCHAR U5074
ENCODING 20596
SWIDTH 960 0
DWIDTH 16 0
BBX 16 16 0 -2
BITMAP
0802
0fd2
0c52
1452
17d2
3452
3452
5452
17d2
1452
1452
17d2
1282
1242
1442
1806
ENDCHAR
STARTCHAR U5075
ENCODING 20597
SWIDTH 960 0
DWIDTH 16 0
BBX 16 16 0 -2
BITMAP
0420
0420
043f
0820
09fc
1904
1904
29fc
4904
09fc
0904
0904
09fc
0898
0904
0e02
ENDCHAR
STARTCHAR U5076
ENCODING 20598
SWIDTH 960 0
DWIDTH 16 0
BBX 16 16 0 -2
BITMAP
0400
07fc
0624
0a24
0bfc
1224
1224
33fc
5020
17fe
1432
142a
1436
15c6
1402
1406
ENDCHAR
STARTCHAR U5078
ENCODING 20600
SWIDTH 960 0
DWIDTH 16 0
BBX 16 16 0 -2
BITMAP
04e0
0420
0450
0888
0b04
1dfb
1000
33d2
5252
1352
12e4
1364
12e4
1252
1252
12d2
ENDCHAR
STARTCHAR U507D
ENCODING 20605
SWIDTH 960 0
DWIDTH 16 0
BBX 16 16 0 -2
BITMAP
0a20
0920
0920
0bf8
1048
1048
10fc
3084
5104
11fe
1212
154a
1aaa
12a2
1402
100c
ENDCHAR
STARTCHAR U5080
ENCODING 20608
SWIDTH 960 0
DWIDTH 16 0
BBX 16 16 0 -2
BITMAP
0420
0440
07fc
0a44
0a44
13fc
1244
3244
53fc
10a4
10a4
112a
113e
1221
1411
180f
ENDCHAR
STARTCHAR U5085
ENCODING 20613
SWIDTH 960 0
DWIDTH 16 0
BBX 16 16 0 -2
BITMAP
0424
0422
07ff
0820
0bfc
1224
13fc
3224
53fc
1224
1008
17ff
1108
1088
1088
1018
ENDCHAR
STARTCHAR U508D
ENCODING 20621
SWIDTH 960 0
DWIDTH 16 0
BBX 16 16 0 -2
BITMAP
0420
0420
07fe
0888
0850
13fe
1202
3222
5020
13fe
1040
107c
1044
1084
1104
1618
ENDCHAR
STARTCHAR U5091
ENCODING 20625
SWIDTH 960 0
DWIDTH 16 0
BBX 16 16 0 -2
BITMAP
0504
05c4
057f
0b54
0ad4
1494
10bf
3104
5224
1020
17ff
1068
10a4
1122
1221
1020
ENDCHAR
STARTCHAR U5098
ENCODING 20632
SWIDTH 960 0
DWIDTH 16 0
BBX 16 16 0 -2
BITMAP
0080
0080
0140
0630
188c
688b
0888
1494
2aaa
0888
1494
22a2
7fff
0080
0080
0080
ENDCHAR
STARTCHAR U5099
ENCODING 20633
SWIDTH 960 0
DWIDTH 16 0
BBX 16 16 0 -2
BITMAP
0488
0488
07fe
0888
0888
13ff
1200
32fe
5292
12fe
1292
1292
14fe
1492
1892
1086
ENDCHAR
STARTCHAR U509A
ENCODING 20634
SWIDTH 960 0
DWIDTH 16 0
BBX 16 16 0 -2
BITMAP
0910
0910
0910
1fdf
1014
12a4
32a4
3454
5ab4
1294
1108
1188
124c
1214
1422
18c1
ENDCHAR
STARTCHAR U50AC
ENCODING 20652
SWIDTH 960 0
DWIDTH 16 0
BBX 16 16 0 -2
BITMAP
0420
0522
0522
09fe
0888
1090
11fe
3110
5310
15fe
1110
11fe
1110
1110
11ff
1000
ENDCHAR
STARTCHAR U50AD
ENCODING 20653
SWIDTH 960 0
DWIDTH 16 0
BBX 16 16 0 -2
BITMAP
0420
07ff
0610
0afe
0a12
13ff
1212
32fe
5210
12fe
1292
14fe
1492
18fe
1092
1096
ENDCHAR
STARTCHAR U50B2
ENCODING 20658
SWIDTH 960 0
DWIDTH 16 0
BBX 16 16 0 -2
BITMAP
0910
0910
0fd0
091f
1114
17e4
3144
3114
5ff4
1114
11d8
1148
1254
1254
1462
1181
ENDCHAR
STARTCHAR U50B3
ENCODING 20659
SWIDTH 960 0
DWIDTH 16 0
BBX 16 16 0 -2
BITMAP
0420
0420
07ff
0820
0bfc
1224
13fc
3224
53fc
102e
17f9
1008
17fe
1108
1088
1018
ENDCHAR
STARTCHAR U50B4
ENCODING 20660
SWIDTH 960 0
DWIDTH 16 0
BBX 16 16 0 -2
BITMAP
0400
07fe
0600
0a78
0a48
1248
1278
3200
52ee
12aa
12aa
12aa
12ee
1200
13ff
1000
ENDCHAR
STARTCHAR U50B5
ENCODING 20661
SWIDTH 960 0
DWIDTH 16 0
BBX 16 16 0 -2
BITMAP
0420
07fe
0420
09fc
0820
1fff
1000
31fc
5104
11fc
1104
11fc
1104
11fc
108c
1703
ENDCHAR
STARTCHAR U50B7
ENCODING 20663
SWIDTH 960 0
DWIDTH 16 0
BBX 16 16 0 -2
BITMAP
0480
04fe
0500
09f8
0a88
14f8
1088
30f8
5000
17ff
1080
11fe
164a
1192
1622
10cc
ENDCHAR
STARTCHAR U50BE
ENCODING 20670
SWIDTH 960 0
DWIDTH 16 0
BBX 16 16 0 -2
BITMAP
0800
09ff
0810
1420
147e
1542
3642
547e
1442
147e
1542
1542
137e
1014
1022
10c1
ENDCHAR
STARTCHAR U50C2
ENCODING 20674
SWIDTH 960 0
DWIDTH 16 0
BBX 16 16 0 -2
BITMAP
0420
05fe
0522
0fff
0922
11fe
1020
31fe
5122
11fe
1020
17ff
1044
10f8
1034
11c2
ENDCHAR
STARTCHAR U50C5
ENCODING 20677
SWIDTH 960 0
DWIDTH 16 0
BBX 16 16 0 -2
BITMAP
0488
0488
07ff
0888
0bfe
1222
1222
33fe
5020
11fc
1020
11fc
1020
1020
17ff
1000
ENDCHAR
STARTCHAR U50C9
ENCODING 20681
SWIDTH 960 0
DWIDTH 16 0
BBX 16 16 0 -2
BITMAP
0080
0080
0140
0220
0410
1bec
6003
1f7c
1144
1144
1f7c
0410
0618
0924
1142
6080
ENDCHAR
STARTCHAR U50CA
ENCODING 20682
SWIDTH 960 0
DWIDTH 16 0
BBX 16 16 0 -2
BITMAP
0800
0fff
0890
0bfc
1294
1294
33fc
3080
57ff
1108
13f4
1513
19f0
1104
1104
10fc
ENDCHAR
STARTCHAR U50CD
ENCODING 20685
SWIDTH 960 0
DWIDTH 16 0
BBX 16 16 0 -2
BITMAP
08c8
0f08
0908
0fe8
111e
17ea
352a
37ea
552a
17ea
110a
17ca
1132
11d2
1e22
104c
ENDCHAR
STARTCHAR U50CF
ENCODING 20687
SWIDTH 960 0
DWIDTH 16 0
BBX 16 16 0 -2
BITMAP
0440
0478
0488
0b10
0dfe
1122
1122
31fe
50c4
1724
10d8
1738
1054
1192
1611
1060
ENDCHAR
STARTCHAR U50D1
ENCODING 20689
SWIDTH 960 0
DWIDTH 16 0
BBX 16 16 0 -2
BITMAP
040c
05f0
0440
0fff
0888
11fc
168b
30f8
5000
13fe
1202
12fa
128a
12fa
1202
1206
ENDCHAR
STARTCHAR U50D5
ENCODING 20693
SWIDTH 960 0
DWIDTH 16 0
BBX 16 16 0 -2
BITMAP
0450
0652
0554
0850
0fff
1108
1090
37fe
5020
13fc
1020
17ff
1050
1088
1304
1c03
ENDCHAR
STARTCHAR U50D6
ENCODING 20694
SWIDTH 960 0
DWIDTH 16 0
BBX 16 16 0 -2
BITMAP
0420
07ff
0420
0bfc
0800
13fc
1204
33fc
5108
1090
1fff
1000
13fc
1204
13fc
1000
ENDCHAR
STARTCHAR U50DA
ENCODING 20698
SWIDTH 960 0
DWIDTH 16 0
BBX 16 16 0 -2
BITMAP
0420
0420
07ff
0850
0a8a
1104
13fe
3505
51fc
1104
11fc
1028
1124
1222
1422
1060
ENDCHAR
STARTCHAR U50DE
ENCODING 20702
SWIDTH 960 0
DWIDTH 16 0
BBX 16 16 0 -2
BITMAP
0818
0be0
0948
0a44
17f4
1210
3210
33fc
5204
1204
13ff
1425
1495
1a51
1142
110c
ENDCHAR
STARTCHAR U50E3
ENCODING 20707
SWIDTH 960 0
DWIDTH 16 0
BBX 16 16 0 -2
BITMAP
0908
0908
0fde
0908
17ff
1108
328c
3252
5421
19fc
1104
11fc
1104
1104
11fc
1000
ENDCHAR
STARTCHAR U50E5
ENCODING 20709
SWIDTH 960 0
DWIDTH 16 0
BBX 16 16 0 -2
BITMAP
0420
05fc
0420
0bfe
0800
1104
17df
3104
51c4
161f
1000
17ff
1050
1091
1311
1c0f
ENDCHAR
STARTCHAR U50E7
ENCODING 20711
SWIDTH 960 0
DWIDTH 16 0
BBX 16 16 0 -2
BITMAP
0504
0488
07fe
0a22
0bfe
1222
1222
33fe
5000
11fc
1104
11fc
1104
1104
11fc
1000
ENDCHAR
STARTCHAR U50ED
ENCODING 20717
SWIDTH 960 0
DWIDTH 16 0
BBX 16 16 0 -2
BITMAP
0884
0fde
0a94
0a94
17ff
11ac
32cd
3297
5420
11fc
1104
11fc
1104
1104
11fc
1000
ENDCHAR
STARTCHAR U50EE
ENCODING 20718
SWIDTH 960 0
DWIDTH 16 0
BBX 16 16 0 -2
BITMAP
0420
0420
07fe
0888
0fff
1000
11fc
3124
51fc
1124
11fc
1020
13fe
1020
17ff
1000
ENDCHAR
STARTCHAR U50F5
ENCODING 20725
SWIDTH 960 0
DWIDTH 16 0
BBX 16 16 0 -2
BITMAP
0400
07ff
0400
09fc
0924
11fc
1124
37ff
5000
11fc
1124
11fc
1124
11fc
17ff
1000
ENDCHAR
STARTCHAR U50F9
ENCODING 20729
SWIDTH 960 0
DWIDTH 16 0
BBX 16 16 0 -2
BITMAP
0400
07ff
0490
0bfe
0a92
13fe
1000
31fc
5104
11fc
1104
11fc
1104
11fc
108c
1302
ENDCHAR
STARTCHAR U50FB
ENCODING 20731
SWIDTH 960 0
DWIDTH 16 0
BBX 16 16 0 -2
BITMAP
0808
0bc8
0a7f
1242
1262
13d4
3214
327f
5208
17c8
167f
1a48
1248
13c8
1248
1208
ENDCHAR
STARTCHAR U5100
ENCODING 20736
SWIDTH 960 0
DWIDTH 16 0
BBX 16 16 0 -2
BITMAP
0908
0890
1bfe
1020
11f8
3020
37ff
5058
1394
1110
17ff
1112
11cc
170a
1116
1362
ENDCHAR
STARTCHAR U5101
ENCODING 20737
SWIDTH 960 0
DWIDTH 16 0
BBX 16 16 0 -2
BITMAP
0488
0490
05ff
0910
0bfe
1510
11fe
3110
51ff
1000
13de
1252
1252
1272
1202
1206
ENDCHAR
STARTCHAR U5102
ENCODING 20738
SWIDTH 960 0
DWIDTH 16 0
BBX 16 16 0 -2
BITMAP
0450
05fc
0554
09fc
0954
11fc
1000
33ff
5200
12fc
1200
13ff
12a4
1498
18ec
1303
ENDCHAR
STARTCHAR U5104
ENCODING 20740
SWIDTH 960 0
DWIDTH 16 0
BBX 16 16 0 -2
BITMAP
0420
0420
07fe
0904
0888
17ff
1000
31fc
5104
11fc
1104
11fc
12a2
1291
1485
107c
ENDCHAR
STARTCHAR U5109
ENCODING 20745
SWIDTH 960 0
DWIDTH 16 0
BBX 16 16 0 -2
BITMAP
0420
0420
0450
0888
0904
16fb
1000
33de
5252
1252
13de
1108
1108
118c
1252
1421
ENDCHAR
STARTCHAR U5112
ENCODING 20754
SWIDTH 960 0
DWIDTH 16 0
BBX 16 16 0 -2
BITMAP
0400
07fe
0420
0fff
0c21
15ad
1421
31ac
5000
17fe
1020
13fe
1252
1252
1252
1206
ENDCHAR
STARTCHAR U5114
ENCODING 20756
SWIDTH 960 0
DWIDTH 16 0
BBX 16 16 0 -2
BITMAP
0420
07fe
0420
09fc
0800
17ff
1022
33f8
5000
17ff
1004
17ff
14a4
1494
1784
100c
ENDCHAR
STARTCHAR U5115
ENCODING 20757
SWIDTH 960 0
DWIDTH 16 0
BBX 16 16 0 -2
BITMAP
0420
0420
07ff
0851
0fae
12aa
12aa
35ad
5000
1104
11fc
1104
11fc
1104
1204
1404
ENDCHAR
STARTCHAR U5116
ENCODING 20758
SWIDTH 960 0
DWIDTH 16 0
BBX 16 16 0 -2
BITMAP
0808
0fc8
0d08
151f
17d0
3460
37df
5500
17c0
1000
13fe
1252
1252
1252
1fff
1000
ENDCHAR
STARTCHAR U5118
ENCODING 20760
SWIDTH 960 0
DWIDTH 16 0
BBX 16 16 0 -2
BITMAP
0420
05fc
0424
0bff
0824
11fc
1020
37ff
52a4
1252
1402
13fc
1294
1294
1fff
1000
ENDCHAR
STARTCHAR U511A
ENCODING 20762
SWIDTH 960 0
DWIDTH 16 0
BBX 16 16 0 -2
BITMAP
0488
0488
07ff
0888
0bfe
1252
13fe
3000
57ff
1421
147d
10c4
1328
1010
1060
1380
ENDCHAR
STARTCHAR U511F
ENCODING 20767
SWIDTH 960 0
DWIDTH 16 0
BBX 16 16 0 -2
BITMAP
0524
04a8
07fe
0a02
0afa
1088
10f8
31fc
5104
11fc
1104
11fc
1104
11fc
10cc
1302
ENDCHAR
STARTCHAR U5121
ENCODING 20769
SWIDTH 960 0
DWIDTH 16 0
BBX 16 16 0 -2
BITMAP
0400
05fc
0524
09fc
0924
1124
11fc
3000
57df
1555
1555
17df
1555
1555
17df
1000
ENDCHAR
STARTCHAR U512A
ENCODING 20778
SWIDTH 960 0
DWIDTH 16 0
BBX 16 16 0 -2
BITMAP
0400
07ff
0420
09fc
0904
11fc
1104
37ff
54a5
1292
127d
1489
1350
1030
10cc
1703
ENDCHAR
STARTCHAR U5132
ENCODING 20786
SWIDTH 960 0
DWIDTH 16 0
BBX 16 16 0 -2
BITMAP
0808
0b88
083e
1fca
100c
178c
307f
3010
57be
1062
17a2
14be
14a2
14a2
17be
1000
ENDCHAR
STARTCHAR U5137
ENCODING 20791
SWIDTH 960 0
DWIDTH 16 0
BBX 16 16 0 -2
BITMAP
0bdf
0800
0fdf
0c51
1555
1020
33ff
3250
53fe
1252
13fe
1310
15fe
1510
19d1
130f
ENDCHAR
STARTCHAR U513A
ENCODING 20794
SWIDTH 960 0
DWIDTH 16 0
BBX 16 16 0 -2
BITMAP
0a8a
0fea
0a94
0b9f
1134
17d4
3554
37df
5114
17d4
111f
17d4
1294
1254
145f
1800
ENDCHAR
STARTCHAR U513B
ENCODING 20795
SWIDTH 960 0
DWIDTH 16 0
BBX 16 16 0 -2
BITMAP
0524
04a8
07fe
0a8a
0afa
1000
11fc
312c
51b4
11fc
1020
13fe
1020
17ff
1292
1449
ENDCHAR
STARTCHAR U513C
ENCODING 20796
SWIDTH 960 0
DWIDTH 16 0
BBX 16 16 0 -2
BITMAP
0800
0bde
0a52
0bde
1000
17ff
3408
37e8
548f
17f2
154a
15ca
15c4
156c
1bd2
1061
ENDCHAR
STARTCHAR U513F
ENCODING 20799
SWIDTH 960 0
DWIDTH 16 0
BBX 16 16 0 -2
BITMAP
0220
0220
0220
0220
0220
0220
0220
0220
0220
0220
0220
0421
0421
0811
100f
6000
ENDCHAR
STARTCHAR U5140
ENCODING 20800
SWIDTH 960 0
DWIDTH 16 0
BBX 16 16 0 -2
BITMAP
0000
7fff
0220
0220
0220
0220
0220
0220
0220
0220
0220
0420
0421
0811
100f
6000
ENDCHAR
STARTCHAR U5141
ENCODING 20801
SWIDTH 960 0
DWIDTH 16 0
BBX 16 16 0 -2
BITMAP
0100
0100
0140
0220
0218
04f4
7f42
0240
0240
0240
0440
0440
0840
0842
1022
201e
ENDCHAR
STARTCHAR U5143
ENCODING 20803
SWIDTH 960 0
DWIDTH 16 0
BBX 16 16 0 -2
BITMAP
0000
0ff8
0000
0000
0000
0000
7fff
0220
0220
0220
0220
0420
0420
0821
1011
200f
ENDCHAR
STARTCHAR U5144
ENCODING 20804
SWIDTH 960 0
DWIDTH 16 0
BBX 16 16 0 -2
BITMAP
0000
0ff8
0808
0808
0808
0808
0808
0ff8
0240
0240
0240
0440
0442
0842
1022
201e
ENDCHAR
STARTCHAR U5145
ENCODING 20805
SWIDTH 960 0
DWIDTH 16 0
BBX 16 16 0 -2
BITMAP
0080
0080
7fff
0100
0120
0218
0474
1fa2
0120
0120
0120
0220
0222
0422
0822
301e
ENDCHAR
STARTCHAR U5146
ENCODING 20806
SWIDTH 960 0
DWIDTH 16 0
BBX 16 16 0 -2
BITMAP
0240
0240
0244
2244
1248
0a50
0240
0240
0670
1a4c
6242
0440
0440
0841
1021
601f
ENDCHAR
STARTCHAR U5147
ENCODING 20807
SWIDTH 960 0
DWIDTH 16 0
BBX 16 16 0 -2
BITMAP
0020
1028
1648
1148
1088
1148
1228
1c28
1008
1ff8
0240
0240
0440
0842
1022
601e
ENDCHAR
STARTCHAR U5148
ENCODING 20808
SWIDTH 960 0
DWIDTH 16 0
BBX 16 16 0 -2
BITMAP
0080
0480
0480
07fc
0880
0880
1080
7fff
0120
0120
0120
0220
0220
0421
0811
300f
ENDCHAR
STARTCHAR U5149
ENCODING 20809
SWIDTH 960 0
DWIDTH 16 0
BBX 16 16 0 -2
BITMAP
0080
0080
0888
0488
0490
04a0
0080
7fff
0120
0120
0120
0220
0220
0421
0811
300f
ENDCHAR
STARTCHAR U514B
ENCODING 20811
SWIDTH 960 0
DWIDTH 16 0
BBX 16 16 0 -2
BITMAP
0100
0100
7ffe
0100
0100
1ff0
1010
1010
1010
1ff0
0240
0240
0240
0442
1822
601e
ENDCHAR
STARTCHAR U514C
ENCODING 20812
SWIDTH 960 0
DWIDTH 16 0
BBX 16 16 0 -2
BITMAP
01e0
0420
0420
0810
0ff0
1818
2814
4813
0810
0ff0
0240
0240
0240
0441
1821
601f
ENDCHAR
STARTCHAR U514D
ENCODING 20813
SWIDTH 960 0
DWIDTH 16 0
BBX 16 16 0 -2
BITMAP
0100
01e0
0220
0440
0880
3ffc
0884
0884
0884
0ffc
0120
0120
0220
0421
1811
600f
ENDCHAR
STARTCHAR U514E
ENCODING 20814
SWIDTH 960 0
DWIDTH 16 0
BBX 16 16 0 -2
BITMAP
0008
0030
3fc0
0100
0100
1ff8
1108
1108
1108
1ff8
0250
0248
0248
0442
1842
603e
ENDCHAR
STARTCHAR U5150
ENCODING 20816
SWIDTH 960 0
DWIDTH 16 0
BBX 16 16 0 -2
BITMAP
1000
11fc
1104
1104
1104
11fc
1104
1104
1104
11fc
1240
0240
0240
0441
1841
603f
ENDCHAR
STARTCHAR U5152
ENCODING 20818
SWIDTH 960 0
DWIDTH 16 0
BBX 16 16 0 -2
BITMAP
0100
0200
1cfc
1004
1004
1e7c
1004
1004
1004
1ffc
0240
0240
0241
0441
1821
601f
ENDCHAR
STARTCHAR U5154
ENCODING 20820
SWIDTH 960 0
DWIDTH 16 0
BBX 16 16 0 -2
BITMAP
0100
01e0
0220
0440
1880
7ff8
1088
1088
1108
1ff8
0150
0248
0248
0441
1821
601f
ENDCHAR
STARTCHAR U515A
ENCODING 20826
SWIDTH 960 0
DWIDTH 16 0
BBX 16 16 0 -2
BITMAP
0080
0888
0488
0490
7ffe
4002
4ff2
4812
0810
0ff0
0240
0240
0242
0442
1822
601e
ENDCHAR
STARTCHAR U515C
ENCODING 20828
SWIDTH 960 0
DWIDTH 16 0
BBX 16 16 0 -2
BITMAP
0480
0900
33dc
2244
2244
23c4
2244
2244
3bdc
0000
0240
0240
0242
0442
1842
603e
ENDCHAR
STARTCHAR U5162
ENCODING 20834
SWIDTH 960 0
DWIDTH 16 0
BBX 16 16 0 -2
BITMAP
0810
0810
7fff
0810
0810
3e7c
2244
2244
2244
3e7c
1428
1428
1548
2649
2c89
4107
ENDCHAR
STARTCHAR U5165
ENCODING 20837
SWIDTH 960 0
DWIDTH 16 0
BBX 16 16 0 -2
BITMAP
0380
0080
0080
0080
0080
0080
0080
0140
0140
0220
0220
0410
0808
1004
2002
4001
ENDCHAR
STARTCHAR U5168
ENCODING 20840
SWIDTH 960 0
DWIDTH 16 0
BBX 16 16 0 -2
BITMAP
0080
0080
0140
0220
0410
180c
6ffb
0080
0080
0080
1ff8
0080
0080
0080
7fff
0000
ENDCHAR
STARTCHAR U5169
ENCODING 20841
SWIDTH 960 0
DWIDTH 16 0
BBX 16 16 0 -2
BITMAP
0000
7fff
0080
0080
3ffe
2082
2082
2cb2
2492
2492
2aaa
2aaa
31c6
2082
2082
2086
ENDCHAR
STARTCHAR U516A
ENCODING 20842
SWIDTH 960 0
DWIDTH 16 0
BBX 16 16 0 -2
BITMAP
0080
0140
0220
0410
180c
67f3
0000
3e22
2222
2a44
2688
2310
2a88
2644
2222
2622
ENDCHAR
STARTCHAR U516B
ENCODING 20843
SWIDTH 960 0
DWIDTH 16 0
BBX 16 16 0 -2
BITMAP
0000
03e0
0020
0020
0420
0420
0420
0420
0410
0410
0410
0808
0808
1004
2002
4001
ENDCHAR
STARTCHAR U516C
ENCODING 20844
SWIDTH 960 0
DWIDTH 16 0
BBX 16 16 0 -2
BITMAP
01e0
0420
0420
0410
0810
0808
1104
2102
4101
0140
0220
0210
0408
05f8
3e04
0004
ENDCHAR
STARTCHAR U516D
ENCODING 20845
SWIDTH 960 0
DWIDTH 16 0
BBX 16 16 0 -2
BITMAP
0080
0080
0080
0080
7fff
0000
0000
0000
0420
0410
0408
0808
0804
1004
2004
0000
ENDCHAR
STARTCHAR U516E
ENCODING 20846
SWIDTH 960 0
DWIDTH 16 0
BBX 16 16 0 -2
BITMAP
00e0
0220
0210
0410
0ff8
1104
2102
4201
07f8
0408
0008
0008
0008
0010
0010
0060
ENDCHAR
STARTCHAR U5171
ENCODING 20849
SWIDTH 960 0
DWIDTH 16 0
BBX 16 16 0 -2
BITMAP
0420
0420
0420
0420
3ffc
0420
0420
0420
0420
7fff
0000
0420
0410
0808
1004
2004
ENDCHAR
STARTCHAR U5175
ENCODING 20853
SWIDTH 960 0
DWIDTH 16 0
BBX 16 16 0 -2
BITMAP
0010
00e0
0700
0400
07fe
0410
0410
0410
0410
0410
7fff
0000
0220
0418
0804
3002
ENDCHAR
STARTCHAR U5176
ENCODING 20854
SWIDTH 960 0
DWIDTH 16 0
BBX 16 16 0 -2
BITMAP
0410
0410
3ffe
0410
0410
07f0
0410
0410
07f0
0410
0410
7fff
0000
0230
0c0c
3002
ENDCHAR
STARTCHAR U5177
ENCODING 20855
SWIDTH 960 0
DWIDTH 16 0
BBX 16 16 0 -2
BITMAP
0000
0ff0
0810
0810
0ff0
0810
0810
0ff0
0810
0810
0ff0
0000
7fff
0460
1818
6004
ENDCHAR
STARTCHAR U5178
ENCODING 20856
SWIDTH 960 0
DWIDTH 16 0
BBX 16 16 0 -2
BITMAP
0220
0220
0220
1ffc
1224
1224
1224
1ffc
1224
1224
1224
7fff
0000
0630
180c
6002
ENDCHAR
STARTCHAR U517C
ENCODING 20860
SWIDTH 960 0
DWIDTH 16 0
BBX 16 16 0 -2
BITMAP
0810
0420
7ffe
0240
1ff8
0248
0248
7ffe
0248
1ff8
0240
0660
0a50
1248
6246
0240
ENDCHAR
STARTCHAR U5180
ENCODING 20864
SWIDTH 960 0
DWIDTH 16 0
BBX 16 16 0 -2
BITMAP
0222
7e24
0239
0e21
721f
0ff8
0888
0ff8
0888
0ff8
0220
1ffc
0220
7fff
0638
7806
ENDCHAR
STARTCHAR U5182
ENCODING 20866
SWIDTH 960 0
DWIDTH 16 0
BBX 16 16 0 -2
BITMAP
0000
3ffe
2002
2002
2002
2002
2002
2002
2002
2002
2002
2002
2002
2002
2002
2006
ENDCHAR
STARTCHAR U5185
ENCODING 20869
SWIDTH 960 0
DWIDTH 16 0
BBX 16 16 0 -2
BITMAP
0080
0080
0080
3ffe
2082
2082
2142
2142
2222
2412
280a
2002
2002
2002
2002
2006
ENDCHAR
STARTCHAR U5186
ENCODING 20870
SWIDTH 960 0
DWIDTH 16 0
BBX 16 16 0 -2
BITMAP
0000
3ffc
2104
2104
2104
2104
2104
3ffc
2004
2004
2004
2004
2004
2004
2004
200c
ENDCHAR
STARTCHAR U5189
ENCODING 20873
SWIDTH 960 0
DWIDTH 16 0
BBX 16 16 0 -2
BITMAP
0080
0080
0080
1ffc
1084
1084
1ffc
1084
1084
1084
7fff
1004
1004
1004
1004
100c
ENDCHAR
STARTCHAR U518A
ENCODING 20874
SWIDTH 960 0
DWIDTH 16 0
BBX 16 16 0 -2
BITMAP
0000
1ffc
1224
1224
1224
1224
1224
7fff
1224
1224
1224
1224
1224
1224
1224
122c
ENDCHAR
STARTCHAR U518C
ENCODING 20876
SWIDTH 960 0
DWIDTH 16 0
BBX 16 16 0 -2
BITMAP
0000
1e3c
1224
1224
1224
1224
1224
7fff
1224
1224
1224
1224
1244
1244
2684
410c
ENDCHAR
STARTCHAR U518D
ENCODING 20877
SWIDTH 960 0
DWIDTH 16 0
BBX 16 16 0 -2
BITMAP
0000
3ffe
0080
0080
0ff8
0888
0888
0ff8
0888
0888
0888
7fff
0808
0808
0808
0818
ENDCHAR
STARTCHAR U518F
ENCODING 20879
SWIDTH 960 0
DWIDTH 16 0
BBX 16 16 0 -2
BITMAP
0000
3ffe
2222
2222
2222
2226
241e
2802
33e2
2222
2222
2222
23e2
2002
2002
2006
ENDCHAR
STARTCHAR U5190
ENCODING 20880
SWIDTH 960 0
DWIDTH 16 0
BBX 16 16 0 -2
BITMAP
0000
3ffe
2002
2ffa
2002
2ffa
0000
0000
0ff8
0808
0ff8
0808
0ff8
0808
0808
0818
ENDCHAR
STARTCHAR U5191
ENCODING 20881
SWIDTH 960 0
DWIDTH 16 0
BBX 16 16 0 -2
BITMAP
0080
0080
3ffe
2082
3ffe
2082
3ffe
0000
1ffc
1004
17f4
1004
17f4
1004
1004
100c
ENDCHAR
STARTCHAR U5192
ENCODING 20882
SWIDTH 960 0
DWIDTH 16 0
BBX 16 16 0 -2
BITMAP
0000
3ffc
2004
3ffc
2004
3ffc
0000
0ff0
0810
0ff0
0810
0ff0
0810
0810
0ff0
0000
ENDCHAR
STARTCHAR U5193
ENCODING 20883
SWIDTH 960 0
DWIDTH 16 0
BBX 16 16 0 -2
BITMAP
0220
0220
3ffe
0220
1ffc
0220
7fff
0080
0ff8
0888
0ff8
0888
7fff
0808
0808
0818
ENDCHAR
STARTCHAR U5195
ENCODING 20885
SWIDTH 960 0
DWIDTH 16 0
BBX 16 16 0 -2
BITMAP
0000
3ffc
2004
2ff4
2004
2ff4
2204
07c0
1880
7ff0
1110
1110
1ff2
0242
0c42
703e
ENDCHAR
STARTCHAR U5196
ENCODING 20886
SWIDTH 960 0
DWIDTH 16 0
BBX 16 16 0 -2
BITMAP
0000
0000
0000
0000
0000
0000
7ffe
4002
4002
4002
0000
0000
0000
0000
0000
0000
ENDCHAR
STARTCHAR U5197
ENCODING 20887
SWIDTH 960 0
DWIDTH 16 0
BBX 16 16 0 -2
BITMAP
0000
7ffe
4002
4002
43e2
0220
0220
0220
0220
0220
0420
0420
0820
0822
1022
201e
ENDCHAR
STARTCHAR U5199
ENCODING 20889
SWIDTH 960 0
DWIDTH 16 0
BBX 16 16 0 -2
BITMAP
0000
7ffe
4002
4402
47f2
0400
0400
07e0
0020
0020
7ffe
0020
0020
0020
0040
0380
ENDCHAR
STARTCHAR U51A0
ENCODING 20896
SWIDTH 960 0
DWIDTH 16 0
BBX 16 16 0 -2
BITMAP
0000
7ffe
4002
4002
3f08
0008
00fe
7f08
1288
1248
1248
1208
1208
221a
2102
40fe
ENDCHAR
STARTCHAR U51A2
ENCODING 20898
SWIDTH 960 0
DWIDTH 16 0
BBX 16 16 0 -2
BITMAP
0000
7ffe
4002
4002
1ff8
0200
0d08
7148
12d0
0ca0
79a0
0690
0c8c
7083
0080
0300
ENDCHAR
STARTCHAR U51A4
ENCODING 20900
SWIDTH 960 0
DWIDTH 16 0
BBX 16 16 0 -2
BITMAP
0000
7ffe
4102
43e2
0440
1880
7ff8
1108
1108
1ff8
0240
0250
0448
0842
1022
601e
ENDCHAR
STARTCHAR U51A5
ENCODING 20901
SWIDTH 960 0
DWIDTH 16 0
BBX 16 16 0 -2
BITMAP
0000
7ffe
4002
4ff2
0810
0810
0ff0
0810
0810
0ff0
0100
7ffe
0000
0460
1818
6004
ENDCHAR
STARTCHAR U51A6
ENCODING 20902
SWIDTH 960 0
DWIDTH 16 0
BBX 16 16 0 -2
BITMAP
0000
7ffe
4022
4022
3e3c
0020
00f8
7f08
1448
1450
1430
1448
1586
2402
2202
41fe
ENDCHAR
STARTCHAR U51A8
ENCODING 20904
SWIDTH 960 0
DWIDTH 16 0
BBX 16 16 0 -2
BITMAP
0000
7ffe
4002
5ffa
0000
0ff0
0810
0ff0
0000
1ff8
1108
1ff8
1108
1108
1ff8
0000
ENDCHAR
STARTCHAR U51A9
ENCODING 20905
SWIDTH 960 0
DWIDTH 16 0
BBX 16 16 0 -2
BITMAP
0000
7ffe
4102
4202
0cf0
0810
0f70
0810
0ff0
0400
0ffc
1024
6494
1254
1244
2018
ENDCHAR
STARTCHAR U51AA
ENCODING 20906
SWIDTH 960 0
DWIDTH 16 0
BBX 16 16 0 -2
BITMAP
0000
7ffe
4422
3ffc
0810
0ff0
0810
0ff0
0200
7ffe
0910
1ff8
2914
4912
0960
0100
ENDCHAR
STARTCHAR U51AB
ENCODING 20907
SWIDTH 960 0
DWIDTH 16 0
BBX 16 16 0 -2
BITMAP
0000
0200
0100
0080
0080
0000
0000
0020
0020
0040
0080
0080
0100
0200
0400
0000
ENDCHAR
STARTCHAR U51AC
ENCODING 20908
SWIDTH 960 0
DWIDTH 16 0
BBX 16 16 0 -2
BITMAP
0100
0100
01f8
0208
0610
19a0
0040
00a0
0310
0d8c
7043
0020
0600
0180
0060
0010
ENDCHAR
STARTCHAR U51B0
ENCODING 20912
SWIDTH 960 0
DWIDTH 16 0
BBX 16 16 0 -2
BITMAP
0040
2040
1042
1042
0064
0f64
0168
0150
0950
1248
1248
2444
2442
4841
5040
00c0
ENDCHAR
STARTCHAR U51B1
ENCODING 20913
SWIDTH 960 0
DWIDTH 16 0
BBX 16 16 0 -2
BITMAP
0000
27fe
1080
1080
0080
00f8
0088
0908
0908
1108
13f0
2210
2010
4010
4fff
0000
ENDCHAR
STARTCHAR U51B2
ENCODING 20914
SWIDTH 960 0
DWIDTH 16 0
BBX 16 16 0 -2
BITMAP
0020
2020
1020
1020
03fe
0222
0222
0a22
0a22
13fe
1020
2020
2020
4020
4020
0020
ENDCHAR
STARTCHAR U51B3
ENCODING 20915
SWIDTH 960 0
DWIDTH 16 0
BBX 16 16 0 -2
BITMAP
0040
2040
1040
13fc
0044
0044
0044
0844
0fff
1060
1050
2090
2088
4104
4202
0c01
ENDCHAR
STARTCHAR U51B4
ENCODING 20916
SWIDTH 960 0
DWIDTH 16 0
BBX 16 16 0 -2
BITMAP
0000
23fe
1088
0888
0888
0088
0088
0bff
0828
1028
1048
2088
2108
4208
4c08
0018
ENDCHAR
STARTCHAR U51B5
ENCODING 20917
SWIDTH 960 0
DWIDTH 16 0
BBX 16 16 0 -2
BITMAP
0000
23fc
1204
1204
0204
0204
0204
0bfc
0890
1090
1090
2090
2111
4111
4211
040f
ENDCHAR
STARTCHAR U51B6
ENCODING 20918
SWIDTH 960 0
DWIDTH 16 0
BBX 16 16 0 -2
BITMAP
0040
2040
1040
0890
0888
0104
013c
07c2
0802
09fc
1104
1104
2104
2104
41fc
0000
ENDCHAR
STARTCHAR U51B7
ENCODING 20919
SWIDTH 960 0
DWIDTH 16 0
BBX 16 16 0 -2
BITMAP
0040
2060
10a0
1090
1108
01fc
0202
0401
13fc
1044
1044
2044
2058
4040
4040
0040
ENDCHAR
STARTCHAR U51BD
ENCODING 20925
SWIDTH 960 0
DWIDTH 16 0
BBX 16 16 0 -2
BITMAP
0002
2ff2
1212
1212
0212
03d2
0252
1252
1552
1492
2892
2102
4102
4202
4402
1806
ENDCHAR
STARTCHAR U51C4
ENCODING 20932
SWIDTH 960 0
DWIDTH 16 0
BBX 16 16 0 -2
BITMAP
0040
2040
17fe
1040
13f8
0048
0fff
0048
0bf8
1080
1fff
2088
2110
43f0
40c8
0f04
ENDCHAR
STARTCHAR U51C5
ENCODING 20933
SWIDTH 960 0
DWIDTH 16 0
BBX 16 16 0 -2
BITMAP
0000
27fe
1442
1442
07fe
0442
0442
04f2
1492
1492
1492
24f2
2402
4402
47fe
0000
ENDCHAR
STARTCHAR U51C6
ENCODING 20934
SWIDTH 960 0
DWIDTH 16 0
BBX 16 16 0 -2
BITMAP
0088
2088
1110
11fe
0310
0310
0510
01fe
0910
1110
11fe
2110
2110
4110
41ff
0000
ENDCHAR
STARTCHAR U51C9
ENCODING 20937
SWIDTH 960 0
DWIDTH 16 0
BBX 16 16 0 -2
BITMAP
0020
2020
1020
17ff
0000
01fc
0104
0904
0904
11fc
1020
2128
2124
4222
4422
0060
ENDCHAR
STARTCHAR U51CB
ENCODING 20939
SWIDTH 960 0
DWIDTH 16 0
BBX 16 16 0 -2
BITMAP
0000
23fe
1222
1222
02fa
0222
0222
0bfe
0a02
12fa
128a
228a
22fa
4402
4402
0806
ENDCHAR
STARTCHAR U51CC
ENCODING 20940
SWIDTH 960 0
DWIDTH 16 0
BBX 16 16 0 -2
BITMAP
0020
2020
13fe
1020
0020
07ff
0090
0892
094e
1278
1488
2190
2650
4060
4198
0607
ENDCHAR
STARTCHAR U51CD
ENCODING 20941
SWIDTH 960 0
DWIDTH 16 0
BBX 16 16 0 -2
BITMAP
0040
2040
27fe
1040
13fc
0244
03fc
0244
0a44
13fc
10e0
2150
2248
4444
4842
0040
ENDCHAR
STARTCHAR U51D6
ENCODING 20950
SWIDTH 960 0
DWIDTH 16 0
BBX 16 16 0 -2
BITMAP
0088
2090
11fe
1120
03fc
0520
01fc
0920
31fe
4080
0080
7ffe
0080
0080
0080
0080
ENDCHAR
STARTCHAR U51DB
ENCODING 20955
SWIDTH 960 0
DWIDTH 16 0
BBX 16 16 0 -2
BITMAP
0020
27ff
1204
12f4
0294
02f4
0204
0bfc
0800
13fc
1000
2fff
2128
4124
4222
0460
ENDCHAR
STARTCHAR U51DC
ENCODING 20956
SWIDTH 960 0
DWIDTH 16 0
BBX 16 16 0 -2
BITMAP
0020
0020
27ff
2174
1154
1174
0104
01fc
080c
11f0
1020
27ff
2070
41ac
4623
0020
ENDCHAR
STARTCHAR U51DD
ENCODING 20957
SWIDTH 960 0
DWIDTH 16 0
BBX 16 16 0 -2
BITMAP
0400
04be
2702
1414
1488
0384
027f
138a
150c
1128
2fee
2128
22a8
4258
444c
0883
ENDCHAR
STARTCHAR U51E0
ENCODING 20960
SWIDTH 960 0
DWIDTH 16 0
BBX 16 16 0 -2
BITMAP
0000
07e0
0420
0420
0420
0420
0420
0420
0420
0420
0420
0820
0821
1021
201f
4000
ENDCHAR
STARTCHAR U51E1
ENCODING 20961
SWIDTH 960 0
DWIDTH 16 0
BBX 16 16 0 -2
BITMAP
0000
07e0
0420
0420
0420
0620
0520
04a0
04a0
0420
0420
0820
0822
1022
201e
4000
ENDCHAR
STARTCHAR U51E6
ENCODING 20966
SWIDTH 960 0
DWIDTH 16 0
BBX 16 16 0 -2
BITMAP
0800
083c
0824
0f24
0924
1124
1124
2a24
2a24
4444
0445
0a85
0903
1080
2060
401f
ENDCHAR
STARTCHAR U51E7
ENCODING 20967
SWIDTH 960 0
DWIDTH 16 0
BBX 16 16 0 -2
BITMAP
0000
1ff8
1008
1108
1108
17e8
1528
1528
1528
1528
1528
1548
1505
2105
2103
4101
ENDCHAR
STARTCHAR U51E9
ENCODING 20969
SWIDTH 960 0
DWIDTH 16 0
BBX 16 16 0 -2
BITMAP
0000
1ff8
1008
1088
1088
17f8
1088
1088
11c8
11c8
12a8
12a8
1495
2885
2083
4081
ENDCHAR
STARTCHAR U51EA
ENCODING 20970
SWIDTH 960 0
DWIDTH 16 0
BBX 16 16 0 -2
BITMAP
0000
1ff8
1008
1088
1088
1088
1488
1488
14e8
1488
1488
1488
1485
2485
3ffb
4001
ENDCHAR
STARTCHAR U51ED
ENCODING 20973
SWIDTH 960 0
DWIDTH 16 0
BBX 16 16 0 -2
BITMAP
0408
0430
09e0
1020
37ff
5020
1020
13fe
1000
0000
07e0
0420
0420
0822
1022
601e
ENDCHAR
STARTCHAR U51F0
ENCODING 20976
SWIDTH 960 0
DWIDTH 16 0
BBX 16 16 0 -2
BITMAP
0000
1ffc
1084
1104
17f4
1414
17f4
1414
17f4
1004
17f4
1084
13e5
2085
2ffb
4001
ENDCHAR
STARTCHAR U51F1
ENCODING 20977
SWIDTH 960 0
DWIDTH 16 0
BBX 16 16 0 -2
BITMAP
0800
293c
2924
3f24
0024
7fa4
0024
3f24
2124
2124
3f24
2224
1224
15c5
0e45
7083
ENDCHAR
STARTCHAR U51F5
ENCODING 20981
SWIDTH 960 0
DWIDTH 16 0
BBX 16 16 0 -2
BITMAP
2002
2002
2002
2002
2002
2002
2002
2002
2002
2002
2002
2002
2002
2002
3ffe
0000
ENDCHAR
STARTCHAR U51F6
ENCODING 20982
SWIDTH 960 0
DWIDTH 16 0
BBX 16 16 0 -2
BITMAP
0000
0010
2012
2012
2622
21a2
2042
2062
2092
2112
220a
240a
2802
2002
3ffe
0000
ENDCHAR
STARTCHAR U51F8
ENCODING 20984
SWIDTH 960 0
DWIDTH 16 0
BBX 16 16 0 -2
BITMAP
0000
03e0
0220
0220
0220
0220
0220
3e3e
2002
2002
2002
2002
2002
3ffe
0000
0000
ENDCHAR
STARTCHAR U51F9
ENCODING 20985
SWIDTH 960 0
DWIDTH 16 0
BBX 16 16 0 -2
BITMAP
0000
3e3e
2222
2222
2222
2222
2222
2222
23e2
2002
2002
2002
2002
3ffe
0000
0000
ENDCHAR
STARTCHAR U51FA
ENCODING 20986
SWIDTH 960 0
DWIDTH 16 0
BBX 16 16 0 -2
BITMAP
0080
0080
1084
1084
1084
1084
1ffc
0080
0080
2082
2082
2082
2082
2082
3ffe
0000
ENDCHAR
STARTCHAR U51FD
ENCODING 20989
SWIDTH 960 0
DWIDTH 16 0
BBX 16 16 0 -2
BITMAP
0000
7fff
0200
0200
238a
288a
24d2
22c2
20a2
21a2
2692
388a
2302
2002
3ffe
0000
ENDCHAR
STARTCHAR U51FE
ENCODING 20990
SWIDTH 960 0
DWIDTH 16 0
BBX 16 16 0 -2
BITMAP
0000
0ff8
0010
0060
2082
2efa
2a8a
2aaa
2aaa
2ab2
2ed2
288a
2186
2002
3ffe
2002
ENDCHAR
STARTCHAR U5200
ENCODING 20992
SWIDTH 960 0
DWIDTH 16 0
BBX 16 16 0 -2
BITMAP
0000
0000
3ffe
0082
0082
0082
0082
0082
0102
0102
0102
0202
0402
0804
1018
0000
ENDCHAR
STARTCHAR U5203
ENCODING 20995
SWIDTH 960 0
DWIDTH 16 0
BBX 16 16 0 -2
BITMAP
0000
0000
3ffc
0084
0084
0084
0c84
0304
0184
0244
0224
0404
0804
1008
2030
0000
ENDCHAR
STARTCHAR U5204
ENCODING 20996
SWIDTH 960 0
DWIDTH 16 0
BBX 16 16 0 -2
BITMAP
0000
7ffc
0084
0084
1084
0884
0484
0304
0104
0184
0264
021c
0407
0804
1008
2070
ENDCHAR
STARTCHAR U5206
ENCODING 20998
SWIDTH 960 0
DWIDTH 16 0
BBX 16 16 0 -2
BITMAP
03e0
0020
0420
0410
0810
0808
1004
2ff2
4111
0110
0110
0210
0210
0410
0810
1060
ENDCHAR
STARTCHAR U5207
ENCODING 20999
SWIDTH 960 0
DWIDTH 16 0
BBX 16 16 0 -2
BITMAP
1000
11fe
1022
1022
1322
1c22
7022
1022
1022
1022
1242
1242
0e82
0102
0204
0c18
ENDCHAR
STARTCHAR U5208
ENCODING 21000
SWIDTH 960 0
DWIDTH 16 0
BBX 16 16 0 -2
BITMAP
0102
0122
0122
0122
2122
1122
0a22
0622
0222
0522
0522
0882
0882
1082
2002
4006
ENDCHAR
STARTCHAR U520A
ENCODING 21002
SWIDTH 960 0
DWIDTH 16 0
BBX 16 16 0 -2
BITMAP
0002
3fa2
0422
0422
0422
0422
7fe2
0422
0422
0422
0422
0402
0402
0402
0402
0406
ENDCHAR
STARTCHAR U520B
ENCODING 21003
SWIDTH 960 0
DWIDTH 16 0
BBX 16 16 0 -2
BITMAP
0082
0722
7c22
0422
0422
0422
7fa2
0422
0422
0422
0422
0822
0802
1002
2002
4006
ENDCHAR
STARTCHAR U520E
ENCODING 21006
SWIDTH 960 0
DWIDTH 16 0
BBX 16 16 0 -2
BITMAP
1002
1012
1f92
1592
2592
2592
4992
0a92
1292
1292
2492
4492
0882
1082
2082
0306
ENDCHAR
STARTCHAR U5211
ENCODING 21009
SWIDTH 960 0
DWIDTH 16 0
BBX 16 16 0 -2
BITMAP
0002
3fe2
0922
0922
0922
0922
7fe2
0922
0922
0922
0922
0902
1102
1102
2102
4106
ENDCHAR
STARTCHAR U5214
ENCODING 21012
SWIDTH 960 0
DWIDTH 16 0
BBX 16 16 0 -2
BITMAP
0402
0412
0412
3f92
0492
0492
0492
0492
7ff2
0412
0612
0902
0902
1082
2042
4006
ENDCHAR
STARTCHAR U5217
ENCODING 21015
SWIDTH 960 0
DWIDTH 16 0
BBX 16 16 0 -2
BITMAP
0002
7fe2
0822
0822
0822
0f22
1122
1122
2922
4622
0222
0402
0402
0802
1002
2006
ENDCHAR
STARTCHAR U521D
ENCODING 21021
SWIDTH 960 0
DWIDTH 16 0
BBX 16 16 0 -2
BITMAP
0800
0800
09fe
7e22
0222
0422
0522
0922
0e22
1a22
2922
4942
0842
0882
0902
0a0c
ENDCHAR
STARTCHAR U5224
ENCODING 21028
SWIDTH 960 0
DWIDTH 16 0
BBX 16 16 0 -2
BITMAP
0402
0492
2492
1492
1512
0412
7fd2
0412
0412
0412
7fd2
0412
0402
0402
0402
0406
ENDCHAR
STARTCHAR U5225
ENCODING 21029
SWIDTH 960 0
DWIDTH 16 0
BBX 16 16 0 -2
BITMAP
0002
3fa2
20a2
20a2
20a2
3fa2
0822
0822
0fa2
08a2
08a2
0882
1082
1082
2102
4606
ENDCHAR
STARTCHAR U5227
ENCODING 21031
SWIDTH 960 0
DWIDTH 16 0
BBX 16 16 0 -2
BITMAP
0400
047e
0412
3f92
0412
0412
0412
7fd2
0412
0412
0812
0a22
0922
1342
7c82
008c
ENDCHAR
STARTCHAR U5229
ENCODING 21033
SWIDTH 960 0
DWIDTH 16 0
BBX 16 16 0 -2
BITMAP
0082
0322
3c22
0422
0422
0422
7fa2
0c22
0e22
1522
14a2
24a2
4402
0402
0402
0406
ENDCHAR
STARTCHAR U522A
ENCODING 21034
SWIDTH 960 0
DWIDTH 16 0
BBX 16 16 0 -2
BITMAP
0002
3f92
2a92
2a92
2a92
2a92
2a92
7fd2
2a92
2a92
2a92
2a82
2a82
2a82
2a82
2186
ENDCHAR
STARTCHAR U522E
ENCODING 21038
SWIDTH 960 0
DWIDTH 16 0
BBX 16 16 0 -2
BITMAP
0082
0312
3c12
0412
0412
0412
7fd2
0412
0412
0412
1f92
1082
1082
1082
1f82
0006
ENDCHAR
STARTCHAR U5230
ENCODING 21040
SWIDTH 960 0
DWIDTH 16 0
BBX 16 16 0 -2
BITMAP
0002
7fe2
0822
0a22
1122
1322
7ca2
04a2
0422
3fa2
0422
0402
0402
0782
7802
0006
ENDCHAR
STARTCHAR U5233
ENCODING 21043
SWIDTH 960 0
DWIDTH 16 0
BBX 16 16 0 -2
BITMAP
0402
0412
7fd2
0a12
1112
2092
5f52
0012
7fd2
0812
0812
1f02
1102
0102
0102
0606
ENDCHAR
STARTCHAR U5236
ENCODING 21046
SWIDTH 960 0
DWIDTH 16 0
BBX 16 16 0 -2
BITMAP
0202
1212
1212
1fd2
2212
2212
7ff2
0212
1fd2
1252
1252
1252
1242
1382
1202
0206
ENDCHAR
STARTCHAR U5237
ENCODING 21047
SWIDTH 960 0
DWIDTH 16 0
BBX 16 16 0 -2
BITMAP
0002
3f92
2092
2092
3f92
2412
2412
3f92
3492
3492
5492
5492
9482
1582
1402
0406
ENDCHAR
STARTCHAR U5238
ENCODING 21048
SWIDTH 960 0
DWIDTH 16 0
BBX 16 16 0 -2
BITMAP
0888
0488
0490
1ffe
0080
0140
7fff
0220
0410
1ffc
6113
0110
0210
0210
0410
1860
ENDCHAR
STARTCHAR U5239
ENCODING 21049
SWIDTH 960 0
DWIDTH 16 0
BBX 16 16 0 -2
BITMAP
0202
0222
3422
0c22
0a22
1122
2522
4422
7fa2
0422
0e22
1502
2482
4402
0402
0406
ENDCHAR
STARTCHAR U523A
ENCODING 21050
SWIDTH 960 0
DWIDTH 16 0
BBX 16 16 0 -2
BITMAP
0402
0412
7fd2
0412
0412
3f92
2492
2492
2592
2e12
0d12
1492
1482
2402
4402
0406
ENDCHAR
STARTCHAR U523B
ENCODING 21051
SWIDTH 960 0
DWIDTH 16 0
BBX 16 16 0 -2
BITMAP
0402
0422
7fe2
0422
0422
3922
0a22
0622
04a2
08a2
1122
2302
0482
0842
1042
6006
ENDCHAR
STARTCHAR U5243
ENCODING 21059
SWIDTH 960 0
DWIDTH 16 0
BBX 16 16 0 -2
BITMAP
1102
0a12
7f92
0492
0492
3f92
2412
2412
3fd2
0452
0c52
0c42
1442
2582
4402
0406
ENDCHAR
STARTCHAR U5244
ENCODING 21060
SWIDTH 960 0
DWIDTH 16 0
BBX 16 16 0 -2
BITMAP
0002
7f92
0012
1252
1252
6d92
2492
1252
0012
7fd2
0412
0402
0402
0582
1e02
6006
ENDCHAR
STARTCHAR U5247
ENCODING 21063
SWIDTH 960 0
DWIDTH 16 0
BBX 16 16 0 -2
BITMAP
0002
3f22
2122
2122
3f22
2122
2122
2122
3f22
2122
2122
3f22
1222
1102
2102
4006
ENDCHAR
STARTCHAR U524A
ENCODING 21066
SWIDTH 960 0
DWIDTH 16 0
BBX 16 16 0 -2
BITMAP
0802
4922
2922
2a22
0822
3f22
2122
2122
3f22
2122
2122
3f22
2102
2102
2102
2306
ENDCHAR
STARTCHAR U524B
ENCODING 21067
SWIDTH 960 0
DWIDTH 16 0
BBX 16 16 0 -2
BITMAP
0404
0424
7fe4
0424
0424
3fa4
20a4
20a4
20a4
3fa4
0a04
0a04
0a0c
1201
2101
40ff
ENDCHAR
STARTCHAR U524C
ENCODING 21068
SWIDTH 960 0
DWIDTH 16 0
BBX 16 16 0 -2
BITMAP
0402
0412
7fd2
0412
0412
3f92
2492
2492
2492
3f92
0c12
0e02
1502
2482
4402
0406
ENDCHAR
STARTCHAR U524D
ENCODING 21069
SWIDTH 960 0
DWIDTH 16 0
BBX 16 16 0 -2
BITMAP
0810
0410
0420
7fff
0000
3e44
2244
2244
3e44
2244
2244
3e44
2244
2204
2204
260c
ENDCHAR
STARTCHAR U524F
ENCODING 21071
SWIDTH 960 0
DWIDTH 16 0
BBX 16 16 0 -2
BITMAP
2100
117e
1212
7f92
1212
1212
1252
7fb2
1212
121a
1216
1223
1222
2242
2282
430c
ENDCHAR
STARTCHAR U5254
ENCODING 21076
SWIDTH 960 0
DWIDTH 16 0
BBX 16 16 0 -2
BITMAP
0002
1f92
1092
1f92
1092
1092
1f92
0812
0fd2
1552
2552
4942
1242
2442
0842
0186
ENDCHAR
STARTCHAR U5256
ENCODING 21078
SWIDTH 960 0
DWIDTH 16 0
BBX 16 16 0 -2
BITMAP
0402
0412
3fd2
1092
0892
0912
0912
7ff2
0012
0012
1f92
1092
1082
1082
1f82
0006
ENDCHAR
STARTCHAR U525B
ENCODING 21083
SWIDTH 960 0
DWIDTH 16 0
BBX 16 16 0 -2
BITMAP
0002
3fd2
2052
3152
2a52
2052
3fd2
2452
3552
3552
3552
3f42
3142
2042
2042
20c6
ENDCHAR
STARTCHAR U525E
ENCODING 21086
SWIDTH 960 0
DWIDTH 16 0
BBX 16 16 0 -2
BITMAP
0402
0412
7fd2
0412
0a12
3112
0012
7ff2
0092
3c92
2492
2482
3c82
0082
0082
0186
ENDCHAR
STARTCHAR U5263
ENCODING 21091
SWIDTH 960 0
DWIDTH 16 0
BBX 16 16 0 -2
BITMAP
0402
0412
0a12
0912
1092
3f52
4412
3f92
2492
2492
3f92
0612
0502
0882
1082
6006
ENDCHAR
STARTCHAR U5264
ENCODING 21092
SWIDTH 960 0
DWIDTH 16 0
BBX 16 16 0 -2
BITMAP
0402
0412
7ff2
1112
0a12
0612
1992
70f2
1092
1f92
1092
1f82
1082
2082
2082
4086
ENDCHAR
STARTCHAR U5265
ENCODING 21093
SWIDTH 960 0
DWIDTH 16 0
BBX 16 16 0 -2
BITMAP
0002
3f12
0112
3f12
0112
0112
7fd2
0412
4492
2712
2612
0d02
1482
6442
0402
0c06
ENDCHAR
STARTCHAR U5269
ENCODING 21097
SWIDTH 960 0
DWIDTH 16 0
BBX 16 16 0 -2
BITMAP
0102
3e12
0412
7fd2
0412
1552
7592
1512
3552
54d2
0e12
0d02
1482
2442
4402
0406
ENDCHAR
STARTCHAR U526A
ENCODING 21098
SWIDTH 960 0
DWIDTH 16 0
BBX 16 16 0 -2
BITMAP
0410
0220
7fff
1104
1d24
1324
1d24
1324
1124
130c
0000
7ffe
0102
0202
0c02
700c
ENDCHAR
STARTCHAR U526F
ENCODING 21103
SWIDTH 960 0
DWIDTH 16 0
BBX 16 16 0 -2
BITMAP
0002
7fd2
0012
1f12
1112
1112
1f12
0012
3f92
2492
2492
3f92
2482
2482
3f82
0006
ENDCHAR
STARTCHAR U5270
ENCODING 21104
SWIDTH 960 0
DWIDTH 16 0
BBX 16 16 0 -2
BITMAP
0102
1e12
0412
3fd2
1492
1492
7ff2
1492
1492
3fd2
0e12
0d12
1482
2442
4402
0406
ENDCHAR
STARTCHAR U5271
ENCODING 21105
SWIDTH 960 0
DWIDTH 16 0
BBX 16 16 0 -2
BITMAP
0400
047e
0a12
1112
3f92
4452
0412
3fb2
2492
249a
3f96
0413
0a12
1122
2142
408c
ENDCHAR
STARTCHAR U5272
ENCODING 21106
SWIDTH 960 0
DWIDTH 16 0
BBX 16 16 0 -2
BITMAP
0402
7fd2
4052
4452
3f92
0412
3f92
0412
7fd2
0012
1f92
1092
1082
1082
1f82
0006
ENDCHAR
STARTCHAR U5273
ENCODING 21107
SWIDTH 960 0
DWIDTH 16 0
BBX 16 16 0 -2
BITMAP
1102
1112
7fd2
1112
0412
0412
0a12
1112
3f92
4052
0012
3f82
2082
2082
3f82
0006
ENDCHAR
STARTCHAR U5274
ENCODING 21108
SWIDTH 960 0
DWIDTH 16 0
BBX 16 16 0 -2
BITMAP
0402
2492
2492
3f92
0012
7fd2
0012
3f92
2092
2092
3f92
1102
0902
0ac2
0f02
7006
ENDCHAR
STARTCHAR U5275
ENCODING 21109
SWIDTH 960 0
DWIDTH 16 0
BBX 16 16 0 -2
BITMAP
0202
0212
0512
0892
1f52
2032
5f92
1092
1f92
1092
1f92
1012
2f82
2882
4f82
0006
ENDCHAR
STARTCHAR U527D
ENCODING 21117
SWIDTH 960 0
DWIDTH 16 0
BBX 16 16 0 -2
BITMAP
0002
7ff2
0912
3fd2
2952
2952
3fd2
0012
3fd2
0012
7ff2
1292
1242
2242
4202
0606
ENDCHAR
STARTCHAR U527F
ENCODING 21119
SWIDTH 960 0
DWIDTH 16 0
BBX 16 16 0 -2
BITMAP
1282
2492
6d12
1292
3f92
2492
3f92
2492
3f92
0412
7fd2
0e02
1502
2482
4442
0406
ENDCHAR
STARTCHAR U5283
ENCODING 21123
SWIDTH 960 0
DWIDTH 16 0
BBX 16 16 0 -2
BITMAP
0402
3f92
0492
7ff2
0492
3f92
0412
1f12
7fd2
2492
3f92
2492
3f82
0002
7fc2
0006
ENDCHAR
STARTCHAR U5287
ENCODING 21127
SWIDTH 960 0
DWIDTH 16 0
BBX 16 16 0 -2
BITMAP
0402
0792
0412
3fd2
2552
3e12
2492
2392
3fd2
2612
3a52
2542
3b82
2542
5922
0606
ENDCHAR
STARTCHAR U5288
ENCODING 21128
SWIDTH 960 0
DWIDTH 16 0
BBX 16 16 0 -2
BITMAP
0008
1f08
117f
1122
1f14
10ff
1f08
297f
2908
4f08
0000
7ffe
0082
0302
0c02
701c
ENDCHAR
STARTCHAR U5289
ENCODING 21129
SWIDTH 960 0
DWIDTH 16 0
BBX 16 16 0 -2
BITMAP
0802
33c2
2152
2952
3a52
65d2
0412
0b12
10d2
7f12
0412
7fd2
0482
2502
1782
7806
ENDCHAR
STARTCHAR U528D
ENCODING 21133
SWIDTH 960 0
DWIDTH 16 0
BBX 16 16 0 -2
BITMAP
0402
0412
0a12
1112
2092
5f52
0012
3b92
2a92
2a92
3b92
1112
1982
2642
2202
4406
ENDCHAR
STARTCHAR U5291
ENCODING 21137
SWIDTH 960 0
DWIDTH 16 0
BBX 16 16 0 -2
BITMAP
0402
0412
7ff2
0a52
7592
3552
3552
55b2
0012
1092
1f92
1082
1f82
1082
2082
4086
ENDCHAR
STARTCHAR U5292
ENCODING 21138
SWIDTH 960 0
DWIDTH 16 0
BBX 16 16 0 -2
BITMAP
0400
047e
0a12
1112
2092
5f12
0032
3bb2
2ad2
2a92
3b92
1112
19a2
2662
2242
448c
ENDCHAR
STARTCHAR U5294
ENCODING 21140
SWIDTH 960 0
DWIDTH 16 0
BBX 16 16 0 -2
BITMAP
0400
047e
0a12
1112
2092
5f12
0052
3bb2
2a92
2a9a
3b97
1112
19a2
2662
2242
448c
ENDCHAR
STARTCHAR U529B
ENCODING 21147
SWIDTH 960 0
DWIDTH 16 0
BBX 16 16 0 -2
BITMAP
0100
0100
0100
0100
7ffc
0104
0104
0104
0204
0204
0204
0404
0404
0804
1008
2030
ENDCHAR
STARTCHAR U529F
ENCODING 21151
SWIDTH 960 0
DWIDTH 16 0
BBX 16 16 0 -2
BITMAP
0020
0020
0020
7e20
09fe
0822
0822
0822
0822
0822
0e42
1842
6042
0082
0104
0218
ENDCHAR
STARTCHAR U52A0
ENCODING 21152
SWIDTH 960 0
DWIDTH 16 0
BBX 16 16 0 -2
BITMAP
0800
0800
083e
0822
7fa2
08a2
08a2
08a2
08a2
08a2
08a2
08a2
10a2
10be
2080
4300
ENDCHAR
STARTCHAR U52A3
ENCODING 21155
SWIDTH 960 0
DWIDTH 16 0
BBX 16 16 0 -2
BITMAP
0080
0490
0488
0884
1094
21a2
00c2
0740
7840
0040
1ffc
0084
0104
0204
0c04
3018
ENDCHAR
STARTCHAR U52A9
ENCODING 21161
SWIDTH 960 0
DWIDTH 16 0
BBX 16 16 0 -2
BITMAP
0020
3e20
2220
2220
23fe
3e22
2222
2222
3e22
2222
2242
2342
2642
3882
6104
0218
ENDCHAR
STARTCHAR U52AA
ENCODING 21162
SWIDTH 960 0
DWIDTH 16 0
BBX 16 16 0 -2
BITMAP
0400
0400
7ffc
0944
0944
1128
3e10
0568
1886
6080
1ff8
0088
0108
0208
0c08
3030
ENDCHAR
STARTCHAR U52AB
ENCODING 21163
SWIDTH 960 0
DWIDTH 16 0
BBX 16 16 0 -2
BITMAP
0410
0410
0410
3f90
047e
0412
0412
0412
7f92
0412
0412
0a22
0922
1322
7cc2
008c
ENDCHAR
STARTCHAR U52AC
ENCODING 21164
SWIDTH 960 0
DWIDTH 16 0
BBX 16 16 0 -2
BITMAP
0810
0810
0810
1f90
10fe
2092
3e92
5292
1292
1292
1292
1ea2
00a2
00a2
0142
068c
ENDCHAR
STARTCHAR U52AD
ENCODING 21165
SWIDTH 960 0
DWIDTH 16 0
BBX 16 16 0 -2
BITMAP
0010
7f90
0890
0890
08fe
1092
2092
4312
0012
3f12
2112
2122
2122
2122
3f42
008c
ENDCHAR
STARTCHAR U52B1
ENCODING 21169
SWIDTH 960 0
DWIDTH 16 0
BBX 16 16 0 -2
BITMAP
0010
1fd0
1010
1010
1ffe
1412
1412
1792
1492
1492
1492
1492
28a2
28a2
5142
068c
ENDCHAR
STARTCHAR U52B4
ENCODING 21172
SWIDTH 960 0
DWIDTH 16 0
BBX 16 16 0 -2
BITMAP
1104
0884
0888
0890
7ffe
4002
4102
0100
3ff8
0108
0108
0208
0208
0408
1808
6030
ENDCHAR
STARTCHAR U52B5
ENCODING 21173
SWIDTH 960 0
DWIDTH 16 0
BBX 16 16 0 -2
BITMAP
0490
0488
0888
3ffe
0080
0140
7fff
0220
0490
188c
6ff3
0110
0110
0210
0c10
3060
ENDCHAR
STARTCHAR U52B9
ENCODING 21177
SWIDTH 960 0
DWIDTH 16 0
BBX 16 16 0 -2
BITMAP
0410
0410
0410
7f90
127e
1112
1112
2992
2a12
4612
0222
0522
0942
1042
2082
410c
ENDCHAR
STARTCHAR U52BC
ENCODING 21180
SWIDTH 960 0
DWIDTH 16 0
BBX 16 16 0 -2
BITMAP
0810
0810
0810
7f90
08fe
0812
0812
3f12
0012
0012
3f12
2122
2122
2142
3f82
010c
ENDCHAR
STARTCHAR U52BE
ENCODING 21182
SWIDTH 960 0
DWIDTH 16 0
BBX 16 16 0 -2
BITMAP
0410
0410
0410
7ffe
0812
0a12
7212
1492
0c92
0912
1122
2222
0522
08c2
1082
610c
ENDCHAR
STARTCHAR U52C1
ENCODING 21185
SWIDTH 960 0
DWIDTH 16 0
BBX 16 16 0 -2
BITMAP
0010
7f90
0010
1510
157e
2a12
6a12
1512
1512
0012
7f12
0822
0822
0b22
1c42
608c
ENDCHAR
STARTCHAR U52C3
ENCODING 21187
SWIDTH 960 0
DWIDTH 16 0
BBX 16 16 0 -2
BITMAP
0410
0410
3f10
0410
047e
7f92
4092
5e92
0212
0412
07a2
7c22
0422
0442
0482
0d0c
ENDCHAR
STARTCHAR U52C5
ENCODING 21189
SWIDTH 960 0
DWIDTH 16 0
BBX 16 16 0 -2
BITMAP
0410
0410
7fd0
0410
04fe
3f92
2492
2492
3f92
0c12
0e12
1522
14a2
2442
4482
050c
ENDCHAR
STARTCHAR U52C7
ENCODING 21191
SWIDTH 960 0
DWIDTH 16 0
BBX 16 16 0 -2
BITMAP
0000
1ff0
0640
0180
1ff8
1108
1ff8
1108
1108
1ff8
0100
7ffc
0104
0204
0c04
7038
ENDCHAR
STARTCHAR U52C9
ENCODING 21193
SWIDTH 960 0
DWIDTH 16 0
BBX 16 16 0 -2
BITMAP
0810
0810
1e10
1210
2410
7ffe
2492
2492
2492
3f92
0a22
0a22
1244
1299
2101
40ff
ENDCHAR
STARTCHAR U52CD
ENCODING 21197
SWIDTH 960 0
DWIDTH 16 0
BBX 16 16 0 -2
BITMAP
0410
0410
0410
7f90
007e
1f12
1112
1112
1112
1f12
0422
1622
1522
2542
4482
0d0c
ENDCHAR
STARTCHAR U52D2
ENCODING 21202
SWIDTH 960 0
DWIDTH 16 0
BBX 16 16 0 -2
BITMAP
1210
1210
7f10
1210
12fe
1e12
0812
3f12
2912
2912
3f12
0822
7fa2
0842
0882
091c
ENDCHAR
STARTCHAR U52D5
ENCODING 21205
SWIDTH 960 0
DWIDTH 16 0
BBX 16 16 0 -2
BITMAP
0190
1e10
0410
7fd0
047e
1f92
1492
1f92
1492
1492
1f92
0412
3f22
05a2
0e42
708c
ENDCHAR
STARTCHAR U52D7
ENCODING 21207
SWIDTH 960 0
DWIDTH 16 0
BBX 16 16 0 -2
BITMAP
0000
1ff8
1008
1ff8
1008
1ff8
0010
1f10
11fe
1f12
1112
1f22
11a2
1f42
7082
010c
ENDCHAR
STARTCHAR U52D8
ENCODING 21208
SWIDTH 960 0
DWIDTH 16 0
BBX 16 16 0 -2
BITMAP
1110
1110
7f90
1110
1f7e
1112
1f12
1112
7f92
2a12
2a12
2aa2
31a2
2022
3f42
008c
ENDCHAR
STARTCHAR U52D9
ENCODING 21209
SWIDTH 960 0
DWIDTH 16 0
BBX 16 16 0 -2
BITMAP
0040
3f40
027f
1484
0944
0828
7f10
0a6c
0ba3
1c20
19fc
2824
2824
4844
0884
1918
ENDCHAR
STARTCHAR U52DD
ENCODING 21213
SWIDTH 960 0
DWIDTH 16 0
BBX 16 16 0 -2
BITMAP
0020
3d24
24a8
2420
25fe
3c20
2430
27ff
2448
3ca4
25fe
2625
2424
2444
2484
4d18
ENDCHAR
STARTCHAR U52DE
ENCODING 21214
SWIDTH 960 0
DWIDTH 16 0
BBX 16 16 0 -2
BITMAP
0410
1554
1554
2a28
1144
2080
7ffe
4102
4102
3ff8
0108
0108
0208
0408
1808
6030
ENDCHAR
STARTCHAR U52DF
ENCODING 21215
SWIDTH 960 0
DWIDTH 16 0
BBX 16 16 0 -2
BITMAP
0220
7fff
0220
0ff8
0808
0ff8
0808
0ff8
0100
7fff
0490
1ffc
6113
0210
0c10
3060
ENDCHAR
STARTCHAR U52E0
ENCODING 21216
SWIDTH 960 0
DWIDTH 16 0
BBX 16 16 0 -2
BITMAP
0010
7f90
2a90
4c90
19fe
6a92
0c92
0a12
1112
6492
0a12
3492
0922
3222
0c42
708c
ENDCHAR
STARTCHAR U52E2
ENCODING 21218
SWIDTH 960 0
DWIDTH 16 0
BBX 16 16 0 -2
BITMAP
0410
3f10
0410
7ffc
1514
15d4
3f24
44b4
074d
7985
0103
3ff8
0108
0208
0c08
3030
ENDCHAR
STARTCHAR U52E3
ENCODING 21219
SWIDTH 960 0
DWIDTH 16 0
BBX 16 16 0 -2
BITMAP
0410
3f10
0410
3f10
047e
7f92
0012
1f12
1112
1f12
1112
1f12
1122
1f22
1942
608c
ENDCHAR
STARTCHAR U52E4
ENCODING 21220
SWIDTH 960 0
DWIDTH 16 0
BBX 16 16 0 -2
BITMAP
1110
1110
7fd0
1110
007e
3f92
2492
2492
3f92
0412
3f92
0422
3fa2
0422
0742
788c
ENDCHAR
STARTCHAR U52E6
ENCODING 21222
SWIDTH 960 0
DWIDTH 16 0
BBX 16 16 0 -2
BITMAP
1290
2490
6d10
1290
3ffe
2492
3f92
2492
3f92
0412
7fd2
0d12
14a2
2422
4442
048c
ENDCHAR
STARTCHAR U52E7
ENCODING 21223
SWIDTH 960 0
DWIDTH 16 0
BBX 16 16 0 -2
BITMAP
1010
1010
1f90
2410
247e
5f92
0912
1212
3f92
5212
1f22
1222
1f22
1242
1fc2
008c
ENDCHAR
STARTCHAR U52F2
ENCODING 21234
SWIDTH 960 0
DWIDTH 16 0
BBX 16 16 0 -2
BITMAP
0110
3e10
0410
7f90
047e
3f12
2512
3f12
2512
3f22
1e22
074c
7800
1224
2112
4111
ENDCHAR
STARTCHAR U52F3
ENCODING 21235
SWIDTH 960 0
DWIDTH 16 0
BBX 16 16 0 -2
BITMAP
0210
3c10
0810
7f90
087e
3f12
3b12
2d12
3f12
0812
3f12
0812
7fa2
3522
2a42
4a8c
ENDCHAR
STARTCHAR U52F5
ENCODING 21237
SWIDTH 960 0
DWIDTH 16 0
BBX 16 16 0 -2
BITMAP
0008
3fc8
2508
3fc8
257e
2f8a
2a8a
2f8a
2a8a
2f8a
220a
3fd2
3552
5ee2
1042
10cc
ENDCHAR
STARTCHAR U52F8
ENCODING 21240
SWIDTH 960 0
DWIDTH 16 0
BBX 16 16 0 -2
BITMAP
0910
7fd0
0910
3b90
2afe
3b92
1212
1412
3f92
6412
3f12
2412
3f22
2422
3fc2
008c
ENDCHAR
STARTCHAR U52F9
ENCODING 21241
SWIDTH 960 0
DWIDTH 16 0
BBX 16 16 0 -2
BITMAP
0800
0800
0ffe
0802
1002
1002
2002
4002
0002
0002
0002
0002
0002
0002
0004
0038
ENDCHAR
STARTCHAR U52FA
ENCODING 21242
SWIDTH 960 0
DWIDTH 16 0
BBX 16 16 0 -2
BITMAP
0400
0400
0400
07fe
0802
0802
1002
2302
4082
0042
0042
0002
0002
0002
0004
0018
ENDCHAR
STARTCHAR U52FE
ENCODING 21246
SWIDTH 960 0
DWIDTH 16 0
BBX 16 16 0 -2
BITMAP
0800
0800
0800
0ffe
0902
1102
1102
2102
4242
0222
0222
04f2
1f12
0002
0004
0038
ENDCHAR
STARTCHAR U52FF
ENCODING 21247
SWIDTH 960 0
DWIDTH 16 0
BBX 16 16 0 -2
BITMAP
0800
0800
0800
0ffc
1224
1224
2224
4444
0444
0844
1084
2084
0104
0204
0408
0030
ENDCHAR
STARTCHAR U5301
ENCODING 21249
SWIDTH 960 0
DWIDTH 16 0
BBX 16 16 0 -2
BITMAP
0800
0800
0ffc
0884
1884
1484
2484
4284
0104
0184
0164
021c
0407
1804
6008
0070
ENDCHAR
STARTCHAR U5302
ENCODING 21250
SWIDTH 960 0
DWIDTH 16 0
BBX 16 16 0 -2
BITMAP
0800
0800
0800
0ffe
1402
1402
2422
44c2
0702
0402
0412
0412
03f2
0002
0004
0018
ENDCHAR
STARTCHAR U5305
ENCODING 21253
SWIDTH 960 0
DWIDTH 16 0
BBX 16 16 0 -2
BITMAP
0400
0400
07fc
0804
0804
1fe4
2024
4024
0024
0fe8
0830
0800
0800
0802
0402
03fe
ENDCHAR
STARTCHAR U5306
ENCODING 21254
SWIDTH 960 0
DWIDTH 16 0
BBX 16 16 0 -2
BITMAP
0800
0800
0ffe
0922
1122
1122
2122
4e22
0322
04c2
1862
6092
0102
0602
1804
0018
ENDCHAR
STARTCHAR U5308
ENCODING 21256
SWIDTH 960 0
DWIDTH 16 0
BBX 16 16 0 -2
BITMAP
0800
0800
0ffe
0802
1022
1222
294a
48ca
08ca
08aa
092a
0a0a
0ffa
0002
0004
0018
ENDCHAR
STARTCHAR U530D
ENCODING 21261
SWIDTH 960 0
DWIDTH 16 0
BBX 16 16 0 -2
BITMAP
0800
0800
0ffe
0842
1122
1ffa
2102
5ff2
1112
1ff2
1112
1ff2
1112
1112
1134
0018
ENDCHAR
STARTCHAR U530F
ENCODING 21263
SWIDTH 960 0
DWIDTH 16 0
BBX 16 16 0 -2
BITMAP
0820
0820
7f3e
1422
1242
217a
7eca
004a
7f7a
1042
1042
3e4c
2240
0241
0221
0c1f
ENDCHAR
STARTCHAR U5310
ENCODING 21264
SWIDTH 960 0
DWIDTH 16 0
BBX 16 16 0 -2
BITMAP
0800
0800
0ffe
1002
1ff2
2002
4fe2
0822
0fe2
0002
1ff2
1112
1ff2
1112
1ff4
0018
ENDCHAR
STARTCHAR U5315
ENCODING 21269
SWIDTH 960 0
DWIDTH 16 0
BBX 16 16 0 -2
BITMAP
0800
0800
0800
0804
0808
0810
0860
0980
0e00
3800
0800
0800
0802
0802
0402
03fe
ENDCHAR
STARTCHAR U5316
ENCODING 21270
SWIDTH 960 0
DWIDTH 16 0
BBX 16 16 0 -2
BITMAP
0240
0240
0242
0442
0444
0844
0848
1850
2860
4840
0840
0840
0841
0841
0821
081f
ENDCHAR
STARTCHAR U5317
ENCODING 21271
SWIDTH 960 0
DWIDTH 16 0
BBX 16 16 0 -2
BITMAP
0440
0440
0440
0444
0444
7c48
0450
0460
0440
0440
0c40
1442
6442
0422
041e
0400
ENDCHAR
STARTCHAR U5319
ENCODING 21273
SWIDTH 960 0
DWIDTH 16 0
BBX 16 16 0 -2
BITMAP
0020
1f20
1120
1f22
1124
1138
1f20
0020
7fa0
1422
1422
17a2
1c1e
2400
2300
40ff
ENDCHAR
STARTCHAR U531A
ENCODING 21274
SWIDTH 960 0
DWIDTH 16 0
BBX 16 16 0 -2
BITMAP
0000
3ffe
2000
2000
2000
2000
2000
2000
2000
2000
2000
2000
2000
2000
3ffe
0000
ENDCHAR
STARTCHAR U531D
ENCODING 21277
SWIDTH 960 0
DWIDTH 16 0
BBX 16 16 0 -2
BITMAP
0000
3ffe
2000
2040
2040
27fc
2444
2444
2444
2444
2458
2440
2040
2040
3fff
0000
ENDCHAR
STARTCHAR U5320
ENCODING 21280
SWIDTH 960 0
DWIDTH 16 0
BBX 16 16 0 -2
BITMAP
0000
3ffe
2008
2070
2780
2400
27fc
2420
2420
2420
2420
2820
2820
3020
3ffe
0000
ENDCHAR
STARTCHAR U5321
ENCODING 21281
SWIDTH 960 0
DWIDTH 16 0
BBX 16 16 0 -2
BITMAP
0000
3ffe
2000
2000
2ff8
2080
2080
27f0
2080
2080
2080
2ffc
2000
2000
3ffe
0000
ENDCHAR
STARTCHAR U5323
ENCODING 21283
SWIDTH 960 0
DWIDTH 16 0
BBX 16 16 0 -2
BITMAP
0000
3ffe
2000
27fc
2444
2444
27fc
2444
2444
27fc
2040
2040
2040
2040
3fff
0000
ENDCHAR
STARTCHAR U532A
ENCODING 21290
SWIDTH 960 0
DWIDTH 16 0
BBX 16 16 0 -2
BITMAP
0000
3ffe
2120
2120
2f3c
2120
2120
2f3c
2120
23a0
2d3e
2220
2220
2400
3ffe
0000
ENDCHAR
STARTCHAR U532F
ENCODING 21295
SWIDTH 960 0
DWIDTH 16 0
BBX 16 16 0 -2
BITMAP
0000
3fff
2800
2488
2090
31fe
2920
23fc
2120
25fc
2920
2920
31fe
2000
3fff
2000
ENDCHAR
STARTCHAR U5331
ENCODING 21297
SWIDTH 960 0
DWIDTH 16 0
BBX 16 16 0 -2
BITMAP
0000
3fff
2040
23fc
2244
23fc
2040
2fff
2108
21f8
2108
21f8
2198
2604
3fff
2000
ENDCHAR
STARTCHAR U5333
ENCODING 21299
SWIDTH 960 0
DWIDTH 16 0
BBX 16 16 0 -2
BITMAP
0000
3fff
2040
20a0
2110
27ec
3803
27bc
24a4
27bc
2208
230c
2492
2820
3fff
2000
ENDCHAR
STARTCHAR U5338
ENCODING 21304
SWIDTH 960 0
DWIDTH 16 0
BBX 16 16 0 -2
BITMAP
0000
7fff
1000
1000
1000
1000
1000
1000
1000
1000
1000
1000
1000
0800
07fe
0000
ENDCHAR
STARTCHAR U5339
ENCODING 21305
SWIDTH 960 0
DWIDTH 16 0
BBX 16 16 0 -2
BITMAP
0000
0000
7fff
4220
4220
4220
4220
4420
4422
4822
501e
4000
4000
7fff
0000
0000
ENDCHAR
STARTCHAR U533A
ENCODING 21306
SWIDTH 960 0
DWIDTH 16 0
BBX 16 16 0 -2
BITMAP
0000
3ffe
2008
2008
2008
2010
2e10
21a0
2040
20a0
2110
2208
2408
2800
3fff
0000
ENDCHAR
STARTCHAR U533B
ENCODING 21307
SWIDTH 960 0
DWIDTH 16 0
BBX 16 16 0 -2
BITMAP
0000
3ffe
2100
2100
23fc
2440
2840
3ffe
20a0
2090
2108
2204
2404
2800
3ffe
0000
ENDCHAR
STARTCHAR U533F
ENCODING 21311
SWIDTH 960 0
DWIDTH 16 0
BBX 16 16 0 -2
BITMAP
0000
3ffe
2000
2210
3ffe
2290
2080
3ffe
2100
23f8
2608
3a08
23f8
2000
3ffe
0000
ENDCHAR
STARTCHAR U5340
ENCODING 21312
SWIDTH 960 0
DWIDTH 16 0
BBX 16 16 0 -2
BITMAP
0000
7fff
2000
23f0
2210
2210
23f0
2000
2f3c
2924
2924
2924
2f3c
2000
3fff
0000
ENDCHAR
STARTCHAR U5341
ENCODING 21313
SWIDTH 960 0
DWIDTH 16 0
BBX 16 16 0 -2
BITMAP
0080
0080
0080
0080
0080
0080
7fff
0080
0080
0080
0080
0080
0080
0080
0080
0080
ENDCHAR
STARTCHAR U5343
ENCODING 21315
SWIDTH 960 0
DWIDTH 16 0
BBX 16 16 0 -2
BITMAP
0008
0030
1fc0
0080
0080
0080
0080
7fff
0080
0080
0080
0080
0080
0080
0080
0080
ENDCHAR
STARTCHAR U5345
ENCODING 21317
SWIDTH 960 0
DWIDTH 16 0
BBX 16 16 0 -2
BITMAP
0888
0888
0888
0888
0888
0888
7fff
0888
0888
0888
0888
0888
1088
1088
2088
4088
ENDCHAR
STARTCHAR U5346
ENCODING 21318
SWIDTH 960 0
DWIDTH 16 0
BBX 16 16 0 -2
BITMAP
0200
0200
7fe0
0220
0220
0420
0822
1112
610e
0100
7ffe
0100
0100
0100
0100
0100
ENDCHAR
STARTCHAR U5347
ENCODING 21319
SWIDTH 960 0
DWIDTH 16 0
BBX 16 16 0 -2
BITMAP
0010
0090
0310
3c10
0410
0410
0410
7fff
0410
0410
0410
0410
0810
0810
1010
2010
ENDCHAR
STARTCHAR U5348
ENCODING 21320
SWIDTH 960 0
DWIDTH 16 0
BBX 16 16 0 -2
BITMAP
0400
0400
07fc
0880
0880
1080
2080
0080
7fff
0080
0080
0080
0080
0080
0080
0080
ENDCHAR
STARTCHAR U5349
ENCODING 21321
SWIDTH 960 0
DWIDTH 16 0
BBX 16 16 0 -2
BITMAP
0080
0080
1ffc
0080
0080
0488
0408
0408
7fff
0408
0408
0408
0808
0808
1008
2008
ENDCHAR
STARTCHAR U534A
ENCODING 21322
SWIDTH 960 0
DWIDTH 16 0
BBX 16 16 0 -2
BITMAP
0080
0084
1084
0888
0490
0480
3ffe
0080
0080
0080
7fff
0080
0080
0080
0080
0080
ENDCHAR
STARTCHAR U534D
ENCODING 21325
SWIDTH 960 0
DWIDTH 16 0
BBX 16 16 0 -2
BITMAP
0002
7f82
0082
0082
0082
0082
0082
3ffe
2080
2080
2080
2080
2080
2080
20ff
2000
ENDCHAR
STARTCHAR U5351
ENCODING 21329
SWIDTH 960 0
DWIDTH 16 0
BBX 16 16 0 -2
BITMAP
0080
0100
0ffc
0884
0884
0ffc
0884
0884
0ffc
0240
0440
7fff
0040
0040
0040
0040
ENDCHAR
STARTCHAR U5352
ENCODING 21330
SWIDTH 960 0
DWIDTH 16 0
BBX 16 16 0 -2
BITMAP
0080
0080
3ffe
0410
0410
0618
0924
10c2
2080
7fff
0080
0080
0080
0080
0080
0080
ENDCHAR
STARTCHAR U5353
ENCODING 21331
SWIDTH 960 0
DWIDTH 16 0
BBX 16 16 0 -2
BITMAP
0080
0080
00fc
0080
0ff8
0808
0808
0ff8
0808
0808
0ff8
0080
7fff
0080
0080
0080
ENDCHAR
STARTCHAR U5354
ENCODING 21332
SWIDTH 960 0
DWIDTH 16 0
BBX 16 16 0 -2
BITMAP
1040
1040
13fc
1044
1044
7c84
1118
1208
1208
1fff
1249
1249
1249
1449
1451
19a6
ENDCHAR
STARTCHAR U5357
ENCODING 21335
SWIDTH 960 0
DWIDTH 16 0
BBX 16 16 0 -2
BITMAP
0080
0080
7fff
0080
0080
1ffc
1224
1144
17f4
1084
1084
1ffc
1084
1084
1084
108c
ENDCHAR
STARTCHAR U5358
ENCODING 21336
SWIDTH 960 0
DWIDTH 16 0
BBX 16 16 0 -2
BITMAP
0908
0488
0490
0ffc
0884
0884
0ffc
0884
0884
0ffc
0080
0080
7fff
0080
0080
0080
ENDCHAR
STARTCHAR U535A
ENCODING 21338
SWIDTH 960 0
DWIDTH 16 0
BBX 16 16 0 -2
BITMAP
1028
1024
17ff
1020
11fe
1122
7dfe
1122
11fe
1008
17ff
1108
1088
1088
1008
1018
ENDCHAR
STARTCHAR U535C
ENCODING 21340
SWIDTH 960 0
DWIDTH 16 0
BBX 16 16 0 -2
BITMAP
0200
0200
0200
0200
0200
0380
0240
0220
0210
0208
0200
0200
0200
0200
0200
0200
ENDCHAR
STARTCHAR U535E
ENCODING 21342
SWIDTH 960 0
DWIDTH 16 0
BBX 16 16 0 -2
BITMAP
0080
0080
7fff
0080
0080
0080
00c0
00b0
0088
0084
0080
0080
0080
0080
0080
0080
ENDCHAR
STARTCHAR U5360
ENCODING 21344
SWIDTH 960 0
DWIDTH 16 0
BBX 16 16 0 -2
BITMAP
0100
0100
0100
0100
01ff
0100
0100
0100
0100
1ff8
1008
1008
1008
1008
1ff8
0000
ENDCHAR
STARTCHAR U5366
ENCODING 21350
SWIDTH 960 0
DWIDTH 16 0
BBX 16 16 0 -2
BITMAP
0410
0410
3f90
0410
0410
0418
7fd4
0412
0412
3f90
0410
0410
05d0
0e10
7010
0010
ENDCHAR
STARTCHAR U5369
ENCODING 21353
SWIDTH 960 0
DWIDTH 16 0
BBX 16 16 0 -2
BITMAP
0000
0ff0
0810
0810
0810
0810
0810
0810
0810
0810
0810
08e0
0800
0800
0800
0800
ENDCHAR
STARTCHAR U536E
ENCODING 21358
SWIDTH 960 0
DWIDTH 16 0
BBX 16 16 0 -2
BITMAP
0008
0070
1f80
1000
1000
1fff
1000
13f8
1208
1208
1208
1238
2202
2202
4102
00fe
ENDCHAR
STARTCHAR U536F
ENCODING 21359
SWIDTH 960 0
DWIDTH 16 0
BBX 16 16 0 -2
BITMAP
0200
0c00
307c
2244
2244
2244
2244
2244
2244
2244
3e44
6244
0458
0440
0840
1040
ENDCHAR
STARTCHAR U5370
ENCODING 21360
SWIDTH 960 0
DWIDTH 16 0
BBX 16 16 0 -2
BITMAP
0100
0600
387e
2042
2042
2042
3f42
2042
2042
2042
2042
3f5c
0040
0040
0040
0040
ENDCHAR
STARTCHAR U5371
ENCODING 21361
SWIDTH 960 0
DWIDTH 16 0
BBX 16 16 0 -2
BITMAP
0400
07f0
0820
1040
3ffe
5000
1000
13f8
1208
1208
1208
1230
2202
2202
4102
00fe
ENDCHAR
STARTCHAR U5373
ENCODING 21363
SWIDTH 960 0
DWIDTH 16 0
BBX 16 16 0 -2
BITMAP
0000
1fbe
10a2
10a2
1fa2
10a2
10a2
10a2
1fa2
1422
1222
1122
16ac
18a0
6020
0020
ENDCHAR
STARTCHAR U5374
ENCODING 21364
SWIDTH 960 0
DWIDTH 16 0
BBX 16 16 0 -2
BITMAP
0400
043e
3fa2
0422
0422
0422
0422
7fe2
0822
0a22
0922
1122
13ac
7ca0
00a0
0020
ENDCHAR
STARTCHAR U5375
ENCODING 21365
SWIDTH 960 0
DWIDTH 16 0
BBX 16 16 0 -2
BITMAP
0200
0400
183e
1122
1122
1122
1932
152a
152a
1122
1122
1f22
622c
0220
0420
0820
ENDCHAR
STARTCHAR U5377
ENCODING 21367
SWIDTH 960 0
DWIDTH 16 0
BBX 16 16 0 -2
BITMAP
0490
0488
0888
3ffe
0080
0140
7fff
0220
0410
1ffc
6413
0410
0460
0404
0204
01fc
ENDCHAR
STARTCHAR U5378
ENCODING 21368
SWIDTH 960 0
DWIDTH 16 0
BBX 16 16 0 -2
BITMAP
1000
103e
1fa2
1422
2422
4422
7fe2
0422
2422
27a2
2422
2422
27bc
3c20
6020
0020
ENDCHAR
STARTCHAR U537B
ENCODING 21371
SWIDTH 960 0
DWIDTH 16 0
BBX 16 16 0 -2
BITMAP
0400
0a3e
0922
10a2
24a2
4a22
0922
10a2
10a2
3f22
5122
1122
112c
1120
1f20
0020
ENDCHAR
STARTCHAR U537F
ENCODING 21375
SWIDTH 960 0
DWIDTH 16 0
BBX 16 16 0 -2
BITMAP
0400
0bde
3252
2a52
2bd2
2a52
2a52
2bd2
2a12
2b12
3a92
6a52
0bdc
1630
1010
2010
ENDCHAR
STARTCHAR U5382
ENCODING 21378
SWIDTH 960 0
DWIDTH 16 0
BBX 16 16 0 -2
BITMAP
0000
1ffe
1000
1000
1000
1000
1000
1000
1000
1000
1000
1000
2000
2000
4000
0000
ENDCHAR
STARTCHAR U5384
ENCODING 21380
SWIDTH 960 0
DWIDTH 16 0
BBX 16 16 0 -2
BITMAP
0000
1fff
1000
1000
13f8
1208
1208
1208
1208
1208
1230
1202
2202
2102
40fe
0000
ENDCHAR
STARTCHAR U5396
ENCODING 21398
SWIDTH 960 0
DWIDTH 16 0
BBX 16 16 0 -2
BITMAP
0000
1fff
1004
1284
1248
1212
1fe2
1204
1209
1311
1522
1504
2508
2931
4901
10ff
ENDCHAR
STARTCHAR U5398
ENCODING 21400
SWIDTH 960 0
DWIDTH 16 0
BBX 16 16 0 -2
BITMAP
0000
1fff
1000
13fc
1244
13fc
1244
1244
13fc
1040
1040
17fe
2040
2040
5fff
0000
ENDCHAR
STARTCHAR U539A
ENCODING 21402
SWIDTH 960 0
DWIDTH 16 0
BBX 16 16 0 -2
BITMAP
0000
1ffe
1000
13f8
1208
13f8
1208
13f8
1000
17f8
1020
1040
2fff
2040
4040
00c0
ENDCHAR
STARTCHAR U539F
ENCODING 21407
SWIDTH 960 0
DWIDTH 16 0
BBX 16 16 0 -2
BITMAP
0000
1fff
1040
1080
13f8
1208
13f8
1208
1208
13f8
1040
1248
2244
2442
4842
00c0
ENDCHAR
STARTCHAR U53A0
ENCODING 21408
SWIDTH 960 0
DWIDTH 16 0
BBX 16 16 0 -2
BITMAP
0000
1fff
1000
17c2
1452
1452
17d2
1452
1452
17d2
1452
1452
27c2
2282
4442
0806
ENDCHAR
STARTCHAR U53A5
ENCODING 21413
SWIDTH 960 0
DWIDTH 16 0
BBX 16 16 0 -2
BITMAP
0000
1fff
1450
1250
1290
1fdf
1121
156a
1548
1548
1548
17d4
2214
2224
4442
0881
ENDCHAR
STARTCHAR U53A6
ENCODING 21414
SWIDTH 960 0
DWIDTH 16 0
BBX 16 16 0 -2
BITMAP
0000
1fff
1000
1fff
1040
13fc
1204
13fc
1204
13fc
1040
10fc
2388
2c70
40d8
1f07
ENDCHAR
STARTCHAR U53A8
ENCODING 21416
SWIDTH 960 0
DWIDTH 16 0
BBX 16 16 0 -2
BITMAP
0000
1fff
1000
1004
1fc4
1004
17ff
1484
14c4
17a4
1024
1484
2284
2364
4384
1c0c
ENDCHAR
STARTCHAR U53A9
ENCODING 21417
SWIDTH 960 0
DWIDTH 16 0
BBX 16 16 0 -2
BITMAP
0000
1fff
1000
17be
14a8
14a8
17a8
14a8
14ff
1788
1418
1518
24a8
25a9
4649
1887
ENDCHAR
STARTCHAR U53AD
ENCODING 21421
SWIDTH 960 0
DWIDTH 16 0
BBX 16 16 0 -2
BITMAP
0000
3fff
2000
2f8a
2889
2f88
28ff
2f88
2008
2f8c
2894
2f94
2894
2fa2
48c2
4981
ENDCHAR
STARTCHAR U53AE
ENCODING 21422
SWIDTH 960 0
DWIDTH 16 0
BBX 16 16 0 -2
BITMAP
0000
1fff
1002
1484
1498
1ff0
149f
1792
1492
1792
1492
1492
3fe2
2522
48c2
1082
ENDCHAR
STARTCHAR U53B0
ENCODING 21424
SWIDTH 960 0
DWIDTH 16 0
BBX 16 16 0 -2
BITMAP
0000
3fff
2108
2548
2548
292f
2112
2fd2
2852
2bea
2aca
2ac4
2bc4
284a
4852
08e1
ENDCHAR
STARTCHAR U53B3
ENCODING 21427
SWIDTH 960 0
DWIDTH 16 0
BBX 16 16 0 -2
BITMAP
0884
0448
1fff
1010
17d0
1110
1fdf
14a4
17a4
14d4
1794
1488
24c8
2794
5ca2
00c1
ENDCHAR
STARTCHAR U53B6
ENCODING 21430
SWIDTH 960 0
DWIDTH 16 0
BBX 16 16 0 -2
BITMAP
0100
0100
0100
0100
0100
0100
0100
0200
0220
0210
0208
0408
043c
09c4
7e02
0002
ENDCHAR
STARTCHAR U53BB
ENCODING 21435
SWIDTH 960 0
DWIDTH 16 0
BBX 16 16 0 -2
BITMAP
0080
0080
0080
1ffc
0080
0080
0080
0080
7fff
0100
0120
0210
0208
04f8
3f04
0004
ENDCHAR
STARTCHAR U53C2
ENCODING 21442
SWIDTH 960 0
DWIDTH 16 0
BBX 16 16 0 -2
BITMAP
0100
0160
0218
1fe4
0100
7fff
0220
0450
198c
6e23
0040
0188
1e10
0060
0180
1e00
ENDCHAR
STARTCHAR U53C3
ENCODING 21443
SWIDTH 960 0
DWIDTH 16 0
BBX 16 16 0 -2
BITMAP
0140
0230
1fe8
0808
0c8c
1292
7d7d
0220
0490
191c
6623
18c8
0310
1c60
0180
1e00
ENDCHAR
STARTCHAR U53C8
ENCODING 21448
SWIDTH 960 0
DWIDTH 16 0
BBX 16 16 0 -2
BITMAP
0000
0000
3ffc
0404
0404
0408
0208
0210
0110
00a0
00c0
0140
0220
0410
180c
6003
ENDCHAR
STARTCHAR U53C9
ENCODING 21449
SWIDTH 960 0
DWIDTH 16 0
BBX 16 16 0 -2
BITMAP
0000
0000
3ff8
0908
0888
0490
0490
0220
0220
0140
0080
0140
0220
0410
180c
6003
ENDCHAR
STARTCHAR U53CA
ENCODING 21450
SWIDTH 960 0
DWIDTH 16 0
BBX 16 16 0 -2
BITMAP
0000
3fe0
0420
0440
0440
06f0
0610
0510
0510
08a0
0860
0840
10a0
1110
2208
4c06
ENDCHAR
STARTCHAR U53CB
ENCODING 21451
SWIDTH 960 0
DWIDTH 16 0
BBX 16 16 0 -2
BITMAP
0100
0100
0100
7fff
0100
0100
03f0
0210
0310
0520
04a0
0840
10a0
2110
460c
1803
ENDCHAR
STARTCHAR U53CC
ENCODING 21452
SWIDTH 960 0
DWIDTH 16 0
BBX 16 16 0 -2
BITMAP
0000
7ffc
0204
0244
4244
2244
1244
0c28
0428
0610
0a10
0928
1148
1084
2302
4c01
ENDCHAR
STARTCHAR U53CD
ENCODING 21453
SWIDTH 960 0
DWIDTH 16 0
BBX 16 16 0 -2
BITMAP
0000
1ffe
1000
1000
1000
1ff8
1208
1208
1110
1110
10a0
1040
10a0
2110
260c
5803
ENDCHAR
STARTCHAR U53CE
ENCODING 21454
SWIDTH 960 0
DWIDTH 16 0
BBX 16 16 0 -2
BITMAP
0400
0400
27fc
2484
2484
2484
2484
2448
2448
2430
2630
3c28
c448
0484
0502
0401
ENDCHAR
STARTCHAR U53D4
ENCODING 21460
SWIDTH 960 0
DWIDTH 16 0
BBX 16 16 0 -2
BITMAP
0400
0400
04fc
0744
0444
0424
7fa4
0428
0428
1518
1510
2498
24a8
4444
0482
0d01
ENDCHAR
STARTCHAR U53D6
ENCODING 21462
SWIDTH 960 0
DWIDTH 16 0
BBX 16 16 0 -2
BITMAP
0000
7f80
117e
1122
1122
1f22
1122
1114
1f14
1118
1108
1114
1f24
6142
0182
0101
ENDCHAR
STARTCHAR U53D7
ENCODING 21463
SWIDTH 960 0
DWIDTH 16 0
BBX 16 16 0 -2
BITMAP
0008
0070
7f88
1208
0910
0920
7ffe
4002
5ff2
0410
0220
0140
0080
0360
0c18
7006
ENDCHAR
STARTCHAR U53D9
ENCODING 21465
SWIDTH 960 0
DWIDTH 16 0
BBX 16 16 0 -2
BITMAP
0400
04fc
0a04
0904
1084
3f24
4424
0428
7fa8
0418
1510
1498
24a8
2444
4482
0d01
ENDCHAR
STARTCHAR U53DB
ENCODING 21467
SWIDTH 960 0
DWIDTH 16 0
BBX 16 16 0 -2
BITMAP
0800
0aff
4a80
2a80
2c80
08fc
7fa4
08a4
08a4
0e94
7898
0888
1114
1124
2242
4581
ENDCHAR
STARTCHAR U53DF
ENCODING 21471
SWIDTH 960 0
DWIDTH 16 0
BBX 16 16 0 -2
BITMAP
0100
0500
1978
1108
1108
1d78
1108
1108
1ff8
0100
7ff8
0810
0620
01c0
0e38
7007
ENDCHAR
STARTCHAR U53E1
ENCODING 21473
SWIDTH 960 0
DWIDTH 16 0
BBX 16 16 0 -2
BITMAP
0800
0f7c
0804
7fa4
40a4
3f24
0524
2ca4
4a14
1f98
3148
5f18
1114
1f24
11c2
1f01
ENDCHAR
STARTCHAR U53E2
ENCODING 21474
SWIDTH 960 0
DWIDTH 16 0
BBX 16 16 0 -2
BITMAP
0948
0550
7fff
0220
1ffc
0080
0ff8
0080
7fff
1100
1f7c
1124
1f14
1108
7f34
01c3
ENDCHAR
STARTCHAR U53E3
ENCODING 21475
SWIDTH 960 0
DWIDTH 16 0
BBX 16 16 0 -2
BITMAP
0000
0000
3ffc
2004
2004
2004
2004
2004
2004
2004
2004
2004
2004
3ffc
2004
0000
ENDCHAR
STARTCHAR U53E4
ENCODING 21476
SWIDTH 960 0
DWIDTH 16 0
BBX 16 16 0 -2
BITMAP
0080
0080
0080
7fff
0080
0080
0080
0080
0ff8
0808
0808
0808
0808
0808
0ff8
0000
ENDCHAR
STARTCHAR U53E5
ENCODING 21477
SWIDTH 960 0
DWIDTH 16 0
BBX 16 16 0 -2
BITMAP
0400
0400
0400
0ffe
0802
1002
27e2
4422
0422
0422
0422
07e2
0002
0002
0004
0018
ENDCHAR
STARTCHAR U53E8
ENCODING 21480
SWIDTH 960 0
DWIDTH 16 0
BBX 16 16 0 -2
BITMAP
0000
01fe
3e22
2222
2222
2222
2222
2222
2222
2242
2242
3e42
0082
0102
0204
0418
ENDCHAR
STARTCHAR U53E9
ENCODING 21481
SWIDTH 960 0
DWIDTH 16 0
BBX 16 16 0 -2
BITMAP
0000
3e7e
2242
2242
2242
2242
2242
2242
2242
2242
2242
3e5c
0040
0040
0040
0040
ENDCHAR
STARTCHAR U53EA
ENCODING 21482
SWIDTH 960 0
DWIDTH 16 0
BBX 16 16 0 -2
BITMAP
0000
0000
1ff8
1008
1008
1008
1008
1008
1008
1ff8
0000
0420
0410
0808
1004
2004
ENDCHAR
STARTCHAR U53EB
ENCODING 21483
SWIDTH 960 0
DWIDTH 16 0
BBX 16 16 0 -2
BITMAP
0004
0004
3e44
2244
2244
2244
2244
2244
2244
2244
2247
3e7c
03c4
0004
0004
0004
ENDCHAR
STARTCHAR U53EC
ENCODING 21484
SWIDTH 960 0
DWIDTH 16 0
BBX 16 16 0 -2
BITMAP
0000
7ffe
0102
0102
0202
0202
0402
180c
6000
0ffc
0804
0804
0804
0804
0ffc
0000
ENDCHAR
STARTCHAR U53ED
ENCODING 21485
SWIDTH 960 0
DWIDTH 16 0
BBX 16 16 0 -2
BITMAP
00f8
0008
7c08
4408
4488
4488
4488
4488
4488
4488
4488
7d08
0104
0204
0402
0801
ENDCHAR
STARTCHAR U53EE
ENCODING 21486
SWIDTH 960 0
DWIDTH 16 0
BBX 16 16 0 -2
BITMAP
0000
03ff
7c10
4410
4410
4410
4410
4410
4410
4410
4410
7c10
0010
0010
0010
0030
ENDCHAR
STARTCHAR U53EF
ENCODING 21487
SWIDTH 960 0
DWIDTH 16 0
BBX 16 16 0 -2
BITMAP
0000
0000
7fff
0008
0008
0fc8
0848
0848
0848
0848
0fc8
0008
0008
0008
0008
0018
ENDCHAR
STARTCHAR U53F0
ENCODING 21488
SWIDTH 960 0
DWIDTH 16 0
BBX 16 16 0 -2
BITMAP
0100
0100
0220
0210
0408
08fc
7f04
0002
0002
1ff8
1008
1008
1008
1008
1ff8
0000
ENDCHAR
STARTCHAR U53F1
ENCODING 21489
SWIDTH 960 0
DWIDTH 16 0
BBX 16 16 0 -2
BITMAP
0080
0080
7c80
4484
4488
4490
44a0
44c0
4780
4480
4480
4480
7c82
0082
0042
003e
ENDCHAR
STARTCHAR U53F2
ENCODING 21490
SWIDTH 960 0
DWIDTH 16 0
BBX 16 16 0 -2
BITMAP
0080
0080
0080
1ffc
1084
1084
1084
1084
1ffc
0080
0480
0300
0180
0260
0c18
3007
ENDCHAR
STARTCHAR U53F3
ENCODING 21491
SWIDTH 960 0
DWIDTH 16 0
BBX 16 16 0 -2
BITMAP
0100
0100
0100
7ffe
0200
0200
0200
0400
07f8
0c08
1408
2408
4408
0408
07f8
0000
ENDCHAR
STARTCHAR U53F6
ENCODING 21494
SWIDTH 960 0
DWIDTH 16 0
BBX 16 16 0 -2
BITMAP
0010
0010
3e10
2210
2210
2210
23ff
2210
2210
2210
2210
3e10
0010
0010
0010
0010
ENDCHAR
STARTCHAR U53F7
ENCODING 21495
SWIDTH 960 0
DWIDTH 16 0
BBX 16 16 0 -2
BITMAP
0000
0ff0
0810
0810
0810
0ff0
0000
7fff
0400
0400
07f0
0810
0010
0010
0020
00c0
ENDCHAR
STARTCHAR U53F8
ENCODING 21496
SWIDTH 960 0
DWIDTH 16 0
BBX 16 16 0 -2
BITMAP
0000
7ffc
0004
0004
3fe4
0004
0004
1fc4
1044
1044
1044
1fc4
0004
0004
0008
0030
ENDCHAR
STARTCHAR U53FA
ENCODING 21498
SWIDTH 960 0
DWIDTH 16 0
BBX 16 16 0 -2
BITMAP
00e0
0020
7c20
4420
4420
4420
4420
4430
4430
4450
4450
7c88
0088
0104
0602
1801
ENDCHAR
STARTCHAR U5401
ENCODING 21505
SWIDTH 960 0
DWIDTH 16 0
BBX 16 16 0 -2
BITMAP
0000
01fc
7c20
4420
4420
4420
4420
47ff
4420
4420
4420
7c20
0020
0020
0020
0060
ENDCHAR
STARTCHAR U5403
ENCODING 21507
SWIDTH 960 0
DWIDTH 16 0
BBX 16 16 0 -2
BITMAP
0080
0080
7880
49ff
4900
4900
4afc
4c08
4810
4820
4840
7880
0102
0102
0102
00fe
ENDCHAR
STARTCHAR U5404
ENCODING 21508
SWIDTH 960 0
DWIDTH 16 0
BBX 16 16 0 -2
BITMAP
0200
0200
07f8
0410
0a20
1140
20c0
0320
0410
180c
6ffb
0808
0808
0808
0ff8
0000
ENDCHAR
STARTCHAR U5408
ENCODING 21512
SWIDTH 960 0
DWIDTH 16 0
BBX 16 16 0 -2
BITMAP
0080
0080
0140
0220
0410
180c
67f3
0000
0000
0ff8
0808
0808
0808
0808
0ff8
0000
ENDCHAR
STARTCHAR U5409
ENCODING 21513
SWIDTH 960 0
DWIDTH 16 0
BBX 16 16 0 -2
BITMAP
0080
0080
0080
7fff
0080
0080
0080
1ffc
0000
0000
0ff8
0808
0808
0808
0ff8
0000
ENDCHAR
STARTCHAR U540A
ENCODING 21514
SWIDTH 960 0
DWIDTH 16 0
BBX 16 16 0 -2
BITMAP
0000
07f0
0410
0410
0410
0410
07f0
0080
1ffc
1084
1084
1084
1084
1098
1080
0080
ENDCHAR
STARTCHAR U540B
ENCODING 21515
SWIDTH 960 0
DWIDTH 16 0
BBX 16 16 0 -2
BITMAP
0008
0008
7c08
4408
47ff
4408
4508
4488
4448
4448
4408
7c08
0008
0008
0008
0018
ENDCHAR
STARTCHAR U540C
ENCODING 21516
SWIDTH 960 0
DWIDTH 16 0
BBX 16 16 0 -2
BITMAP
0000
3ffe
2002
2002
2ffa
2002
2002
27f2
2412
2412
2412
27f2
2002
2002
2002
2006
ENDCHAR
STARTCHAR U540D
ENCODING 21517
SWIDTH 960 0
DWIDTH 16 0
BBX 16 16 0 -2
BITMAP
0100
0100
01f8
0208
0410
0a20
1140
2080
0100
07fe
1a02
6202
0202
0202
03fe
0000
ENDCHAR
STARTCHAR U540E
ENCODING 21518
SWIDTH 960 0
DWIDTH 16 0
BBX 16 16 0 -2
BITMAP
0004
0038
0fc0
0800
0800
0fff
0800
0800
0800
0bfc
0a04
1204
1204
2204
43fc
0000
ENDCHAR
STARTCHAR U540F
ENCODING 21519
SWIDTH 960 0
DWIDTH 16 0
BBX 16 16 0 -2
BITMAP
0080
0080
7fff
0080
1ff8
1088
1088
1088
1ff8
0480
0280
0100
0180
0260
0c18
7006
ENDCHAR
STARTCHAR U5410
ENCODING 21520
SWIDTH 960 0
DWIDTH 16 0
BBX 16 16 0 -2
BITMAP
0020
0020
7c20
4420
4420
4420
47fe
4420
4420
4420
4420
7c20
0020
0020
0fff
0000
ENDCHAR
STARTCHAR U5411
ENCODING 21521
SWIDTH 960 0
DWIDTH 16 0
BBX 16 16 0 -2
BITMAP
0100
0100
0200
0400
3ffe
2002
2002
27f2
2412
2412
2412
27f2
2002
2002
2002
2006
ENDCHAR
STARTCHAR U541B
ENCODING 21531
SWIDTH 960 0
DWIDTH 16 0
BBX 16 16 0 -2
BITMAP
0000
1ff8
0108
0108
7fff
0108
0108
1ff8
0200
0200
07fc
0c04
1404
2404
47fc
0000
ENDCHAR
STARTCHAR U541D
ENCODING 21533
SWIDTH 960 0
DWIDTH 16 0
BBX 16 16 0 -2
BITMAP
0080
0080
7fff
0410
0220
0140
0080
0360
0c18
7007
0ff8
0808
0808
0808
0ff8
0000
ENDCHAR
STARTCHAR U541F
ENCODING 21535
SWIDTH 960 0
DWIDTH 16 0
BBX 16 16 0 -2
BITMAP
0020
0020
7c50
4450
4488
4504
46fa
4401
4400
45fc
4404
7c08
0008
0010
0010
0020
ENDCHAR
STARTCHAR U5420
ENCODING 21536
SWIDTH 960 0
DWIDTH 16 0
BBX 16 16 0 -2
BITMAP
0020
0028
3e24
2224
2220
23ff
2220
2220
2220
2250
3e50
0088
0088
0104
0602
1801
ENDCHAR
STARTCHAR U5426
ENCODING 21542
SWIDTH 960 0
DWIDTH 16 0
BBX 16 16 0 -2
BITMAP
0000
7fff
0040
00e0
0198
0684
1882
6081
0080
0ff8
0808
0808
0808
0808
0ff8
0000
ENDCHAR
STARTCHAR U5429
ENCODING 21545
SWIDTH 960 0
DWIDTH 16 0
BBX 16 16 0 -2
BITMAP
0078
0008
7888
4888
4884
4904
49fe
4a25
4c24
4824
4824
7844
0044
0084
0104
0218
ENDCHAR
ENDFONT
